<?xml version="1.0" encoding="UTF-8" standalone="no"?>
<!DOCTYPE svg PUBLIC "-//W3C//DTD SVG 1.0//EN" "http://www.w3.org/TR/2001/PR-SVG-20010719/DTD/svg10.dtd">
<svg width="15cm" height="10cm" viewBox="8 8 289 195" xmlns="http://www.w3.org/2000/svg" xmlns:xlink="http://www.w3.org/1999/xlink">
  <g>
    <rect style="fill: #ffffff" x="30" y="70" width="40" height="40"/>
    <rect style="fill: none; fill-opacity:0; stroke-width: 2; stroke: #000000" x="30" y="70" width="40" height="40"/>
  </g>
  <text font-size="12.8" style="fill: #000000;text-anchor:middle;font-family:sans-serif;font-style:normal;font-weight:normal" x="50" y="94.45">
    <tspan x="50" y="94.45">+</tspan>
  </text>
  <g>
    <line style="fill: none; fill-opacity:0; stroke-width: 2; stroke: #000000" x1="10" y1="50" x2="23.1156" y2="63.1156"/>
    <polygon style="fill: #000000" points="28.4189,68.4189 17.8123,64.8833 23.1156,63.1156 24.8833,57.8123 "/>
    <polygon style="fill: none; fill-opacity:0; stroke-width: 2; stroke: #000000" points="28.4189,68.4189 17.8123,64.8833 23.1156,63.1156 24.8833,57.8123 "/>
  </g>
  <text font-size="12.8" style="fill: #000000;text-anchor:start;font-family:sans-serif;font-style:normal;font-weight:normal" x="10" y="50">
    <tspan x="10" y="50">a[0..7]</tspan>
  </text>
  <g>
    <line style="fill: none; fill-opacity:0; stroke-width: 2; stroke: #000000" x1="10" y1="130" x2="23.1156" y2="116.884"/>
    <polygon style="fill: #000000" points="28.4189,111.581 24.8833,122.188 23.1156,116.884 17.8123,115.117 "/>
    <polygon style="fill: none; fill-opacity:0; stroke-width: 2; stroke: #000000" points="28.4189,111.581 24.8833,122.188 23.1156,116.884 17.8123,115.117 "/>
  </g>
  <text font-size="12.8" style="fill: #000000;text-anchor:start;font-family:sans-serif;font-style:normal;font-weight:normal" x="10" y="140">
    <tspan x="10" y="140">b[0..7]</tspan>
  </text>
  <g>
    <line style="fill: none; fill-opacity:0; stroke-width: 2; stroke: #000000" x1="70" y1="110" x2="96.1648" y2="171.051"/>
    <polygon style="fill: #000000" points="99.1192,177.945 90.5843,170.723 96.1648,171.051 99.7757,166.784 "/>
    <polygon style="fill: none; fill-opacity:0; stroke-width: 2; stroke: #000000" points="99.1192,177.945 90.5843,170.723 96.1648,171.051 99.7757,166.784 "/>
  </g>
  <text font-size="12.8" style="fill: #000000;text-anchor:start;font-family:sans-serif;font-style:normal;font-weight:normal" x="80" y="200">
    <tspan x="80" y="200">s[0..7]</tspan>
  </text>
  <g>
    <rect style="fill: #ffffff" x="180" y="20" width="40" height="40"/>
    <rect style="fill: none; fill-opacity:0; stroke-width: 2; stroke: #000000" x="180" y="20" width="40" height="40"/>
  </g>
  <text font-size="12.8" style="fill: #000000;text-anchor:middle;font-family:sans-serif;font-style:normal;font-weight:normal" x="200" y="44.45">
    <tspan x="200" y="44.45">+</tspan>
  </text>
  <g>
    <line style="fill: none; fill-opacity:0; stroke-width: 2; stroke: #000000" x1="160" y1="20" x2="170.264" y2="20"/>
    <polygon style="fill: #000000" points="177.764,20 167.764,25 170.264,20 167.764,15 "/>
    <polygon style="fill: none; fill-opacity:0; stroke-width: 2; stroke: #000000" points="177.764,20 167.764,25 170.264,20 167.764,15 "/>
  </g>
  <text font-size="12.8" style="fill: #000000;text-anchor:start;font-family:sans-serif;font-style:normal;font-weight:normal" x="110" y="20">
    <tspan x="110" y="20">a[8..15]</tspan>
  </text>
  <g>
    <line style="fill: none; fill-opacity:0; stroke-width: 2; stroke: #000000" x1="160" y1="60" x2="170.264" y2="60"/>
    <polygon style="fill: #000000" points="177.764,60 167.764,65 170.264,60 167.764,55 "/>
    <polygon style="fill: none; fill-opacity:0; stroke-width: 2; stroke: #000000" points="177.764,60 167.764,65 170.264,60 167.764,55 "/>
  </g>
  <text font-size="12.8" style="fill: #000000;text-anchor:start;font-family:sans-serif;font-style:normal;font-weight:normal" x="110" y="60">
    <tspan x="110" y="60">b[8..15]</tspan>
  </text>
  <g>
    <line style="fill: none; fill-opacity:0; stroke-width: 2; stroke: #000000" x1="160" y1="40" x2="170.264" y2="40"/>
    <polygon style="fill: #000000" points="177.764,40 167.764,45 170.264,40 167.764,35 "/>
    <polygon style="fill: none; fill-opacity:0; stroke-width: 2; stroke: #000000" points="177.764,40 167.764,45 170.264,40 167.764,35 "/>
  </g>
  <text font-size="12.8" style="fill: #000000;text-anchor:start;font-family:sans-serif;font-style:normal;font-weight:normal" x="130" y="40">
    <tspan x="130" y="40">c=0</tspan>
  </text>
  <g>
    <rect style="fill: #ffffff" x="180" y="110" width="40" height="40"/>
    <rect style="fill: none; fill-opacity:0; stroke-width: 2; stroke: #000000" x="180" y="110" width="40" height="40"/>
  </g>
  <text font-size="12.8" style="fill: #000000;text-anchor:middle;font-family:sans-serif;font-style:normal;font-weight:normal" x="200" y="134.45">
    <tspan x="200" y="134.45">+</tspan>
  </text>
  <g>
    <line style="fill: none; fill-opacity:0; stroke-width: 2; stroke: #000000" x1="160" y1="110" x2="170.264" y2="110"/>
    <polygon style="fill: #000000" points="177.764,110 167.764,115 170.264,110 167.764,105 "/>
    <polygon style="fill: none; fill-opacity:0; stroke-width: 2; stroke: #000000" points="177.764,110 167.764,115 170.264,110 167.764,105 "/>
  </g>
  <text font-size="12.8" style="fill: #000000;text-anchor:start;font-family:sans-serif;font-style:normal;font-weight:normal" x="110" y="110">
    <tspan x="110" y="110">a[8..15]</tspan>
  </text>
  <g>
    <line style="fill: none; fill-opacity:0; stroke-width: 2; stroke: #000000" x1="160" y1="150" x2="170.264" y2="150"/>
    <polygon style="fill: #000000" points="177.764,150 167.764,155 170.264,150 167.764,145 "/>
    <polygon style="fill: none; fill-opacity:0; stroke-width: 2; stroke: #000000" points="177.764,150 167.764,155 170.264,150 167.764,145 "/>
  </g>
  <text font-size="12.8" style="fill: #000000;text-anchor:start;font-family:sans-serif;font-style:normal;font-weight:normal" x="110" y="150">
    <tspan x="110" y="150">b[8..15]</tspan>
  </text>
  <g>
    <line style="fill: none; fill-opacity:0; stroke-width: 2; stroke: #000000" x1="160" y1="130" x2="170.264" y2="130"/>
    <polygon style="fill: #000000" points="177.764,130 167.764,135 170.264,130 167.764,125 "/>
    <polygon style="fill: none; fill-opacity:0; stroke-width: 2; stroke: #000000" points="177.764,130 167.764,135 170.264,130 167.764,125 "/>
  </g>
  <text font-size="12.8" style="fill: #000000;text-anchor:start;font-family:sans-serif;font-style:normal;font-weight:normal" x="130" y="130">
    <tspan x="130" y="130">c=1</tspan>
  </text>
  <g>
    <line style="fill: none; fill-opacity:0; stroke-width: 2; stroke: #000000" x1="70" y1="90" x2="230.176" y2="89.9589"/>
    <polygon style="fill: #000000" points="237.676,89.957 227.677,94.9595 230.176,89.9589 227.675,84.9595 "/>
    <polygon style="fill: none; fill-opacity:0; stroke-width: 2; stroke: #000000" points="237.676,89.957 227.677,94.9595 230.176,89.9589 227.675,84.9595 "/>
  </g>
  <text font-size="12.8" style="fill: #000000;text-anchor:start;font-family:sans-serif;font-style:normal;font-weight:normal" x="80" y="80">
    <tspan x="80" y="80">c7</tspan>
  </text>
  <g>
    <line style="fill: none; fill-opacity:0; stroke-width: 2; stroke: #000000" x1="220" y1="40" x2="244.158" y2="72.2111"/>
    <polygon style="fill: #000000" points="248.658,78.2111 238.658,73.2111 244.158,72.2111 246.658,67.2111 "/>
    <polygon style="fill: none; fill-opacity:0; stroke-width: 2; stroke: #000000" points="248.658,78.2111 238.658,73.2111 244.158,72.2111 246.658,67.2111 "/>
  </g>
  <text font-size="12.8" style="fill: #000000;text-anchor:start;font-family:sans-serif;font-style:normal;font-weight:normal" x="240" y="60">
    <tspan x="240" y="60">s0[8..15]</tspan>
  </text>
  <g>
    <line style="fill: none; fill-opacity:0; stroke-width: 2; stroke: #000000" x1="220" y1="130" x2="243.116" y2="106.884"/>
    <polygon style="fill: #000000" points="248.419,101.581 244.883,112.188 243.116,106.884 237.812,105.117 "/>
    <polygon style="fill: none; fill-opacity:0; stroke-width: 2; stroke: #000000" points="248.419,101.581 244.883,112.188 243.116,106.884 237.812,105.117 "/>
  </g>
  <text font-size="12.8" style="fill: #000000;text-anchor:start;font-family:sans-serif;font-style:normal;font-weight:normal" x="230" y="140">
    <tspan x="230" y="140">s1[8..15]</tspan>
  </text>
  <g>
    <ellipse style="fill: #ffffff" cx="254.912" cy="89.9564" rx="15" ry="15"/>
    <ellipse style="fill: none; fill-opacity:0; stroke-width: 2; stroke: #000000" cx="254.912" cy="89.9564" rx="15" ry="15"/>
  </g>
  <text font-size="12.8" style="fill: #000000;text-anchor:middle;font-family:sans-serif;font-style:normal;font-weight:normal" x="254.912" y="94.4064">
    <tspan x="254.912" y="94.4064">?</tspan>
  </text>
  <g>
    <path style="fill: none; fill-opacity:0; stroke-width: 2; stroke: #000000" d="M 268.231 98.8314 C 313.319,128.875 290,180 259.445,187.639"/>
    <polygon style="fill: #000000" points="252.169,189.458 260.658,182.182 259.445,187.639 263.083,191.883 "/>
    <polygon style="fill: none; fill-opacity:0; stroke-width: 2; stroke: #000000" points="252.169,189.458 260.658,182.182 259.445,187.639 263.083,191.883 "/>
  </g>
  <text font-size="12.8" style="fill: #000000;text-anchor:start;font-family:sans-serif;font-style:normal;font-weight:normal" x="200" y="200">
    <tspan x="200" y="200">s[8..15]</tspan>
  </text>
</svg>
