<?xml version="1.0" encoding="UTF-8" standalone="no"?>
<!DOCTYPE svg PUBLIC "-//W3C//DTD SVG 1.0//EN" "http://www.w3.org/TR/2001/PR-SVG-20010719/DTD/svg10.dtd">
<svg width="18cm" height="13cm" viewBox="14 8 352 248" xmlns="http://www.w3.org/2000/svg" xmlns:xlink="http://www.w3.org/1999/xlink">
  <g>
    <rect style="fill: #ffffff" x="30" y="210" width="105" height="25"/>
    <rect style="fill: none; fill-opacity:0; stroke-width: 2; stroke: #000000" x="30" y="210" width="105" height="25"/>
  </g>
  <text font-size="12.8" style="fill: #000000;text-anchor:start;font-family:sans-serif;font-style:normal;font-weight:normal" x="40" y="225">
    <tspan x="40" y="225">Дешифратор</tspan>
  </text>
  <line style="fill: none; fill-opacity:0; stroke-width: 2; stroke: #000000" x1="50" y1="255" x2="50" y2="235"/>
  <line style="fill: none; fill-opacity:0; stroke-width: 2; stroke: #000000" x1="65" y1="255" x2="65" y2="235"/>
  <line style="fill: none; fill-opacity:0; stroke-width: 2; stroke: #000000" x1="45" y1="210" x2="45" y2="170"/>
  <line style="fill: none; fill-opacity:0; stroke-width: 2; stroke: #000000" x1="70" y1="210" x2="70" y2="170"/>
  <line style="fill: none; fill-opacity:0; stroke-width: 2; stroke: #000000" x1="95" y1="210" x2="95" y2="170"/>
  <line style="fill: none; fill-opacity:0; stroke-width: 2; stroke: #000000" x1="120" y1="210" x2="120" y2="170"/>
  <g>
    <g>
      <rect style="fill: #ffffff" x="135" y="20" width="15" height="30"/>
      <rect style="fill: none; fill-opacity:0; stroke-width: 2; stroke: #000000" x="135" y="20" width="15" height="30"/>
    </g>
    <line style="fill: none; fill-opacity:0; stroke-width: 2; stroke: #000000" x1="135" y1="20" x2="135" y2="50"/>
    <text font-size="12.8" style="fill: #000000;text-anchor:start;font-family:sans-serif;font-style:normal;font-weight:normal" x="142.5" y="35">
      <tspan x="142.5" y="35">&amp;</tspan>
    </text>
  </g>
  <g>
    <g>
      <rect style="fill: #ffffff" x="135" y="60" width="15" height="30"/>
      <rect style="fill: none; fill-opacity:0; stroke-width: 2; stroke: #000000" x="135" y="60" width="15" height="30"/>
    </g>
    <line style="fill: none; fill-opacity:0; stroke-width: 2; stroke: #000000" x1="135" y1="60" x2="135" y2="90"/>
    <text font-size="12.8" style="fill: #000000;text-anchor:start;font-family:sans-serif;font-style:normal;font-weight:normal" x="142.5" y="75">
      <tspan x="142.5" y="75">&amp;</tspan>
    </text>
  </g>
  <g>
    <g>
      <rect style="fill: #ffffff" x="135" y="100" width="15" height="30"/>
      <rect style="fill: none; fill-opacity:0; stroke-width: 2; stroke: #000000" x="135" y="100" width="15" height="30"/>
    </g>
    <line style="fill: none; fill-opacity:0; stroke-width: 2; stroke: #000000" x1="135" y1="100" x2="135" y2="130"/>
    <text font-size="12.8" style="fill: #000000;text-anchor:start;font-family:sans-serif;font-style:normal;font-weight:normal" x="142.5" y="115">
      <tspan x="142.5" y="115">&amp;</tspan>
    </text>
  </g>
  <g>
    <g>
      <rect style="fill: #ffffff" x="135" y="140" width="15" height="30"/>
      <rect style="fill: none; fill-opacity:0; stroke-width: 2; stroke: #000000" x="135" y="140" width="15" height="30"/>
    </g>
    <line style="fill: none; fill-opacity:0; stroke-width: 2; stroke: #000000" x1="135" y1="140" x2="135" y2="170"/>
    <text font-size="12.8" style="fill: #000000;text-anchor:start;font-family:sans-serif;font-style:normal;font-weight:normal" x="142.5" y="155">
      <tspan x="142.5" y="155">&amp;</tspan>
    </text>
  </g>
  <line style="fill: none; fill-opacity:0; stroke-width: 2; stroke: #ff0000" x1="15" y1="30" x2="135" y2="30"/>
  <line style="fill: none; fill-opacity:0; stroke-width: 2; stroke: #ff0000" x1="15" y1="70" x2="135" y2="70"/>
  <line style="fill: none; fill-opacity:0; stroke-width: 2; stroke: #ff0000" x1="15" y1="110" x2="135" y2="110"/>
  <line style="fill: none; fill-opacity:0; stroke-width: 2; stroke: #ff0000" x1="15" y1="150" x2="135" y2="150"/>
  <line style="fill: none; fill-opacity:0; stroke-width: 2; stroke: #000000" x1="120" y1="170" x2="135" y2="160"/>
  <line style="fill: none; fill-opacity:0; stroke-width: 2; stroke: #000000" x1="95" y1="170" x2="135" y2="120"/>
  <line style="fill: none; fill-opacity:0; stroke-width: 2; stroke: #000000" x1="70" y1="170" x2="135" y2="80"/>
  <line style="fill: none; fill-opacity:0; stroke-width: 2; stroke: #000000" x1="45" y1="170" x2="135" y2="40"/>
  <line style="fill: none; fill-opacity:0; stroke-width: 2; stroke: #ff0000" x1="150" y1="35" x2="170" y2="100"/>
  <line style="fill: none; fill-opacity:0; stroke-width: 2; stroke: #ff0000" x1="150" y1="75" x2="170" y2="100"/>
  <line style="fill: none; fill-opacity:0; stroke-width: 2; stroke: #ff0000" x1="150" y1="115" x2="170" y2="100"/>
  <line style="fill: none; fill-opacity:0; stroke-width: 2; stroke: #ff0000" x1="150" y1="155" x2="170" y2="100"/>
  <line style="fill: none; fill-opacity:0; stroke-width: 2; stroke: #ff0000" x1="170" y1="100" x2="190" y2="100"/>
  <text font-size="12.8" style="fill: #000000;text-anchor:start;font-family:sans-serif;font-style:normal;font-weight:normal" x="25" y="20">
    <tspan x="25" y="20">Мультиплексор</tspan>
  </text>
  <g>
    <rect style="fill: #ffffff" x="230" y="210" width="105" height="25"/>
    <rect style="fill: none; fill-opacity:0; stroke-width: 2; stroke: #000000" x="230" y="210" width="105" height="25"/>
  </g>
  <text font-size="12.8" style="fill: #000000;text-anchor:start;font-family:sans-serif;font-style:normal;font-weight:normal" x="240" y="225">
    <tspan x="240" y="225">Дешифратор</tspan>
  </text>
  <line style="fill: none; fill-opacity:0; stroke-width: 2; stroke: #000000" x1="250" y1="255" x2="250" y2="235"/>
  <line style="fill: none; fill-opacity:0; stroke-width: 2; stroke: #000000" x1="265" y1="255" x2="265" y2="235"/>
  <line style="fill: none; fill-opacity:0; stroke-width: 2; stroke: #000000" x1="245" y1="210" x2="245" y2="170"/>
  <line style="fill: none; fill-opacity:0; stroke-width: 2; stroke: #000000" x1="270" y1="210" x2="270" y2="170"/>
  <line style="fill: none; fill-opacity:0; stroke-width: 2; stroke: #000000" x1="295" y1="210" x2="295" y2="170"/>
  <line style="fill: none; fill-opacity:0; stroke-width: 2; stroke: #000000" x1="320" y1="210" x2="320" y2="170"/>
  <line style="fill: none; fill-opacity:0; stroke-width: 2; stroke: #ff0000" x1="255" y1="100" x2="330" y2="25"/>
  <line style="fill: none; fill-opacity:0; stroke-width: 2; stroke: #ff0000" x1="255" y1="100" x2="330" y2="65"/>
  <line style="fill: none; fill-opacity:0; stroke-width: 2; stroke: #ff0000" x1="255" y1="100" x2="330" y2="105"/>
  <line style="fill: none; fill-opacity:0; stroke-width: 2; stroke: #ff0000" x1="255" y1="100" x2="330" y2="145"/>
  <line style="fill: none; fill-opacity:0; stroke-width: 2; stroke: #000000" x1="320" y1="170" x2="330" y2="160"/>
  <line style="fill: none; fill-opacity:0; stroke-width: 2; stroke: #000000" x1="295" y1="170" x2="330" y2="120"/>
  <line style="fill: none; fill-opacity:0; stroke-width: 2; stroke: #000000" x1="270" y1="170" x2="330" y2="80"/>
  <line style="fill: none; fill-opacity:0; stroke-width: 2; stroke: #000000" x1="245" y1="170" x2="330" y2="45"/>
  <g>
    <g>
      <rect style="fill: #ffffff" x="330" y="20" width="15" height="30"/>
      <rect style="fill: none; fill-opacity:0; stroke-width: 2; stroke: #000000" x="330" y="20" width="15" height="30"/>
    </g>
    <line style="fill: none; fill-opacity:0; stroke-width: 2; stroke: #000000" x1="330" y1="20" x2="330" y2="50"/>
    <text font-size="12.8" style="fill: #000000;text-anchor:start;font-family:sans-serif;font-style:normal;font-weight:normal" x="337.5" y="35">
      <tspan x="337.5" y="35">&amp;</tspan>
    </text>
  </g>
  <g>
    <g>
      <rect style="fill: #ffffff" x="330" y="60" width="15" height="30"/>
      <rect style="fill: none; fill-opacity:0; stroke-width: 2; stroke: #000000" x="330" y="60" width="15" height="30"/>
    </g>
    <line style="fill: none; fill-opacity:0; stroke-width: 2; stroke: #000000" x1="330" y1="60" x2="330" y2="90"/>
    <text font-size="12.8" style="fill: #000000;text-anchor:start;font-family:sans-serif;font-style:normal;font-weight:normal" x="337.5" y="75">
      <tspan x="337.5" y="75">&amp;</tspan>
    </text>
  </g>
  <g>
    <g>
      <rect style="fill: #ffffff" x="330" y="100" width="15" height="30"/>
      <rect style="fill: none; fill-opacity:0; stroke-width: 2; stroke: #000000" x="330" y="100" width="15" height="30"/>
    </g>
    <line style="fill: none; fill-opacity:0; stroke-width: 2; stroke: #000000" x1="330" y1="100" x2="330" y2="130"/>
    <text font-size="12.8" style="fill: #000000;text-anchor:start;font-family:sans-serif;font-style:normal;font-weight:normal" x="337.5" y="115">
      <tspan x="337.5" y="115">&amp;</tspan>
    </text>
  </g>
  <g>
    <g>
      <rect style="fill: #ffffff" x="330" y="140" width="15" height="30"/>
      <rect style="fill: none; fill-opacity:0; stroke-width: 2; stroke: #000000" x="330" y="140" width="15" height="30"/>
    </g>
    <line style="fill: none; fill-opacity:0; stroke-width: 2; stroke: #000000" x1="330" y1="140" x2="330" y2="170"/>
    <text font-size="12.8" style="fill: #000000;text-anchor:start;font-family:sans-serif;font-style:normal;font-weight:normal" x="337.5" y="155">
      <tspan x="337.5" y="155">&amp;</tspan>
    </text>
  </g>
  <line style="fill: none; fill-opacity:0; stroke-width: 2; stroke: #ff0000" x1="345" y1="35" x2="365" y2="35"/>
  <line style="fill: none; fill-opacity:0; stroke-width: 2; stroke: #ff0000" x1="345" y1="75" x2="365" y2="75"/>
  <line style="fill: none; fill-opacity:0; stroke-width: 2; stroke: #ff0000" x1="345" y1="115" x2="365" y2="115"/>
  <line style="fill: none; fill-opacity:0; stroke-width: 2; stroke: #ff0000" x1="345" y1="155" x2="365" y2="155"/>
  <line style="fill: none; fill-opacity:0; stroke-width: 2; stroke: #ff0000" x1="255" y1="100" x2="235" y2="100"/>
  <text font-size="12.8" style="fill: #000000;text-anchor:start;font-family:sans-serif;font-style:normal;font-weight:normal" x="200" y="20">
    <tspan x="200" y="20">Демультиплексор</tspan>
  </text>
</svg>
