<?xml version="1.0" encoding="utf-8" standalone="no"?>
<!DOCTYPE svg PUBLIC "-//W3C//DTD SVG 1.1//EN"
  "http://www.w3.org/Graphics/SVG/1.1/DTD/svg11.dtd">
<!-- Created with matplotlib (https://matplotlib.org/) -->
<svg height="345.6pt" version="1.1" viewBox="0 0 460.8 345.6" width="460.8pt" xmlns="http://www.w3.org/2000/svg" xmlns:xlink="http://www.w3.org/1999/xlink">
 <defs>
  <style type="text/css">
*{stroke-linecap:butt;stroke-linejoin:round;}
  </style>
 </defs>
 <g id="figure_1">
  <g id="patch_1">
   <path d="M 0 345.6 
L 460.8 345.6 
L 460.8 0 
L 0 0 
z
" style="fill:#ffffff;"/>
  </g>
  <g id="axes_1">
   <g id="patch_2">
    <path d="M 57.6 307.584 
L 414.72 307.584 
L 414.72 41.472 
L 57.6 41.472 
z
" style="fill:#ffffff;"/>
   </g>
   <g id="matplotlib.axis_1">
    <g id="xtick_1">
     <g id="line2d_1">
      <defs>
       <path d="M 0 0 
L 0 3.5 
" id="m48a8d49e0c" style="stroke:#000000;stroke-width:0.8;"/>
      </defs>
      <g>
       <use style="stroke:#000000;stroke-width:0.8;" x="73.832727" xlink:href="#m48a8d49e0c" y="307.584"/>
      </g>
     </g>
     <g id="text_1">
      <!-- 0 -->
      <defs>
       <path d="M 31.78125 66.40625 
Q 24.171875 66.40625 20.328125 58.90625 
Q 16.5 51.421875 16.5 36.375 
Q 16.5 21.390625 20.328125 13.890625 
Q 24.171875 6.390625 31.78125 6.390625 
Q 39.453125 6.390625 43.28125 13.890625 
Q 47.125 21.390625 47.125 36.375 
Q 47.125 51.421875 43.28125 58.90625 
Q 39.453125 66.40625 31.78125 66.40625 
z
M 31.78125 74.21875 
Q 44.046875 74.21875 50.515625 64.515625 
Q 56.984375 54.828125 56.984375 36.375 
Q 56.984375 17.96875 50.515625 8.265625 
Q 44.046875 -1.421875 31.78125 -1.421875 
Q 19.53125 -1.421875 13.0625 8.265625 
Q 6.59375 17.96875 6.59375 36.375 
Q 6.59375 54.828125 13.0625 64.515625 
Q 19.53125 74.21875 31.78125 74.21875 
z
" id="DejaVuSans-48"/>
      </defs>
      <g transform="translate(70.651477 322.182437)scale(0.1 -0.1)">
       <use xlink:href="#DejaVuSans-48"/>
      </g>
     </g>
    </g>
    <g id="xtick_2">
     <g id="line2d_2">
      <g>
       <use style="stroke:#000000;stroke-width:0.8;" x="139.089922" xlink:href="#m48a8d49e0c" y="307.584"/>
      </g>
     </g>
     <g id="text_2">
      <!-- 2 -->
      <defs>
       <path d="M 19.1875 8.296875 
L 53.609375 8.296875 
L 53.609375 0 
L 7.328125 0 
L 7.328125 8.296875 
Q 12.9375 14.109375 22.625 23.890625 
Q 32.328125 33.6875 34.8125 36.53125 
Q 39.546875 41.84375 41.421875 45.53125 
Q 43.3125 49.21875 43.3125 52.78125 
Q 43.3125 58.59375 39.234375 62.25 
Q 35.15625 65.921875 28.609375 65.921875 
Q 23.96875 65.921875 18.8125 64.3125 
Q 13.671875 62.703125 7.8125 59.421875 
L 7.8125 69.390625 
Q 13.765625 71.78125 18.9375 73 
Q 24.125 74.21875 28.421875 74.21875 
Q 39.75 74.21875 46.484375 68.546875 
Q 53.21875 62.890625 53.21875 53.421875 
Q 53.21875 48.921875 51.53125 44.890625 
Q 49.859375 40.875 45.40625 35.40625 
Q 44.1875 33.984375 37.640625 27.21875 
Q 31.109375 20.453125 19.1875 8.296875 
z
" id="DejaVuSans-50"/>
      </defs>
      <g transform="translate(135.908672 322.182437)scale(0.1 -0.1)">
       <use xlink:href="#DejaVuSans-50"/>
      </g>
     </g>
    </g>
    <g id="xtick_3">
     <g id="line2d_3">
      <g>
       <use style="stroke:#000000;stroke-width:0.8;" x="204.347117" xlink:href="#m48a8d49e0c" y="307.584"/>
      </g>
     </g>
     <g id="text_3">
      <!-- 4 -->
      <defs>
       <path d="M 37.796875 64.3125 
L 12.890625 25.390625 
L 37.796875 25.390625 
z
M 35.203125 72.90625 
L 47.609375 72.90625 
L 47.609375 25.390625 
L 58.015625 25.390625 
L 58.015625 17.1875 
L 47.609375 17.1875 
L 47.609375 0 
L 37.796875 0 
L 37.796875 17.1875 
L 4.890625 17.1875 
L 4.890625 26.703125 
z
" id="DejaVuSans-52"/>
      </defs>
      <g transform="translate(201.165867 322.182437)scale(0.1 -0.1)">
       <use xlink:href="#DejaVuSans-52"/>
      </g>
     </g>
    </g>
    <g id="xtick_4">
     <g id="line2d_4">
      <g>
       <use style="stroke:#000000;stroke-width:0.8;" x="269.604312" xlink:href="#m48a8d49e0c" y="307.584"/>
      </g>
     </g>
     <g id="text_4">
      <!-- 6 -->
      <defs>
       <path d="M 33.015625 40.375 
Q 26.375 40.375 22.484375 35.828125 
Q 18.609375 31.296875 18.609375 23.390625 
Q 18.609375 15.53125 22.484375 10.953125 
Q 26.375 6.390625 33.015625 6.390625 
Q 39.65625 6.390625 43.53125 10.953125 
Q 47.40625 15.53125 47.40625 23.390625 
Q 47.40625 31.296875 43.53125 35.828125 
Q 39.65625 40.375 33.015625 40.375 
z
M 52.59375 71.296875 
L 52.59375 62.3125 
Q 48.875 64.0625 45.09375 64.984375 
Q 41.3125 65.921875 37.59375 65.921875 
Q 27.828125 65.921875 22.671875 59.328125 
Q 17.53125 52.734375 16.796875 39.40625 
Q 19.671875 43.65625 24.015625 45.921875 
Q 28.375 48.1875 33.59375 48.1875 
Q 44.578125 48.1875 50.953125 41.515625 
Q 57.328125 34.859375 57.328125 23.390625 
Q 57.328125 12.15625 50.6875 5.359375 
Q 44.046875 -1.421875 33.015625 -1.421875 
Q 20.359375 -1.421875 13.671875 8.265625 
Q 6.984375 17.96875 6.984375 36.375 
Q 6.984375 53.65625 15.1875 63.9375 
Q 23.390625 74.21875 37.203125 74.21875 
Q 40.921875 74.21875 44.703125 73.484375 
Q 48.484375 72.75 52.59375 71.296875 
z
" id="DejaVuSans-54"/>
      </defs>
      <g transform="translate(266.423062 322.182437)scale(0.1 -0.1)">
       <use xlink:href="#DejaVuSans-54"/>
      </g>
     </g>
    </g>
    <g id="xtick_5">
     <g id="line2d_5">
      <g>
       <use style="stroke:#000000;stroke-width:0.8;" x="334.861508" xlink:href="#m48a8d49e0c" y="307.584"/>
      </g>
     </g>
     <g id="text_5">
      <!-- 8 -->
      <defs>
       <path d="M 31.78125 34.625 
Q 24.75 34.625 20.71875 30.859375 
Q 16.703125 27.09375 16.703125 20.515625 
Q 16.703125 13.921875 20.71875 10.15625 
Q 24.75 6.390625 31.78125 6.390625 
Q 38.8125 6.390625 42.859375 10.171875 
Q 46.921875 13.96875 46.921875 20.515625 
Q 46.921875 27.09375 42.890625 30.859375 
Q 38.875 34.625 31.78125 34.625 
z
M 21.921875 38.8125 
Q 15.578125 40.375 12.03125 44.71875 
Q 8.5 49.078125 8.5 55.328125 
Q 8.5 64.0625 14.71875 69.140625 
Q 20.953125 74.21875 31.78125 74.21875 
Q 42.671875 74.21875 48.875 69.140625 
Q 55.078125 64.0625 55.078125 55.328125 
Q 55.078125 49.078125 51.53125 44.71875 
Q 48 40.375 41.703125 38.8125 
Q 48.828125 37.15625 52.796875 32.3125 
Q 56.78125 27.484375 56.78125 20.515625 
Q 56.78125 9.90625 50.3125 4.234375 
Q 43.84375 -1.421875 31.78125 -1.421875 
Q 19.734375 -1.421875 13.25 4.234375 
Q 6.78125 9.90625 6.78125 20.515625 
Q 6.78125 27.484375 10.78125 32.3125 
Q 14.796875 37.15625 21.921875 38.8125 
z
M 18.3125 54.390625 
Q 18.3125 48.734375 21.84375 45.5625 
Q 25.390625 42.390625 31.78125 42.390625 
Q 38.140625 42.390625 41.71875 45.5625 
Q 45.3125 48.734375 45.3125 54.390625 
Q 45.3125 60.0625 41.71875 63.234375 
Q 38.140625 66.40625 31.78125 66.40625 
Q 25.390625 66.40625 21.84375 63.234375 
Q 18.3125 60.0625 18.3125 54.390625 
z
" id="DejaVuSans-56"/>
      </defs>
      <g transform="translate(331.680258 322.182437)scale(0.1 -0.1)">
       <use xlink:href="#DejaVuSans-56"/>
      </g>
     </g>
    </g>
    <g id="xtick_6">
     <g id="line2d_6">
      <g>
       <use style="stroke:#000000;stroke-width:0.8;" x="400.118703" xlink:href="#m48a8d49e0c" y="307.584"/>
      </g>
     </g>
     <g id="text_6">
      <!-- 10 -->
      <defs>
       <path d="M 12.40625 8.296875 
L 28.515625 8.296875 
L 28.515625 63.921875 
L 10.984375 60.40625 
L 10.984375 69.390625 
L 28.421875 72.90625 
L 38.28125 72.90625 
L 38.28125 8.296875 
L 54.390625 8.296875 
L 54.390625 0 
L 12.40625 0 
z
" id="DejaVuSans-49"/>
      </defs>
      <g transform="translate(393.756203 322.182437)scale(0.1 -0.1)">
       <use xlink:href="#DejaVuSans-49"/>
       <use x="63.623047" xlink:href="#DejaVuSans-48"/>
      </g>
     </g>
    </g>
   </g>
   <g id="matplotlib.axis_2">
    <g id="ytick_1">
     <g id="line2d_7">
      <defs>
       <path d="M 0 0 
L -3.5 0 
" id="m28adf6f2bb" style="stroke:#000000;stroke-width:0.8;"/>
      </defs>
      <g>
       <use style="stroke:#000000;stroke-width:0.8;" x="57.6" xlink:href="#m28adf6f2bb" y="295.508497"/>
      </g>
     </g>
     <g id="text_7">
      <!-- −1.0 -->
      <defs>
       <path d="M 10.59375 35.5 
L 73.1875 35.5 
L 73.1875 27.203125 
L 10.59375 27.203125 
z
" id="DejaVuSans-8722"/>
       <path d="M 10.6875 12.40625 
L 21 12.40625 
L 21 0 
L 10.6875 0 
z
" id="DejaVuSans-46"/>
      </defs>
      <g transform="translate(26.317187 299.307716)scale(0.1 -0.1)">
       <use xlink:href="#DejaVuSans-8722"/>
       <use x="83.789062" xlink:href="#DejaVuSans-49"/>
       <use x="147.412109" xlink:href="#DejaVuSans-46"/>
       <use x="179.199219" xlink:href="#DejaVuSans-48"/>
      </g>
     </g>
    </g>
    <g id="ytick_2">
     <g id="line2d_8">
      <g>
       <use style="stroke:#000000;stroke-width:0.8;" x="57.6" xlink:href="#m28adf6f2bb" y="248.300471"/>
      </g>
     </g>
     <g id="text_8">
      <!-- −0.5 -->
      <defs>
       <path d="M 10.796875 72.90625 
L 49.515625 72.90625 
L 49.515625 64.59375 
L 19.828125 64.59375 
L 19.828125 46.734375 
Q 21.96875 47.46875 24.109375 47.828125 
Q 26.265625 48.1875 28.421875 48.1875 
Q 40.625 48.1875 47.75 41.5 
Q 54.890625 34.8125 54.890625 23.390625 
Q 54.890625 11.625 47.5625 5.09375 
Q 40.234375 -1.421875 26.90625 -1.421875 
Q 22.3125 -1.421875 17.546875 -0.640625 
Q 12.796875 0.140625 7.71875 1.703125 
L 7.71875 11.625 
Q 12.109375 9.234375 16.796875 8.0625 
Q 21.484375 6.890625 26.703125 6.890625 
Q 35.15625 6.890625 40.078125 11.328125 
Q 45.015625 15.765625 45.015625 23.390625 
Q 45.015625 31 40.078125 35.4375 
Q 35.15625 39.890625 26.703125 39.890625 
Q 22.75 39.890625 18.8125 39.015625 
Q 14.890625 38.140625 10.796875 36.28125 
z
" id="DejaVuSans-53"/>
      </defs>
      <g transform="translate(26.317187 252.09969)scale(0.1 -0.1)">
       <use xlink:href="#DejaVuSans-8722"/>
       <use x="83.789062" xlink:href="#DejaVuSans-48"/>
       <use x="147.412109" xlink:href="#DejaVuSans-46"/>
       <use x="179.199219" xlink:href="#DejaVuSans-53"/>
      </g>
     </g>
    </g>
    <g id="ytick_3">
     <g id="line2d_9">
      <g>
       <use style="stroke:#000000;stroke-width:0.8;" x="57.6" xlink:href="#m28adf6f2bb" y="201.092445"/>
      </g>
     </g>
     <g id="text_9">
      <!-- 0.0 -->
      <g transform="translate(34.696875 204.891664)scale(0.1 -0.1)">
       <use xlink:href="#DejaVuSans-48"/>
       <use x="63.623047" xlink:href="#DejaVuSans-46"/>
       <use x="95.410156" xlink:href="#DejaVuSans-48"/>
      </g>
     </g>
    </g>
    <g id="ytick_4">
     <g id="line2d_10">
      <g>
       <use style="stroke:#000000;stroke-width:0.8;" x="57.6" xlink:href="#m28adf6f2bb" y="153.884419"/>
      </g>
     </g>
     <g id="text_10">
      <!-- 0.5 -->
      <g transform="translate(34.696875 157.683638)scale(0.1 -0.1)">
       <use xlink:href="#DejaVuSans-48"/>
       <use x="63.623047" xlink:href="#DejaVuSans-46"/>
       <use x="95.410156" xlink:href="#DejaVuSans-53"/>
      </g>
     </g>
    </g>
    <g id="ytick_5">
     <g id="line2d_11">
      <g>
       <use style="stroke:#000000;stroke-width:0.8;" x="57.6" xlink:href="#m28adf6f2bb" y="106.676393"/>
      </g>
     </g>
     <g id="text_11">
      <!-- 1.0 -->
      <g transform="translate(34.696875 110.475612)scale(0.1 -0.1)">
       <use xlink:href="#DejaVuSans-49"/>
       <use x="63.623047" xlink:href="#DejaVuSans-46"/>
       <use x="95.410156" xlink:href="#DejaVuSans-48"/>
      </g>
     </g>
    </g>
    <g id="ytick_6">
     <g id="line2d_12">
      <g>
       <use style="stroke:#000000;stroke-width:0.8;" x="57.6" xlink:href="#m28adf6f2bb" y="59.468367"/>
      </g>
     </g>
     <g id="text_12">
      <!-- 1.5 -->
      <g transform="translate(34.696875 63.267586)scale(0.1 -0.1)">
       <use xlink:href="#DejaVuSans-49"/>
       <use x="63.623047" xlink:href="#DejaVuSans-46"/>
       <use x="95.410156" xlink:href="#DejaVuSans-53"/>
      </g>
     </g>
    </g>
   </g>
   <g id="line2d_13">
    <path clip-path="url(#p48be0b76ba)" d="M 73.832727 59.468367 
L 75.464157 57.344793 
L 77.095587 55.696446 
L 78.727017 54.522164 
L 80.358447 53.816135 
L 81.989877 53.568 
L 83.621307 53.763002 
L 85.252736 54.382174 
L 86.884166 55.402573 
L 88.515596 56.797549 
L 90.147026 58.537054 
L 91.778456 60.587983 
L 93.409886 62.914542 
L 96.672746 68.240334 
L 99.935605 74.18988 
L 108.092755 89.559843 
L 111.355614 95.040185 
L 112.987044 97.487569 
L 114.618474 99.697111 
L 116.249904 101.64074 
L 117.881334 103.293881 
L 119.512764 104.635713 
L 121.144194 105.649391 
L 122.775624 106.322215 
L 124.407053 106.645773 
L 126.038483 106.616022 
L 127.669913 106.233333 
L 129.301343 105.502489 
L 130.932773 104.43263 
L 132.564203 103.037163 
L 134.195633 101.333617 
L 135.827063 99.343458 
L 137.458492 97.09187 
L 140.721352 91.922071 
L 143.984212 86.088991 
L 153.772791 67.7639 
L 157.035651 62.505662 
L 158.667081 60.222844 
L 160.298511 58.221845 
L 161.929941 56.538035 
L 163.56137 55.20403 
L 165.1928 54.249329 
L 166.82423 53.699981 
L 168.45566 53.578276 
L 170.08709 53.90249 
L 171.71852 54.686652 
L 173.34995 55.940366 
L 174.98138 57.668667 
L 176.61281 59.87193 
L 178.244239 62.545822 
L 179.875669 65.681298 
L 181.507099 69.264651 
L 183.138529 73.277603 
L 184.769959 77.697445 
L 186.401389 82.497217 
L 189.664249 93.108877 
L 192.927108 104.821549 
L 197.821398 123.699515 
L 204.347117 149.272314 
L 207.609977 161.316472 
L 210.872837 172.336357 
L 212.504267 177.346868 
L 214.135697 181.967812 
L 215.767127 186.16051 
L 217.398556 189.889749 
L 219.029986 193.124121 
L 220.661416 195.836321 
L 222.292846 198.00341 
L 223.924276 199.607027 
L 225.555706 200.633572 
L 227.187136 201.074331 
L 228.818566 200.925562 
L 230.449995 200.188528 
L 232.081425 198.869486 
L 233.712855 196.979629 
L 235.344285 194.534978 
L 236.975715 191.556226 
L 238.607145 188.068546 
L 240.238575 184.101348 
L 241.870005 179.687998 
L 243.501434 174.865503 
L 246.764294 164.157151 
L 250.027154 152.33101 
L 254.921444 133.349109 
L 261.447163 107.855381 
L 264.710023 95.920879 
L 267.972883 85.007178 
L 269.604312 80.030367 
L 271.235742 75.418622 
L 272.867172 71.200924 
L 274.498602 67.402114 
L 276.130032 64.042688 
L 277.761462 61.138631 
L 279.392892 58.701308 
L 281.024322 56.737389 
L 282.655751 55.24883 
L 284.287181 54.232896 
L 285.918611 53.682232 
L 287.550041 53.584982 
L 289.181471 53.924949 
L 290.812901 54.681802 
L 292.444331 55.831319 
L 294.075761 57.34567 
L 295.70719 59.193742 
L 297.33862 61.34148 
L 298.97005 63.752276 
L 302.23291 69.206258 
L 305.49577 75.227477 
L 312.021489 87.606629 
L 315.284349 93.299734 
L 316.915779 95.887896 
L 318.547209 98.258632 
L 320.178639 100.381714 
L 321.810069 102.230214 
L 323.441498 103.780794 
L 325.072928 105.013947 
L 326.704358 105.914204 
L 328.335788 106.470296 
L 329.967218 106.67527 
L 331.598648 106.526567 
L 333.230078 106.026044 
L 334.861508 105.179957 
L 336.492937 103.998894 
L 338.124367 102.497665 
L 339.755797 100.695147 
L 341.387227 98.614084 
L 343.018657 96.280848 
L 346.281517 90.979794 
L 349.544376 85.064134 
L 357.701526 69.669416 
L 360.964386 64.157968 
L 362.595815 61.708804 
L 364.227245 59.516658 
L 365.858675 57.61851 
L 367.490105 56.048844 
L 369.121535 54.83927 
L 370.752965 54.018161 
L 372.384395 53.610333 
L 374.015825 53.636755 
L 375.647254 54.114298 
L 377.278684 55.05552 
L 378.910114 56.468503 
L 380.541544 58.356723 
L 382.172974 60.718974 
L 383.804404 63.549336 
L 385.435834 66.837189 
L 387.067264 70.567278 
L 388.698693 74.719814 
L 390.330123 79.270638 
L 393.592983 89.449855 
L 396.855843 100.832704 
L 398.487273 106.875579 
L 398.487273 106.875579 
" style="fill:none;stroke:#1f77b4;stroke-linecap:square;stroke-width:1.5;"/>
   </g>
   <g id="line2d_14">
    <path clip-path="url(#p48be0b76ba)" d="M 73.832727 257.597822 
L 75.464157 291.255545 
L 77.095587 290.364268 
L 78.727017 254.600538 
L 81.989877 141.944739 
L 83.621307 109.689957 
L 85.252736 113.624863 
L 86.884166 151.939732 
L 90.147026 263.085146 
L 91.778456 293.028827 
L 93.409886 288.443066 
L 95.041316 251.958648 
L 98.304175 145.127925 
L 99.935605 112.280806 
L 101.567035 109.285602 
L 103.198465 135.945076 
L 104.829895 182.694916 
L 106.461325 234.448913 
L 108.092755 275.652007 
L 109.724185 294.8414 
L 111.355614 287.48122 
L 112.987044 256.559587 
L 116.249904 163.521498 
L 117.881334 125.95558 
L 119.512764 107.644816 
L 121.144194 112.749993 
L 122.775624 139.663066 
L 124.407053 181.597562 
L 126.038483 228.277954 
L 127.669913 268.337518 
L 129.301343 291.933226 
L 130.932773 293.057006 
L 132.564203 271.0638 
L 134.195633 231.050164 
L 135.827063 182.904711 
L 137.458492 139.106952 
L 139.089922 111.648843 
L 140.721352 108.740466 
L 142.352782 132.157044 
L 143.984212 176.094232 
L 145.615642 228.145352 
L 147.247072 272.482866 
L 148.878502 294.6061 
L 150.509931 286.316074 
L 152.141361 249.185975 
L 155.404221 142.353232 
L 157.035651 110.502842 
L 158.667081 111.90529 
L 160.298511 146.949421 
L 163.56137 258.56916 
L 165.1928 291.866449 
L 166.82423 289.423459 
L 168.45566 251.985433 
L 171.71852 139.564246 
L 173.34995 109.054237 
L 174.98138 114.398471 
L 176.61281 152.826169 
L 179.875669 261.678662 
L 181.507099 292.083117 
L 183.138529 290.606471 
L 184.769959 259.313694 
L 188.032819 158.900775 
L 189.664249 121.314893 
L 191.295678 106.737321 
L 192.927108 117.212858 
L 194.558538 148.009735 
L 197.821398 233.16704 
L 199.452828 268.360486 
L 201.084258 289.833065 
L 202.715688 295.316383 
L 204.347117 285.723252 
L 205.978547 264.226349 
L 207.609977 235.175241 
L 210.872837 172.145867 
L 212.504267 145.389138 
L 214.135697 124.974435 
L 215.767127 112.021898 
L 217.398556 106.812062 
L 219.029986 108.986263 
L 220.661416 117.743624 
L 222.292846 132.007341 
L 223.924276 150.548884 
L 225.555706 172.069763 
L 230.449995 241.261343 
L 232.081425 261.443845 
L 233.712855 277.986843 
L 235.344285 289.619369 
L 236.975715 295.176638 
L 238.607145 293.70276 
L 240.238575 284.59679 
L 241.870005 267.796808 
L 243.501434 243.983213 
L 245.132864 214.764358 
L 248.395724 151.699735 
L 250.027154 125.882599 
L 251.658584 109.895478 
L 253.290014 107.627486 
L 254.921444 121.244465 
L 256.552873 150.145541 
L 258.184303 190.261687 
L 259.815733 234.085979 
L 261.447163 271.752305 
L 263.078593 293.228584 
L 264.710023 291.275741 
L 266.341453 264.355504 
L 267.972883 218.353453 
L 269.604312 166.054907 
L 271.235742 123.913958 
L 272.867172 106.7069 
L 274.498602 121.789274 
L 276.130032 165.317023 
L 277.761462 222.452931 
L 279.392892 272.157431 
L 281.024322 295.135325 
L 282.655751 281.812158 
L 284.287181 236.796714 
L 285.918611 177.560988 
L 287.550041 127.579931 
L 289.181471 106.745053 
L 290.812901 123.200936 
L 292.444331 170.146452 
L 294.075761 228.883235 
L 295.70719 276.609286 
L 297.33862 295.488 
L 298.97005 279.226563 
L 300.60148 234.7517 
L 302.23291 178.790286 
L 303.86434 131.179056 
L 305.49577 107.731905 
L 307.1272 115.251249 
L 308.75863 150.107778 
L 312.021489 250.173726 
L 313.652919 284.946279 
L 315.284349 295.329888 
L 316.915779 279.363946 
L 318.547209 242.326063 
L 321.810069 149.221916 
L 323.441498 117.324939 
L 325.072928 106.709401 
L 326.704358 119.609494 
L 328.335788 152.548716 
L 331.598648 243.034109 
L 333.230078 278.506941 
L 334.861508 294.971129 
L 336.492937 288.102679 
L 338.124367 259.209683 
L 339.755797 215.172783 
L 341.387227 167.051854 
L 343.018657 127.532883 
L 344.650087 107.690577 
L 346.281517 113.808828 
L 347.912947 145.144842 
L 351.175806 244.715363 
L 352.807236 282.983381 
L 354.438666 295.35582 
L 356.070096 276.657914 
L 357.701526 232.026679 
L 359.332956 176.091904 
L 360.964386 128.498135 
L 362.595815 106.962257 
L 364.227245 120.31531 
L 365.858675 164.399232 
L 367.490105 222.884115 
L 369.121535 273.174692 
L 370.752965 295.316884 
L 372.384395 280.256554 
L 374.015825 233.811168 
L 375.647254 174.453126 
L 377.278684 125.742895 
L 378.910114 106.682979 
L 380.541544 124.180035 
L 382.172974 170.753251 
L 383.804404 228.17276 
L 385.435834 275.100669 
L 387.067264 295.281837 
L 388.698693 282.986275 
L 390.330123 243.954889 
L 391.961553 192.144918 
L 393.592983 144.137056 
L 395.224413 113.585193 
L 396.855843 107.578012 
L 398.487273 125.691481 
L 398.487273 125.691481 
" style="fill:none;stroke:#ff7f0e;stroke-linecap:square;stroke-width:1.5;"/>
   </g>
   <g id="patch_3">
    <path d="M 57.6 307.584 
L 57.6 41.472 
" style="fill:none;stroke:#000000;stroke-linecap:square;stroke-linejoin:miter;stroke-width:0.8;"/>
   </g>
   <g id="patch_4">
    <path d="M 414.72 307.584 
L 414.72 41.472 
" style="fill:none;stroke:#000000;stroke-linecap:square;stroke-linejoin:miter;stroke-width:0.8;"/>
   </g>
   <g id="patch_5">
    <path d="M 57.6 307.584 
L 414.72 307.584 
" style="fill:none;stroke:#000000;stroke-linecap:square;stroke-linejoin:miter;stroke-width:0.8;"/>
   </g>
   <g id="patch_6">
    <path d="M 57.6 41.472 
L 414.72 41.472 
" style="fill:none;stroke:#000000;stroke-linecap:square;stroke-linejoin:miter;stroke-width:0.8;"/>
   </g>
  </g>
 </g>
 <defs>
  <clipPath id="p48be0b76ba">
   <rect height="266.112" width="357.12" x="57.6" y="41.472"/>
  </clipPath>
 </defs>
</svg>
