<?xml version="1.0" encoding="utf-8" standalone="no"?>
<!DOCTYPE svg PUBLIC "-//W3C//DTD SVG 1.1//EN"
  "http://www.w3.org/Graphics/SVG/1.1/DTD/svg11.dtd">
<!-- Created with matplotlib (https://matplotlib.org/) -->
<svg height="345.6pt" version="1.1" viewBox="0 0 460.8 345.6" width="460.8pt" xmlns="http://www.w3.org/2000/svg" xmlns:xlink="http://www.w3.org/1999/xlink">
 <defs>
  <style type="text/css">
*{stroke-linecap:butt;stroke-linejoin:round;}
  </style>
 </defs>
 <g id="figure_1">
  <g id="patch_1">
   <path d="M 0 345.6 
L 460.8 345.6 
L 460.8 0 
L 0 0 
z
" style="fill:#ffffff;"/>
  </g>
  <g id="axes_1">
   <g id="patch_2">
    <path d="M 57.6 307.584 
L 414.72 307.584 
L 414.72 41.472 
L 57.6 41.472 
z
" style="fill:#ffffff;"/>
   </g>
   <g id="matplotlib.axis_1">
    <g id="xtick_1">
     <g id="line2d_1">
      <defs>
       <path d="M 0 0 
L 0 3.5 
" id="m1a71d6c95f" style="stroke:#000000;stroke-width:0.8;"/>
      </defs>
      <g>
       <use style="stroke:#000000;stroke-width:0.8;" x="73.832727" xlink:href="#m1a71d6c95f" y="307.584"/>
      </g>
     </g>
     <g id="text_1">
      <!-- 0 -->
      <defs>
       <path d="M 31.78125 66.40625 
Q 24.171875 66.40625 20.328125 58.90625 
Q 16.5 51.421875 16.5 36.375 
Q 16.5 21.390625 20.328125 13.890625 
Q 24.171875 6.390625 31.78125 6.390625 
Q 39.453125 6.390625 43.28125 13.890625 
Q 47.125 21.390625 47.125 36.375 
Q 47.125 51.421875 43.28125 58.90625 
Q 39.453125 66.40625 31.78125 66.40625 
z
M 31.78125 74.21875 
Q 44.046875 74.21875 50.515625 64.515625 
Q 56.984375 54.828125 56.984375 36.375 
Q 56.984375 17.96875 50.515625 8.265625 
Q 44.046875 -1.421875 31.78125 -1.421875 
Q 19.53125 -1.421875 13.0625 8.265625 
Q 6.59375 17.96875 6.59375 36.375 
Q 6.59375 54.828125 13.0625 64.515625 
Q 19.53125 74.21875 31.78125 74.21875 
z
" id="DejaVuSans-48"/>
      </defs>
      <g transform="translate(70.651477 322.182437)scale(0.1 -0.1)">
       <use xlink:href="#DejaVuSans-48"/>
      </g>
     </g>
    </g>
    <g id="xtick_2">
     <g id="line2d_2">
      <g>
       <use style="stroke:#000000;stroke-width:0.8;" x="139.089922" xlink:href="#m1a71d6c95f" y="307.584"/>
      </g>
     </g>
     <g id="text_2">
      <!-- 2 -->
      <defs>
       <path d="M 19.1875 8.296875 
L 53.609375 8.296875 
L 53.609375 0 
L 7.328125 0 
L 7.328125 8.296875 
Q 12.9375 14.109375 22.625 23.890625 
Q 32.328125 33.6875 34.8125 36.53125 
Q 39.546875 41.84375 41.421875 45.53125 
Q 43.3125 49.21875 43.3125 52.78125 
Q 43.3125 58.59375 39.234375 62.25 
Q 35.15625 65.921875 28.609375 65.921875 
Q 23.96875 65.921875 18.8125 64.3125 
Q 13.671875 62.703125 7.8125 59.421875 
L 7.8125 69.390625 
Q 13.765625 71.78125 18.9375 73 
Q 24.125 74.21875 28.421875 74.21875 
Q 39.75 74.21875 46.484375 68.546875 
Q 53.21875 62.890625 53.21875 53.421875 
Q 53.21875 48.921875 51.53125 44.890625 
Q 49.859375 40.875 45.40625 35.40625 
Q 44.1875 33.984375 37.640625 27.21875 
Q 31.109375 20.453125 19.1875 8.296875 
z
" id="DejaVuSans-50"/>
      </defs>
      <g transform="translate(135.908672 322.182437)scale(0.1 -0.1)">
       <use xlink:href="#DejaVuSans-50"/>
      </g>
     </g>
    </g>
    <g id="xtick_3">
     <g id="line2d_3">
      <g>
       <use style="stroke:#000000;stroke-width:0.8;" x="204.347117" xlink:href="#m1a71d6c95f" y="307.584"/>
      </g>
     </g>
     <g id="text_3">
      <!-- 4 -->
      <defs>
       <path d="M 37.796875 64.3125 
L 12.890625 25.390625 
L 37.796875 25.390625 
z
M 35.203125 72.90625 
L 47.609375 72.90625 
L 47.609375 25.390625 
L 58.015625 25.390625 
L 58.015625 17.1875 
L 47.609375 17.1875 
L 47.609375 0 
L 37.796875 0 
L 37.796875 17.1875 
L 4.890625 17.1875 
L 4.890625 26.703125 
z
" id="DejaVuSans-52"/>
      </defs>
      <g transform="translate(201.165867 322.182437)scale(0.1 -0.1)">
       <use xlink:href="#DejaVuSans-52"/>
      </g>
     </g>
    </g>
    <g id="xtick_4">
     <g id="line2d_4">
      <g>
       <use style="stroke:#000000;stroke-width:0.8;" x="269.604312" xlink:href="#m1a71d6c95f" y="307.584"/>
      </g>
     </g>
     <g id="text_4">
      <!-- 6 -->
      <defs>
       <path d="M 33.015625 40.375 
Q 26.375 40.375 22.484375 35.828125 
Q 18.609375 31.296875 18.609375 23.390625 
Q 18.609375 15.53125 22.484375 10.953125 
Q 26.375 6.390625 33.015625 6.390625 
Q 39.65625 6.390625 43.53125 10.953125 
Q 47.40625 15.53125 47.40625 23.390625 
Q 47.40625 31.296875 43.53125 35.828125 
Q 39.65625 40.375 33.015625 40.375 
z
M 52.59375 71.296875 
L 52.59375 62.3125 
Q 48.875 64.0625 45.09375 64.984375 
Q 41.3125 65.921875 37.59375 65.921875 
Q 27.828125 65.921875 22.671875 59.328125 
Q 17.53125 52.734375 16.796875 39.40625 
Q 19.671875 43.65625 24.015625 45.921875 
Q 28.375 48.1875 33.59375 48.1875 
Q 44.578125 48.1875 50.953125 41.515625 
Q 57.328125 34.859375 57.328125 23.390625 
Q 57.328125 12.15625 50.6875 5.359375 
Q 44.046875 -1.421875 33.015625 -1.421875 
Q 20.359375 -1.421875 13.671875 8.265625 
Q 6.984375 17.96875 6.984375 36.375 
Q 6.984375 53.65625 15.1875 63.9375 
Q 23.390625 74.21875 37.203125 74.21875 
Q 40.921875 74.21875 44.703125 73.484375 
Q 48.484375 72.75 52.59375 71.296875 
z
" id="DejaVuSans-54"/>
      </defs>
      <g transform="translate(266.423062 322.182437)scale(0.1 -0.1)">
       <use xlink:href="#DejaVuSans-54"/>
      </g>
     </g>
    </g>
    <g id="xtick_5">
     <g id="line2d_5">
      <g>
       <use style="stroke:#000000;stroke-width:0.8;" x="334.861508" xlink:href="#m1a71d6c95f" y="307.584"/>
      </g>
     </g>
     <g id="text_5">
      <!-- 8 -->
      <defs>
       <path d="M 31.78125 34.625 
Q 24.75 34.625 20.71875 30.859375 
Q 16.703125 27.09375 16.703125 20.515625 
Q 16.703125 13.921875 20.71875 10.15625 
Q 24.75 6.390625 31.78125 6.390625 
Q 38.8125 6.390625 42.859375 10.171875 
Q 46.921875 13.96875 46.921875 20.515625 
Q 46.921875 27.09375 42.890625 30.859375 
Q 38.875 34.625 31.78125 34.625 
z
M 21.921875 38.8125 
Q 15.578125 40.375 12.03125 44.71875 
Q 8.5 49.078125 8.5 55.328125 
Q 8.5 64.0625 14.71875 69.140625 
Q 20.953125 74.21875 31.78125 74.21875 
Q 42.671875 74.21875 48.875 69.140625 
Q 55.078125 64.0625 55.078125 55.328125 
Q 55.078125 49.078125 51.53125 44.71875 
Q 48 40.375 41.703125 38.8125 
Q 48.828125 37.15625 52.796875 32.3125 
Q 56.78125 27.484375 56.78125 20.515625 
Q 56.78125 9.90625 50.3125 4.234375 
Q 43.84375 -1.421875 31.78125 -1.421875 
Q 19.734375 -1.421875 13.25 4.234375 
Q 6.78125 9.90625 6.78125 20.515625 
Q 6.78125 27.484375 10.78125 32.3125 
Q 14.796875 37.15625 21.921875 38.8125 
z
M 18.3125 54.390625 
Q 18.3125 48.734375 21.84375 45.5625 
Q 25.390625 42.390625 31.78125 42.390625 
Q 38.140625 42.390625 41.71875 45.5625 
Q 45.3125 48.734375 45.3125 54.390625 
Q 45.3125 60.0625 41.71875 63.234375 
Q 38.140625 66.40625 31.78125 66.40625 
Q 25.390625 66.40625 21.84375 63.234375 
Q 18.3125 60.0625 18.3125 54.390625 
z
" id="DejaVuSans-56"/>
      </defs>
      <g transform="translate(331.680258 322.182437)scale(0.1 -0.1)">
       <use xlink:href="#DejaVuSans-56"/>
      </g>
     </g>
    </g>
    <g id="xtick_6">
     <g id="line2d_6">
      <g>
       <use style="stroke:#000000;stroke-width:0.8;" x="400.118703" xlink:href="#m1a71d6c95f" y="307.584"/>
      </g>
     </g>
     <g id="text_6">
      <!-- 10 -->
      <defs>
       <path d="M 12.40625 8.296875 
L 28.515625 8.296875 
L 28.515625 63.921875 
L 10.984375 60.40625 
L 10.984375 69.390625 
L 28.421875 72.90625 
L 38.28125 72.90625 
L 38.28125 8.296875 
L 54.390625 8.296875 
L 54.390625 0 
L 12.40625 0 
z
" id="DejaVuSans-49"/>
      </defs>
      <g transform="translate(393.756203 322.182437)scale(0.1 -0.1)">
       <use xlink:href="#DejaVuSans-49"/>
       <use x="63.623047" xlink:href="#DejaVuSans-48"/>
      </g>
     </g>
    </g>
   </g>
   <g id="matplotlib.axis_2">
    <g id="ytick_1">
     <g id="line2d_7">
      <defs>
       <path d="M 0 0 
L -3.5 0 
" id="m0014d74315" style="stroke:#000000;stroke-width:0.8;"/>
      </defs>
      <g>
       <use style="stroke:#000000;stroke-width:0.8;" x="57.6" xlink:href="#m0014d74315" y="295.488745"/>
      </g>
     </g>
     <g id="text_7">
      <!-- −1.0 -->
      <defs>
       <path d="M 10.59375 35.5 
L 73.1875 35.5 
L 73.1875 27.203125 
L 10.59375 27.203125 
z
" id="DejaVuSans-8722"/>
       <path d="M 10.6875 12.40625 
L 21 12.40625 
L 21 0 
L 10.6875 0 
z
" id="DejaVuSans-46"/>
      </defs>
      <g transform="translate(26.317187 299.287964)scale(0.1 -0.1)">
       <use xlink:href="#DejaVuSans-8722"/>
       <use x="83.789062" xlink:href="#DejaVuSans-49"/>
       <use x="147.412109" xlink:href="#DejaVuSans-46"/>
       <use x="179.199219" xlink:href="#DejaVuSans-48"/>
      </g>
     </g>
    </g>
    <g id="ytick_2">
     <g id="line2d_8">
      <g>
       <use style="stroke:#000000;stroke-width:0.8;" x="57.6" xlink:href="#m0014d74315" y="248.284573"/>
      </g>
     </g>
     <g id="text_8">
      <!-- −0.5 -->
      <defs>
       <path d="M 10.796875 72.90625 
L 49.515625 72.90625 
L 49.515625 64.59375 
L 19.828125 64.59375 
L 19.828125 46.734375 
Q 21.96875 47.46875 24.109375 47.828125 
Q 26.265625 48.1875 28.421875 48.1875 
Q 40.625 48.1875 47.75 41.5 
Q 54.890625 34.8125 54.890625 23.390625 
Q 54.890625 11.625 47.5625 5.09375 
Q 40.234375 -1.421875 26.90625 -1.421875 
Q 22.3125 -1.421875 17.546875 -0.640625 
Q 12.796875 0.140625 7.71875 1.703125 
L 7.71875 11.625 
Q 12.109375 9.234375 16.796875 8.0625 
Q 21.484375 6.890625 26.703125 6.890625 
Q 35.15625 6.890625 40.078125 11.328125 
Q 45.015625 15.765625 45.015625 23.390625 
Q 45.015625 31 40.078125 35.4375 
Q 35.15625 39.890625 26.703125 39.890625 
Q 22.75 39.890625 18.8125 39.015625 
Q 14.890625 38.140625 10.796875 36.28125 
z
" id="DejaVuSans-53"/>
      </defs>
      <g transform="translate(26.317187 252.083792)scale(0.1 -0.1)">
       <use xlink:href="#DejaVuSans-8722"/>
       <use x="83.789062" xlink:href="#DejaVuSans-48"/>
       <use x="147.412109" xlink:href="#DejaVuSans-46"/>
       <use x="179.199219" xlink:href="#DejaVuSans-53"/>
      </g>
     </g>
    </g>
    <g id="ytick_3">
     <g id="line2d_9">
      <g>
       <use style="stroke:#000000;stroke-width:0.8;" x="57.6" xlink:href="#m0014d74315" y="201.080401"/>
      </g>
     </g>
     <g id="text_9">
      <!-- 0.0 -->
      <g transform="translate(34.696875 204.87962)scale(0.1 -0.1)">
       <use xlink:href="#DejaVuSans-48"/>
       <use x="63.623047" xlink:href="#DejaVuSans-46"/>
       <use x="95.410156" xlink:href="#DejaVuSans-48"/>
      </g>
     </g>
    </g>
    <g id="ytick_4">
     <g id="line2d_10">
      <g>
       <use style="stroke:#000000;stroke-width:0.8;" x="57.6" xlink:href="#m0014d74315" y="153.876229"/>
      </g>
     </g>
     <g id="text_10">
      <!-- 0.5 -->
      <g transform="translate(34.696875 157.675448)scale(0.1 -0.1)">
       <use xlink:href="#DejaVuSans-48"/>
       <use x="63.623047" xlink:href="#DejaVuSans-46"/>
       <use x="95.410156" xlink:href="#DejaVuSans-53"/>
      </g>
     </g>
    </g>
    <g id="ytick_5">
     <g id="line2d_11">
      <g>
       <use style="stroke:#000000;stroke-width:0.8;" x="57.6" xlink:href="#m0014d74315" y="106.672057"/>
      </g>
     </g>
     <g id="text_11">
      <!-- 1.0 -->
      <g transform="translate(34.696875 110.471276)scale(0.1 -0.1)">
       <use xlink:href="#DejaVuSans-49"/>
       <use x="63.623047" xlink:href="#DejaVuSans-46"/>
       <use x="95.410156" xlink:href="#DejaVuSans-48"/>
      </g>
     </g>
    </g>
    <g id="ytick_6">
     <g id="line2d_12">
      <g>
       <use style="stroke:#000000;stroke-width:0.8;" x="57.6" xlink:href="#m0014d74315" y="59.467885"/>
      </g>
     </g>
     <g id="text_12">
      <!-- 1.5 -->
      <g transform="translate(34.696875 63.267104)scale(0.1 -0.1)">
       <use xlink:href="#DejaVuSans-49"/>
       <use x="63.623047" xlink:href="#DejaVuSans-46"/>
       <use x="95.410156" xlink:href="#DejaVuSans-53"/>
      </g>
     </g>
    </g>
   </g>
   <g id="line2d_13">
    <path clip-path="url(#pf1655f900c)" d="M 73.832727 59.467885 
L 75.464157 57.344484 
L 77.095587 55.696272 
L 78.727017 54.522086 
L 80.358447 53.816114 
L 81.989877 53.568 
L 83.621307 53.762986 
L 85.252736 54.382108 
L 86.884166 55.402423 
L 88.515596 56.797285 
L 90.147026 58.536649 
L 91.778456 60.58741 
L 93.409886 62.913779 
L 96.672746 68.239136 
L 99.935605 74.188196 
L 108.092755 89.556904 
L 111.355614 95.036799 
L 112.987044 97.483984 
L 114.618474 99.693345 
L 116.249904 101.636815 
L 117.881334 103.289821 
L 119.512764 104.631544 
L 121.144194 105.645139 
L 122.775624 106.317908 
L 124.407053 106.64144 
L 126.038483 106.611691 
L 127.669913 106.229034 
L 129.301343 105.498249 
L 130.932773 104.428478 
L 132.564203 103.033125 
L 134.195633 101.329717 
L 135.827063 99.339721 
L 137.458492 97.088316 
L 140.721352 91.91894 
L 143.984212 86.086336 
L 153.772791 67.762741 
L 157.035651 62.504933 
L 158.667081 60.2223 
L 160.298511 58.221465 
L 161.929941 56.537792 
L 163.56137 55.203896 
L 165.1928 54.249274 
L 166.82423 53.69997 
L 168.45566 53.578275 
L 170.08709 53.902462 
L 171.71852 54.686561 
L 173.34995 55.940172 
L 174.98138 57.668332 
L 176.61281 59.871415 
L 178.244239 62.545089 
L 179.875669 65.680309 
L 181.507099 69.263369 
L 183.138529 73.275994 
L 184.769959 77.695475 
L 186.401389 82.494855 
L 189.664249 93.105649 
L 192.927108 104.817364 
L 197.821398 123.693789 
L 204.347117 149.264501 
L 207.609977 161.307675 
L 210.872837 172.326661 
L 212.504267 177.336762 
L 214.135697 181.957329 
L 215.767127 186.149685 
L 217.398556 189.878619 
L 219.029986 193.112727 
L 220.661416 195.824706 
L 222.292846 197.991618 
L 223.924276 199.595104 
L 225.555706 200.621565 
L 227.187136 201.062289 
L 228.818566 200.913532 
L 230.449995 200.176557 
L 232.081425 198.857623 
L 233.712855 196.967921 
L 235.344285 194.523469 
L 236.975715 191.54496 
L 238.607145 188.057565 
L 240.238575 184.090691 
L 241.870005 179.677702 
L 243.501434 174.8556 
L 246.764294 164.148123 
L 250.027154 152.322947 
L 254.921444 133.342595 
L 261.447163 107.850949 
L 264.710023 95.917421 
L 267.972883 85.004611 
L 269.604312 80.028207 
L 271.235742 75.416838 
L 272.867172 71.199484 
L 274.498602 67.400985 
L 276.130032 64.041833 
L 277.761462 61.138013 
L 279.392892 58.700889 
L 281.024322 56.73713 
L 282.655751 55.248693 
L 284.287181 54.232841 
L 285.918611 53.682222 
L 287.550041 53.58498 
L 289.181471 53.92492 
L 290.812901 54.681711 
L 292.444331 55.831134 
L 294.075761 57.345362 
L 295.70719 59.193282 
L 297.33862 61.340845 
L 298.97005 63.751445 
L 302.23291 69.204982 
L 305.49577 75.225709 
L 312.021489 87.60385 
L 315.284349 93.29649 
L 316.915779 95.884441 
L 318.547209 98.254984 
L 320.178639 100.377892 
L 321.810069 102.226241 
L 323.441498 103.776695 
L 325.072928 105.009747 
L 326.704358 105.909931 
L 328.335788 106.465977 
L 329.967218 106.670935 
L 331.598648 106.522244 
L 333.230078 106.021761 
L 334.861508 105.175743 
L 336.492937 103.994776 
L 338.124367 102.49367 
L 339.755797 100.691299 
L 341.387227 98.610406 
L 343.018657 96.277361 
L 346.281517 90.976739 
L 349.544376 85.061562 
L 357.701526 69.668101 
L 360.964386 64.157103 
L 362.595815 61.708139 
L 364.227245 59.516172 
L 365.858675 57.618179 
L 367.490105 56.048642 
L 369.121535 54.839166 
L 370.752965 54.018124 
L 372.384395 53.61033 
L 374.015825 53.63675 
L 375.647254 54.114253 
L 377.278684 55.055399 
L 378.910114 56.468266 
L 380.541544 58.356332 
L 382.172974 60.71839 
L 383.804404 63.548521 
L 385.435834 66.836106 
L 387.067264 70.56589 
L 388.698693 74.718087 
L 390.330123 79.268539 
L 393.592983 89.446926 
L 396.855843 100.828845 
L 398.487273 106.871227 
L 398.487273 106.871227 
" style="fill:none;stroke:#1f77b4;stroke-linecap:square;stroke-width:1.5;"/>
   </g>
   <g id="line2d_14">
    <path clip-path="url(#pf1655f900c)" d="M 73.832727 112.525377 
L 75.464157 109.808258 
L 77.095587 138.472905 
L 80.358447 235.61986 
L 81.989877 274.304899 
L 83.621307 293.728007 
L 85.252736 291.972688 
L 86.884166 272.073421 
L 88.515596 240.001062 
L 91.778456 166.559402 
L 93.409886 136.650001 
L 95.041316 116.295904 
L 96.672746 107.159911 
L 98.304175 109.463313 
L 99.935605 122.278586 
L 101.567035 143.805049 
L 103.198465 171.593261 
L 106.461325 233.926556 
L 108.092755 261.790067 
L 109.724185 282.916072 
L 111.355614 294.244392 
L 112.987044 293.456705 
L 114.618474 279.483832 
L 116.249904 253.045834 
L 117.881334 217.092438 
L 119.512764 176.945586 
L 121.144194 139.912742 
L 122.775624 114.183345 
L 124.407053 106.983655 
L 126.038483 122.258852 
L 127.669913 158.519092 
L 130.932773 256.523038 
L 132.564203 289.12642 
L 134.195633 293.192759 
L 135.827063 265.045661 
L 137.458492 212.866913 
L 139.089922 155.289868 
L 140.721352 114.961757 
L 142.352782 109.133132 
L 143.984212 141.417724 
L 147.247072 257.75248 
L 148.878502 292.285306 
L 150.509931 287.941047 
L 152.141361 247.046505 
L 153.772791 187.460957 
L 155.404221 134.056389 
L 157.035651 107.698143 
L 158.667081 117.051426 
L 160.298511 156.523909 
L 161.929941 210.285925 
L 163.56137 259.581349 
L 165.1928 289.702365 
L 166.82423 294.011057 
L 168.45566 274.275177 
L 170.08709 238.223445 
L 171.71852 195.974091 
L 173.34995 156.839357 
L 174.98138 127.351633 
L 176.61281 110.648805 
L 178.244239 106.884629 
L 179.875669 114.164058 
L 181.507099 129.565332 
L 183.138529 149.975647 
L 188.032819 216.782077 
L 189.664249 235.904698 
L 191.295678 252.333597 
L 192.927108 265.95061 
L 194.558538 276.820556 
L 196.189968 285.088124 
L 197.821398 290.901949 
L 199.452828 294.362334 
L 201.084258 295.488 
L 202.715688 294.198393 
L 204.347117 290.310446 
L 205.978547 283.551816 
L 207.609977 273.595961 
L 209.241407 260.127392 
L 210.872837 242.946968 
L 212.504267 222.125125 
L 214.135697 198.202536 
L 217.398556 146.922275 
L 219.029986 124.857879 
L 220.661416 110.212883 
L 222.292846 107.247771 
L 223.924276 119.413584 
L 225.555706 147.805453 
L 227.187136 189.50394 
L 228.818566 236.531753 
L 230.449995 276.418816 
L 232.081425 295.209266 
L 233.712855 282.863174 
L 235.344285 239.422716 
L 236.975715 178.682573 
L 238.607145 125.72797 
L 240.238575 106.862454 
L 241.870005 135.118709 
L 245.132864 265.89734 
L 246.764294 295.466136 
L 248.395724 267.856751 
L 251.658584 129.37587 
L 253.290014 107.441377 
L 254.921444 147.557811 
L 256.552873 223.437609 
L 258.184303 284.336298 
L 259.815733 289.895194 
L 261.447163 237.347529 
L 263.078593 161.950527 
L 264.710023 111.860406 
L 266.341453 116.642918 
L 267.972883 170.853852 
L 269.604312 241.091838 
L 271.235742 288.438202 
L 272.867172 290.258112 
L 274.498602 249.228804 
L 276.130032 187.652243 
L 277.761462 133.586015 
L 279.392892 107.665702 
L 281.024322 116.434915 
L 282.655751 153.095323 
L 285.918611 250.409203 
L 287.550041 283.203259 
L 289.181471 295.434617 
L 290.812901 287.048936 
L 292.444331 262.304495 
L 294.075761 227.697555 
L 295.70719 190.1236 
L 297.33862 155.604886 
L 298.97005 128.62316 
L 300.60148 111.933547 
L 302.23291 106.683092 
L 303.86434 112.673758 
L 305.49577 128.655845 
L 307.1272 152.588266 
L 308.75863 181.844394 
L 312.021489 243.841946 
L 313.652919 269.808984 
L 315.284349 287.954279 
L 316.915779 295.415903 
L 318.547209 290.235414 
L 320.178639 271.886596 
L 321.810069 241.800345 
L 326.704358 129.598189 
L 328.335788 109.40704 
L 329.967218 109.557073 
L 331.598648 132.372674 
L 333.230078 174.214328 
L 334.861508 225.008216 
L 336.492937 270.028745 
L 338.124367 294.08753 
L 339.755797 287.169621 
L 341.387227 249.427715 
L 344.650087 138.739237 
L 346.281517 108.632463 
L 347.912947 116.046475 
L 349.544376 159.02725 
L 351.175806 220.032787 
L 352.807236 273.104915 
L 354.438666 295.421712 
L 356.070096 277.641682 
L 357.701526 227.895467 
L 359.332956 167.590496 
L 360.964386 121.441569 
L 362.595815 106.858026 
L 364.227245 127.60382 
L 365.858675 173.956668 
L 367.490105 228.231852 
L 369.121535 272.365952 
L 370.752965 294.103095 
L 372.384395 289.763214 
L 374.015825 263.483542 
L 375.647254 224.202141 
L 377.278684 182.072143 
L 378.910114 145.620604 
L 380.541544 120.246247 
L 382.172974 108.001055 
L 383.804404 108.233431 
L 385.435834 118.594362 
L 387.067264 136.018324 
L 390.330123 180.36455 
L 391.961553 202.796827 
L 393.592983 223.494904 
L 395.224413 241.741236 
L 396.855843 257.226165 
L 398.487273 269.906292 
L 398.487273 269.906292 
" style="fill:none;stroke:#ff7f0e;stroke-linecap:square;stroke-width:1.5;"/>
   </g>
   <g id="patch_3">
    <path d="M 57.6 307.584 
L 57.6 41.472 
" style="fill:none;stroke:#000000;stroke-linecap:square;stroke-linejoin:miter;stroke-width:0.8;"/>
   </g>
   <g id="patch_4">
    <path d="M 414.72 307.584 
L 414.72 41.472 
" style="fill:none;stroke:#000000;stroke-linecap:square;stroke-linejoin:miter;stroke-width:0.8;"/>
   </g>
   <g id="patch_5">
    <path d="M 57.6 307.584 
L 414.72 307.584 
" style="fill:none;stroke:#000000;stroke-linecap:square;stroke-linejoin:miter;stroke-width:0.8;"/>
   </g>
   <g id="patch_6">
    <path d="M 57.6 41.472 
L 414.72 41.472 
" style="fill:none;stroke:#000000;stroke-linecap:square;stroke-linejoin:miter;stroke-width:0.8;"/>
   </g>
  </g>
 </g>
 <defs>
  <clipPath id="pf1655f900c">
   <rect height="266.112" width="357.12" x="57.6" y="41.472"/>
  </clipPath>
 </defs>
</svg>
