<?xml version="1.0" encoding="utf-8" standalone="no"?>
<!DOCTYPE svg PUBLIC "-//W3C//DTD SVG 1.1//EN"
  "http://www.w3.org/Graphics/SVG/1.1/DTD/svg11.dtd">
<!-- Created with matplotlib (https://matplotlib.org/) -->
<svg height="345.6pt" version="1.1" viewBox="0 0 460.8 345.6" width="460.8pt" xmlns="http://www.w3.org/2000/svg" xmlns:xlink="http://www.w3.org/1999/xlink">
 <defs>
  <style type="text/css">
*{stroke-linecap:butt;stroke-linejoin:round;}
  </style>
 </defs>
 <g id="figure_1">
  <g id="patch_1">
   <path d="M 0 345.6 
L 460.8 345.6 
L 460.8 0 
L 0 0 
z
" style="fill:#ffffff;"/>
  </g>
  <g id="axes_1">
   <g id="patch_2">
    <path d="M 57.6 307.584 
L 414.72 307.584 
L 414.72 41.472 
L 57.6 41.472 
z
" style="fill:#ffffff;"/>
   </g>
   <g id="matplotlib.axis_1">
    <g id="xtick_1">
     <g id="line2d_1">
      <defs>
       <path d="M 0 0 
L 0 3.5 
" id="maadd041dc4" style="stroke:#000000;stroke-width:0.8;"/>
      </defs>
      <g>
       <use style="stroke:#000000;stroke-width:0.8;" x="73.832727" xlink:href="#maadd041dc4" y="307.584"/>
      </g>
     </g>
     <g id="text_1">
      <!-- 0 -->
      <defs>
       <path d="M 31.78125 66.40625 
Q 24.171875 66.40625 20.328125 58.90625 
Q 16.5 51.421875 16.5 36.375 
Q 16.5 21.390625 20.328125 13.890625 
Q 24.171875 6.390625 31.78125 6.390625 
Q 39.453125 6.390625 43.28125 13.890625 
Q 47.125 21.390625 47.125 36.375 
Q 47.125 51.421875 43.28125 58.90625 
Q 39.453125 66.40625 31.78125 66.40625 
z
M 31.78125 74.21875 
Q 44.046875 74.21875 50.515625 64.515625 
Q 56.984375 54.828125 56.984375 36.375 
Q 56.984375 17.96875 50.515625 8.265625 
Q 44.046875 -1.421875 31.78125 -1.421875 
Q 19.53125 -1.421875 13.0625 8.265625 
Q 6.59375 17.96875 6.59375 36.375 
Q 6.59375 54.828125 13.0625 64.515625 
Q 19.53125 74.21875 31.78125 74.21875 
z
" id="DejaVuSans-48"/>
      </defs>
      <g transform="translate(70.651477 322.182437)scale(0.1 -0.1)">
       <use xlink:href="#DejaVuSans-48"/>
      </g>
     </g>
    </g>
    <g id="xtick_2">
     <g id="line2d_2">
      <g>
       <use style="stroke:#000000;stroke-width:0.8;" x="139.089922" xlink:href="#maadd041dc4" y="307.584"/>
      </g>
     </g>
     <g id="text_2">
      <!-- 2 -->
      <defs>
       <path d="M 19.1875 8.296875 
L 53.609375 8.296875 
L 53.609375 0 
L 7.328125 0 
L 7.328125 8.296875 
Q 12.9375 14.109375 22.625 23.890625 
Q 32.328125 33.6875 34.8125 36.53125 
Q 39.546875 41.84375 41.421875 45.53125 
Q 43.3125 49.21875 43.3125 52.78125 
Q 43.3125 58.59375 39.234375 62.25 
Q 35.15625 65.921875 28.609375 65.921875 
Q 23.96875 65.921875 18.8125 64.3125 
Q 13.671875 62.703125 7.8125 59.421875 
L 7.8125 69.390625 
Q 13.765625 71.78125 18.9375 73 
Q 24.125 74.21875 28.421875 74.21875 
Q 39.75 74.21875 46.484375 68.546875 
Q 53.21875 62.890625 53.21875 53.421875 
Q 53.21875 48.921875 51.53125 44.890625 
Q 49.859375 40.875 45.40625 35.40625 
Q 44.1875 33.984375 37.640625 27.21875 
Q 31.109375 20.453125 19.1875 8.296875 
z
" id="DejaVuSans-50"/>
      </defs>
      <g transform="translate(135.908672 322.182437)scale(0.1 -0.1)">
       <use xlink:href="#DejaVuSans-50"/>
      </g>
     </g>
    </g>
    <g id="xtick_3">
     <g id="line2d_3">
      <g>
       <use style="stroke:#000000;stroke-width:0.8;" x="204.347117" xlink:href="#maadd041dc4" y="307.584"/>
      </g>
     </g>
     <g id="text_3">
      <!-- 4 -->
      <defs>
       <path d="M 37.796875 64.3125 
L 12.890625 25.390625 
L 37.796875 25.390625 
z
M 35.203125 72.90625 
L 47.609375 72.90625 
L 47.609375 25.390625 
L 58.015625 25.390625 
L 58.015625 17.1875 
L 47.609375 17.1875 
L 47.609375 0 
L 37.796875 0 
L 37.796875 17.1875 
L 4.890625 17.1875 
L 4.890625 26.703125 
z
" id="DejaVuSans-52"/>
      </defs>
      <g transform="translate(201.165867 322.182437)scale(0.1 -0.1)">
       <use xlink:href="#DejaVuSans-52"/>
      </g>
     </g>
    </g>
    <g id="xtick_4">
     <g id="line2d_4">
      <g>
       <use style="stroke:#000000;stroke-width:0.8;" x="269.604312" xlink:href="#maadd041dc4" y="307.584"/>
      </g>
     </g>
     <g id="text_4">
      <!-- 6 -->
      <defs>
       <path d="M 33.015625 40.375 
Q 26.375 40.375 22.484375 35.828125 
Q 18.609375 31.296875 18.609375 23.390625 
Q 18.609375 15.53125 22.484375 10.953125 
Q 26.375 6.390625 33.015625 6.390625 
Q 39.65625 6.390625 43.53125 10.953125 
Q 47.40625 15.53125 47.40625 23.390625 
Q 47.40625 31.296875 43.53125 35.828125 
Q 39.65625 40.375 33.015625 40.375 
z
M 52.59375 71.296875 
L 52.59375 62.3125 
Q 48.875 64.0625 45.09375 64.984375 
Q 41.3125 65.921875 37.59375 65.921875 
Q 27.828125 65.921875 22.671875 59.328125 
Q 17.53125 52.734375 16.796875 39.40625 
Q 19.671875 43.65625 24.015625 45.921875 
Q 28.375 48.1875 33.59375 48.1875 
Q 44.578125 48.1875 50.953125 41.515625 
Q 57.328125 34.859375 57.328125 23.390625 
Q 57.328125 12.15625 50.6875 5.359375 
Q 44.046875 -1.421875 33.015625 -1.421875 
Q 20.359375 -1.421875 13.671875 8.265625 
Q 6.984375 17.96875 6.984375 36.375 
Q 6.984375 53.65625 15.1875 63.9375 
Q 23.390625 74.21875 37.203125 74.21875 
Q 40.921875 74.21875 44.703125 73.484375 
Q 48.484375 72.75 52.59375 71.296875 
z
" id="DejaVuSans-54"/>
      </defs>
      <g transform="translate(266.423062 322.182437)scale(0.1 -0.1)">
       <use xlink:href="#DejaVuSans-54"/>
      </g>
     </g>
    </g>
    <g id="xtick_5">
     <g id="line2d_5">
      <g>
       <use style="stroke:#000000;stroke-width:0.8;" x="334.861508" xlink:href="#maadd041dc4" y="307.584"/>
      </g>
     </g>
     <g id="text_5">
      <!-- 8 -->
      <defs>
       <path d="M 31.78125 34.625 
Q 24.75 34.625 20.71875 30.859375 
Q 16.703125 27.09375 16.703125 20.515625 
Q 16.703125 13.921875 20.71875 10.15625 
Q 24.75 6.390625 31.78125 6.390625 
Q 38.8125 6.390625 42.859375 10.171875 
Q 46.921875 13.96875 46.921875 20.515625 
Q 46.921875 27.09375 42.890625 30.859375 
Q 38.875 34.625 31.78125 34.625 
z
M 21.921875 38.8125 
Q 15.578125 40.375 12.03125 44.71875 
Q 8.5 49.078125 8.5 55.328125 
Q 8.5 64.0625 14.71875 69.140625 
Q 20.953125 74.21875 31.78125 74.21875 
Q 42.671875 74.21875 48.875 69.140625 
Q 55.078125 64.0625 55.078125 55.328125 
Q 55.078125 49.078125 51.53125 44.71875 
Q 48 40.375 41.703125 38.8125 
Q 48.828125 37.15625 52.796875 32.3125 
Q 56.78125 27.484375 56.78125 20.515625 
Q 56.78125 9.90625 50.3125 4.234375 
Q 43.84375 -1.421875 31.78125 -1.421875 
Q 19.734375 -1.421875 13.25 4.234375 
Q 6.78125 9.90625 6.78125 20.515625 
Q 6.78125 27.484375 10.78125 32.3125 
Q 14.796875 37.15625 21.921875 38.8125 
z
M 18.3125 54.390625 
Q 18.3125 48.734375 21.84375 45.5625 
Q 25.390625 42.390625 31.78125 42.390625 
Q 38.140625 42.390625 41.71875 45.5625 
Q 45.3125 48.734375 45.3125 54.390625 
Q 45.3125 60.0625 41.71875 63.234375 
Q 38.140625 66.40625 31.78125 66.40625 
Q 25.390625 66.40625 21.84375 63.234375 
Q 18.3125 60.0625 18.3125 54.390625 
z
" id="DejaVuSans-56"/>
      </defs>
      <g transform="translate(331.680258 322.182437)scale(0.1 -0.1)">
       <use xlink:href="#DejaVuSans-56"/>
      </g>
     </g>
    </g>
    <g id="xtick_6">
     <g id="line2d_6">
      <g>
       <use style="stroke:#000000;stroke-width:0.8;" x="400.118703" xlink:href="#maadd041dc4" y="307.584"/>
      </g>
     </g>
     <g id="text_6">
      <!-- 10 -->
      <defs>
       <path d="M 12.40625 8.296875 
L 28.515625 8.296875 
L 28.515625 63.921875 
L 10.984375 60.40625 
L 10.984375 69.390625 
L 28.421875 72.90625 
L 38.28125 72.90625 
L 38.28125 8.296875 
L 54.390625 8.296875 
L 54.390625 0 
L 12.40625 0 
z
" id="DejaVuSans-49"/>
      </defs>
      <g transform="translate(393.756203 322.182437)scale(0.1 -0.1)">
       <use xlink:href="#DejaVuSans-49"/>
       <use x="63.623047" xlink:href="#DejaVuSans-48"/>
      </g>
     </g>
    </g>
   </g>
   <g id="matplotlib.axis_2">
    <g id="ytick_1">
     <g id="line2d_7">
      <defs>
       <path d="M 0 0 
L -3.5 0 
" id="m77b71b5706" style="stroke:#000000;stroke-width:0.8;"/>
      </defs>
      <g>
       <use style="stroke:#000000;stroke-width:0.8;" x="57.6" xlink:href="#m77b71b5706" y="292.956122"/>
      </g>
     </g>
     <g id="text_7">
      <!-- −1.5 -->
      <defs>
       <path d="M 10.59375 35.5 
L 73.1875 35.5 
L 73.1875 27.203125 
L 10.59375 27.203125 
z
" id="DejaVuSans-8722"/>
       <path d="M 10.6875 12.40625 
L 21 12.40625 
L 21 0 
L 10.6875 0 
z
" id="DejaVuSans-46"/>
       <path d="M 10.796875 72.90625 
L 49.515625 72.90625 
L 49.515625 64.59375 
L 19.828125 64.59375 
L 19.828125 46.734375 
Q 21.96875 47.46875 24.109375 47.828125 
Q 26.265625 48.1875 28.421875 48.1875 
Q 40.625 48.1875 47.75 41.5 
Q 54.890625 34.8125 54.890625 23.390625 
Q 54.890625 11.625 47.5625 5.09375 
Q 40.234375 -1.421875 26.90625 -1.421875 
Q 22.3125 -1.421875 17.546875 -0.640625 
Q 12.796875 0.140625 7.71875 1.703125 
L 7.71875 11.625 
Q 12.109375 9.234375 16.796875 8.0625 
Q 21.484375 6.890625 26.703125 6.890625 
Q 35.15625 6.890625 40.078125 11.328125 
Q 45.015625 15.765625 45.015625 23.390625 
Q 45.015625 31 40.078125 35.4375 
Q 35.15625 39.890625 26.703125 39.890625 
Q 22.75 39.890625 18.8125 39.015625 
Q 14.890625 38.140625 10.796875 36.28125 
z
" id="DejaVuSans-53"/>
      </defs>
      <g transform="translate(26.317187 296.755341)scale(0.1 -0.1)">
       <use xlink:href="#DejaVuSans-8722"/>
       <use x="83.789062" xlink:href="#DejaVuSans-49"/>
       <use x="147.412109" xlink:href="#DejaVuSans-46"/>
       <use x="179.199219" xlink:href="#DejaVuSans-53"/>
      </g>
     </g>
    </g>
    <g id="ytick_2">
     <g id="line2d_8">
      <g>
       <use style="stroke:#000000;stroke-width:0.8;" x="57.6" xlink:href="#m77b71b5706" y="253.872261"/>
      </g>
     </g>
     <g id="text_8">
      <!-- −1.0 -->
      <g transform="translate(26.317187 257.67148)scale(0.1 -0.1)">
       <use xlink:href="#DejaVuSans-8722"/>
       <use x="83.789062" xlink:href="#DejaVuSans-49"/>
       <use x="147.412109" xlink:href="#DejaVuSans-46"/>
       <use x="179.199219" xlink:href="#DejaVuSans-48"/>
      </g>
     </g>
    </g>
    <g id="ytick_3">
     <g id="line2d_9">
      <g>
       <use style="stroke:#000000;stroke-width:0.8;" x="57.6" xlink:href="#m77b71b5706" y="214.7884"/>
      </g>
     </g>
     <g id="text_9">
      <!-- −0.5 -->
      <g transform="translate(26.317187 218.587619)scale(0.1 -0.1)">
       <use xlink:href="#DejaVuSans-8722"/>
       <use x="83.789062" xlink:href="#DejaVuSans-48"/>
       <use x="147.412109" xlink:href="#DejaVuSans-46"/>
       <use x="179.199219" xlink:href="#DejaVuSans-53"/>
      </g>
     </g>
    </g>
    <g id="ytick_4">
     <g id="line2d_10">
      <g>
       <use style="stroke:#000000;stroke-width:0.8;" x="57.6" xlink:href="#m77b71b5706" y="175.704539"/>
      </g>
     </g>
     <g id="text_10">
      <!-- 0.0 -->
      <g transform="translate(34.696875 179.503758)scale(0.1 -0.1)">
       <use xlink:href="#DejaVuSans-48"/>
       <use x="63.623047" xlink:href="#DejaVuSans-46"/>
       <use x="95.410156" xlink:href="#DejaVuSans-48"/>
      </g>
     </g>
    </g>
    <g id="ytick_5">
     <g id="line2d_11">
      <g>
       <use style="stroke:#000000;stroke-width:0.8;" x="57.6" xlink:href="#m77b71b5706" y="136.620678"/>
      </g>
     </g>
     <g id="text_11">
      <!-- 0.5 -->
      <g transform="translate(34.696875 140.419897)scale(0.1 -0.1)">
       <use xlink:href="#DejaVuSans-48"/>
       <use x="63.623047" xlink:href="#DejaVuSans-46"/>
       <use x="95.410156" xlink:href="#DejaVuSans-53"/>
      </g>
     </g>
    </g>
    <g id="ytick_6">
     <g id="line2d_12">
      <g>
       <use style="stroke:#000000;stroke-width:0.8;" x="57.6" xlink:href="#m77b71b5706" y="97.536817"/>
      </g>
     </g>
     <g id="text_12">
      <!-- 1.0 -->
      <g transform="translate(34.696875 101.336036)scale(0.1 -0.1)">
       <use xlink:href="#DejaVuSans-49"/>
       <use x="63.623047" xlink:href="#DejaVuSans-46"/>
       <use x="95.410156" xlink:href="#DejaVuSans-48"/>
      </g>
     </g>
    </g>
    <g id="ytick_7">
     <g id="line2d_13">
      <g>
       <use style="stroke:#000000;stroke-width:0.8;" x="57.6" xlink:href="#m77b71b5706" y="58.452956"/>
      </g>
     </g>
     <g id="text_13">
      <!-- 1.5 -->
      <g transform="translate(34.696875 62.252175)scale(0.1 -0.1)">
       <use xlink:href="#DejaVuSans-49"/>
       <use x="63.623047" xlink:href="#DejaVuSans-46"/>
       <use x="95.410156" xlink:href="#DejaVuSans-53"/>
      </g>
     </g>
    </g>
   </g>
   <g id="line2d_14">
    <path clip-path="url(#p50d117dd8e)" d="M 73.832727 58.452956 
L 75.464157 56.694833 
L 77.095587 55.330156 
L 78.727017 54.357959 
L 80.358447 53.773432 
L 81.989877 53.568 
L 83.621307 53.729444 
L 85.252736 54.242061 
L 86.884166 55.086856 
L 88.515596 56.241767 
L 90.147026 57.681915 
L 91.778456 59.379894 
L 93.409886 61.306069 
L 96.672746 65.71533 
L 99.935605 70.641001 
L 108.092755 83.365903 
L 111.355614 87.903117 
L 112.987044 89.929324 
L 114.618474 91.75862 
L 116.249904 93.367764 
L 117.881334 94.736411 
L 119.512764 95.847324 
L 121.144194 96.686554 
L 122.775624 97.243591 
L 124.407053 97.511466 
L 126.038483 97.486835 
L 127.669913 97.170005 
L 129.301343 96.564933 
L 130.932773 95.67919 
L 132.564203 94.523873 
L 134.195633 93.113494 
L 135.827063 91.465828 
L 137.458492 89.601722 
L 140.721352 85.321609 
L 143.984212 80.49236 
L 153.772791 65.320886 
L 157.035651 60.967554 
L 158.667081 59.077592 
L 160.298511 57.420951 
L 161.929941 56.026913 
L 163.56137 54.922481 
L 165.1928 54.132078 
L 166.82423 53.677268 
L 168.45566 53.576508 
L 170.08709 53.844926 
L 171.71852 54.49414 
L 173.34995 55.532098 
L 174.98138 56.962971 
L 176.61281 58.787069 
L 178.244239 61.000802 
L 179.875669 63.596685 
L 181.507099 66.563369 
L 183.138529 69.885721 
L 184.769959 73.544939 
L 188.032819 81.781369 
L 191.295678 91.055506 
L 194.558538 101.104736 
L 201.084258 122.308588 
L 205.978547 137.874074 
L 209.241407 147.460999 
L 212.504267 156.045406 
L 214.135697 159.871119 
L 215.767127 163.342283 
L 217.398556 166.429747 
L 219.029986 169.107506 
L 220.661416 171.352957 
L 222.292846 173.147104 
L 223.924276 174.47475 
L 225.555706 175.324634 
L 227.187136 175.689542 
L 228.818566 175.566375 
L 230.449995 174.956179 
L 232.081425 173.864135 
L 233.712855 172.299509 
L 235.344285 170.275565 
L 236.975715 167.809435 
L 238.607145 164.92196 
L 240.238575 161.637489 
L 241.870005 157.983645 
L 243.501434 153.991066 
L 246.764294 145.125546 
L 250.027154 135.3346 
L 254.921444 119.619348 
L 261.447163 98.51291 
L 264.710023 88.63225 
L 267.972883 79.59672 
L 269.604312 75.476382 
L 271.235742 71.658285 
L 272.867172 68.166423 
L 274.498602 65.021362 
L 276.130032 62.240069 
L 277.761462 59.835779 
L 279.392892 57.817902 
L 281.024322 56.19196 
L 282.655751 54.959571 
L 284.287181 54.118472 
L 285.918611 53.662573 
L 287.550041 53.582059 
L 289.181471 53.863521 
L 290.812901 54.490125 
L 292.444331 55.441818 
L 294.075761 56.69556 
L 295.70719 58.225592 
L 297.33862 60.00372 
L 298.97005 61.999635 
L 302.23291 66.515025 
L 305.49577 71.500035 
L 312.021489 81.748824 
L 315.284349 86.462185 
L 318.547209 90.567693 
L 320.178639 92.325407 
L 321.810069 93.855794 
L 323.441498 95.13953 
L 325.072928 96.160466 
L 326.704358 96.905796 
L 328.335788 97.366188 
L 329.967218 97.535887 
L 331.598648 97.412775 
L 333.230078 96.998388 
L 334.861508 96.297907 
L 336.492937 95.320096 
L 338.124367 94.077218 
L 339.755797 92.584901 
L 341.387227 90.861974 
L 343.018657 88.930271 
L 346.281517 84.54149 
L 349.544376 79.643873 
L 357.701526 66.898477 
L 360.964386 62.33551 
L 362.595815 60.30783 
L 364.227245 58.492936 
L 365.858675 56.921446 
L 367.490105 55.621909 
L 369.121535 54.620494 
L 370.752965 53.940692 
L 372.384395 53.603048 
L 374.015825 53.624923 
L 375.647254 54.020284 
L 377.278684 54.799529 
L 378.910114 55.969347 
L 380.541544 57.532618 
L 382.172974 59.488342 
L 383.804404 61.831619 
L 385.435834 64.553656 
L 387.067264 67.641823 
L 388.698693 71.079738 
L 390.330123 74.847397 
L 393.592983 83.274844 
L 396.855843 92.698785 
L 398.487273 97.701725 
L 398.487273 97.701725 
" style="fill:none;stroke:#1f77b4;stroke-linecap:square;stroke-width:1.5;"/>
   </g>
   <g id="line2d_15">
    <path clip-path="url(#p50d117dd8e)" d="M 73.832727 175.704539 
L 75.464157 118.648247 
L 77.095587 74.412988 
L 78.727017 54.661934 
L 80.358447 64.832898 
L 81.989877 102.609223 
L 83.621307 158.491412 
L 85.252736 218.311539 
L 86.884166 266.988302 
L 88.515596 292.482996 
L 90.147026 288.879297 
L 91.778456 257.776267 
L 93.409886 207.669244 
L 95.041316 151.551807 
L 96.672746 103.443103 
L 98.304175 74.800618 
L 99.935605 71.759061 
L 101.567035 93.863666 
L 103.198465 134.532572 
L 104.829895 183.018527 
L 106.461325 227.272861 
L 108.092755 256.934445 
L 109.724185 265.702308 
L 111.355614 252.570484 
L 112.987044 221.729196 
L 116.249904 141.10934 
L 117.881334 110.623618 
L 119.512764 96.597394 
L 121.144194 101.831016 
L 122.775624 124.682338 
L 124.407053 159.560212 
L 126.038483 198.223675 
L 127.669913 231.604269 
L 129.301343 251.789157 
L 130.932773 253.77935 
L 132.564203 236.670184 
L 134.195633 203.990371 
L 137.458492 123.56585 
L 139.089922 95.219596 
L 140.721352 85.608141 
L 142.352782 98.109756 
L 143.984212 130.798762 
L 147.247072 224.587197 
L 148.878502 262.805503 
L 150.509931 280.992861 
L 152.141361 273.495437 
L 153.772791 240.980743 
L 155.404221 190.613293 
L 157.035651 134.507266 
L 158.667081 86.769675 
L 160.298511 59.862603 
L 161.929941 61.247738 
L 163.56137 91.248889 
L 165.1928 142.769855 
L 166.82423 203.008829 
L 168.45566 256.752839 
L 170.08709 290.378261 
L 171.71852 295.464246 
L 173.34995 271.016575 
L 174.98138 223.680602 
L 176.61281 165.886458 
L 178.244239 112.453838 
L 179.875669 76.615723 
L 181.507099 66.572989 
L 183.138529 83.521534 
L 184.769959 121.653663 
L 188.032819 215.920812 
L 189.664249 248.031112 
L 191.295678 259.657659 
L 192.927108 249.965506 
L 194.558538 223.712357 
L 197.821398 156.714972 
L 199.452828 133.535577 
L 201.084258 124.241767 
L 202.715688 128.867522 
L 204.347117 143.737504 
L 205.978547 163.063444 
L 207.609977 180.928112 
L 209.241407 193.005406 
L 210.872837 197.524506 
L 212.504267 195.286736 
L 214.135697 188.874378 
L 215.767127 181.438345 
L 217.398556 175.540357 
L 219.029986 172.439764 
L 220.661416 172.001762 
L 222.292846 173.150708 
L 223.924276 174.59553 
L 225.555706 175.4826 
L 227.187136 175.702686 
L 228.818566 175.755287 
L 230.449995 176.27947 
L 232.081425 177.510174 
L 233.712855 178.952095 
L 235.344285 179.466193 
L 236.975715 177.776016 
L 238.607145 173.19895 
L 241.870005 158.976208 
L 243.501434 154.281428 
L 245.132864 155.215202 
L 246.764294 163.597547 
L 248.395724 178.987338 
L 250.027154 198.262819 
L 251.658584 216.118908 
L 253.290014 226.457565 
L 254.921444 224.316915 
L 256.552873 207.743207 
L 258.184303 178.952141 
L 259.815733 144.290232 
L 261.447163 112.855908 
L 263.078593 94.070323 
L 264.710023 94.860903 
L 266.341453 117.307729 
L 267.972883 157.529145 
L 269.604312 206.255145 
L 271.235742 251.045221 
L 272.867172 279.599023 
L 274.498602 283.243054 
L 276.130032 259.575285 
L 277.761462 213.454066 
L 281.024322 101.662619 
L 282.655751 64.616025 
L 284.287181 54.694161 
L 285.918611 74.796742 
L 287.550041 120.022099 
L 290.812901 236.621733 
L 292.444331 278.591699 
L 294.075761 294.597065 
L 295.70719 281.192137 
L 297.33862 242.462739 
L 300.60148 133.824914 
L 302.23291 91.203792 
L 303.86434 70.804163 
L 305.49577 76.600361 
L 307.1272 105.942033 
L 308.75863 150.567736 
L 310.390059 198.950086 
L 312.021489 239.291132 
L 313.652919 262.379027 
L 315.284349 263.621309 
L 316.915779 243.835715 
L 318.547209 208.719044 
L 320.178639 167.233161 
L 321.810069 129.369339 
L 323.441498 103.83961 
L 325.072928 96.198635 
L 326.704358 107.755497 
L 328.335788 135.440314 
L 331.598648 210.474903 
L 333.230078 240.188243 
L 334.861508 254.62589 
L 336.492937 250.071548 
L 338.124367 227.120608 
L 339.755797 190.70062 
L 341.387227 149.129405 
L 343.018657 112.343369 
L 344.650087 89.626489 
L 346.281517 87.326005 
L 347.912947 107.104577 
L 349.544376 145.213499 
L 352.807236 239.108958 
L 354.438666 271.555599 
L 356.070096 281.444631 
L 357.701526 265.123301 
L 359.332956 225.511311 
L 362.595815 116.830291 
L 364.227245 74.894425 
L 365.858675 56.995826 
L 367.490105 68.351068 
L 369.121535 106.718363 
L 372.384395 222.55639 
L 374.015825 270.861457 
L 375.647254 295.488 
L 377.278684 290.356601 
L 378.910114 257.125959 
L 380.541544 204.686437 
L 382.172974 146.702239 
L 383.804404 97.899532 
L 385.435834 70.1465 
L 387.067264 69.415376 
L 388.698693 94.444916 
L 390.330123 137.418387 
L 391.961553 186.389619 
L 393.592983 228.70205 
L 395.224413 254.395008 
L 396.855843 258.644455 
L 398.487273 242.61499 
L 398.487273 242.61499 
" style="fill:none;stroke:#ff7f0e;stroke-linecap:square;stroke-width:1.5;"/>
   </g>
   <g id="patch_3">
    <path d="M 57.6 307.584 
L 57.6 41.472 
" style="fill:none;stroke:#000000;stroke-linecap:square;stroke-linejoin:miter;stroke-width:0.8;"/>
   </g>
   <g id="patch_4">
    <path d="M 414.72 307.584 
L 414.72 41.472 
" style="fill:none;stroke:#000000;stroke-linecap:square;stroke-linejoin:miter;stroke-width:0.8;"/>
   </g>
   <g id="patch_5">
    <path d="M 57.6 307.584 
L 414.72 307.584 
" style="fill:none;stroke:#000000;stroke-linecap:square;stroke-linejoin:miter;stroke-width:0.8;"/>
   </g>
   <g id="patch_6">
    <path d="M 57.6 41.472 
L 414.72 41.472 
" style="fill:none;stroke:#000000;stroke-linecap:square;stroke-linejoin:miter;stroke-width:0.8;"/>
   </g>
  </g>
 </g>
 <defs>
  <clipPath id="p50d117dd8e">
   <rect height="266.112" width="357.12" x="57.6" y="41.472"/>
  </clipPath>
 </defs>
</svg>
