<?xml version="1.0" encoding="UTF-8" standalone="no"?>
<!DOCTYPE svg PUBLIC "-//W3C//DTD SVG 1.0//EN" "http://www.w3.org/TR/2001/PR-SVG-20010719/DTD/svg10.dtd">
<svg width="24cm" height="14cm" viewBox="15 9 465 277" xmlns="http://www.w3.org/2000/svg" xmlns:xlink="http://www.w3.org/1999/xlink">
  <g>
    <line style="fill: none; fill-opacity:0; stroke-width: 6; stroke: #000000" x1="86" y1="40.8696" x2="110" y2="40.8696"/>
    <polygon style="fill: #ffffff" points="98,40.8696 86,59.1304 110,59.1304 "/>
    <polygon style="fill: none; fill-opacity:0; stroke-width: 2; stroke: #000000" points="98,40.8696 86,59.1304 110,59.1304 "/>
    <line style="fill: none; fill-opacity:0; stroke-width: 2; stroke: #000000" x1="98" y1="20" x2="98" y2="80"/>
    <line style="fill: none; fill-opacity:0; stroke-width: 2; stroke: #000000" x1="86" y1="54.4348" x2="80" y2="44"/>
    <polygon style="fill: #000000" points="80,47.3391 80,44 82.4,44 "/>
    <polygon style="fill: none; fill-opacity:0; stroke-width: 2; stroke: #000000" points="80,47.3391 80,44 82.4,44 "/>
    <line style="fill: none; fill-opacity:0; stroke-width: 2; stroke: #000000" x1="88.4" y1="49.2174" x2="82.4" y2="38.7826"/>
    <polygon style="fill: #000000" points="82.4,42.1217 82.4,38.7826 84.8,38.7826 "/>
    <polygon style="fill: none; fill-opacity:0; stroke-width: 2; stroke: #000000" points="82.4,42.1217 82.4,38.7826 84.8,38.7826 "/>
  </g>
  <g>
    <line style="fill: none; fill-opacity:0; stroke-width: 6; stroke: #000000" x1="144" y1="59.1304" x2="120" y2="59.1304"/>
    <polygon style="fill: #ffffff" points="132,59.1304 144,40.8696 120,40.8696 "/>
    <polygon style="fill: none; fill-opacity:0; stroke-width: 2; stroke: #000000" points="132,59.1304 144,40.8696 120,40.8696 "/>
    <line style="fill: none; fill-opacity:0; stroke-width: 2; stroke: #000000" x1="132" y1="80" x2="132" y2="20"/>
    <line style="fill: none; fill-opacity:0; stroke-width: 2; stroke: #000000" x1="144" y1="45.5652" x2="150" y2="56"/>
    <polygon style="fill: #000000" points="150,52.6609 150,56 147.6,56 "/>
    <polygon style="fill: none; fill-opacity:0; stroke-width: 2; stroke: #000000" points="150,52.6609 150,56 147.6,56 "/>
    <line style="fill: none; fill-opacity:0; stroke-width: 2; stroke: #000000" x1="141.6" y1="50.7826" x2="147.6" y2="61.2174"/>
    <polygon style="fill: #000000" points="147.6,57.8783 147.6,61.2174 145.2,61.2174 "/>
    <polygon style="fill: none; fill-opacity:0; stroke-width: 2; stroke: #000000" points="147.6,57.8783 147.6,61.2174 145.2,61.2174 "/>
  </g>
  <line style="fill: none; fill-opacity:0; stroke-width: 2; stroke: #000000" x1="65" y1="20" x2="132" y2="20"/>
  <line style="fill: none; fill-opacity:0; stroke-width: 2; stroke: #000000" x1="65" y1="80" x2="132" y2="80"/>
  <g>
    <line style="fill: none; fill-opacity:0; stroke-width: 2; stroke: #000000" x1="15" y1="20" x2="30" y2="20"/>
    <rect style="fill: #ffffff" x="30" y="10" width="30" height="20"/>
    <rect style="fill: none; fill-opacity:0; stroke-width: 2; stroke: #000000" x="30" y="10" width="30" height="20"/>
    <line style="fill: none; fill-opacity:0; stroke-width: 2; stroke: #000000" x1="60" y1="20" x2="75" y2="20"/>
  </g>
  <g>
    <line style="fill: none; fill-opacity:0; stroke-width: 2; stroke: #000000" x1="15" y1="80" x2="30" y2="80"/>
    <rect style="fill: #ffffff" x="30" y="70" width="30" height="20"/>
    <rect style="fill: none; fill-opacity:0; stroke-width: 2; stroke: #000000" x="30" y="70" width="30" height="20"/>
    <line style="fill: none; fill-opacity:0; stroke-width: 2; stroke: #000000" x1="60" y1="80" x2="75" y2="80"/>
  </g>
  <g>
    <line style="fill: none; fill-opacity:0; stroke-width: 6; stroke: #000000" x1="86" y1="155.87" x2="110" y2="155.87"/>
    <polygon style="fill: #ffffff" points="98,155.87 86,174.13 110,174.13 "/>
    <polygon style="fill: none; fill-opacity:0; stroke-width: 2; stroke: #000000" points="98,155.87 86,174.13 110,174.13 "/>
    <line style="fill: none; fill-opacity:0; stroke-width: 2; stroke: #000000" x1="98" y1="135" x2="98" y2="195"/>
    <line style="fill: none; fill-opacity:0; stroke-width: 2; stroke: #000000" x1="86" y1="169.435" x2="80" y2="159"/>
    <polygon style="fill: #000000" points="80,162.339 80,159 82.4,159 "/>
    <polygon style="fill: none; fill-opacity:0; stroke-width: 2; stroke: #000000" points="80,162.339 80,159 82.4,159 "/>
    <line style="fill: none; fill-opacity:0; stroke-width: 2; stroke: #000000" x1="88.4" y1="164.217" x2="82.4" y2="153.783"/>
    <polygon style="fill: #000000" points="82.4,157.122 82.4,153.783 84.8,153.783 "/>
    <polygon style="fill: none; fill-opacity:0; stroke-width: 2; stroke: #000000" points="82.4,157.122 82.4,153.783 84.8,153.783 "/>
  </g>
  <g>
    <line style="fill: none; fill-opacity:0; stroke-width: 6; stroke: #000000" x1="144" y1="174.13" x2="120" y2="174.13"/>
    <polygon style="fill: #ffffff" points="132,174.13 144,155.87 120,155.87 "/>
    <polygon style="fill: none; fill-opacity:0; stroke-width: 2; stroke: #000000" points="132,174.13 144,155.87 120,155.87 "/>
    <line style="fill: none; fill-opacity:0; stroke-width: 2; stroke: #000000" x1="132" y1="195" x2="132" y2="135"/>
    <line style="fill: none; fill-opacity:0; stroke-width: 2; stroke: #000000" x1="144" y1="160.565" x2="150" y2="171"/>
    <polygon style="fill: #000000" points="150,167.661 150,171 147.6,171 "/>
    <polygon style="fill: none; fill-opacity:0; stroke-width: 2; stroke: #000000" points="150,167.661 150,171 147.6,171 "/>
    <line style="fill: none; fill-opacity:0; stroke-width: 2; stroke: #000000" x1="141.6" y1="165.783" x2="147.6" y2="176.217"/>
    <polygon style="fill: #000000" points="147.6,172.878 147.6,176.217 145.2,176.217 "/>
    <polygon style="fill: none; fill-opacity:0; stroke-width: 2; stroke: #000000" points="147.6,172.878 147.6,176.217 145.2,176.217 "/>
  </g>
  <line style="fill: none; fill-opacity:0; stroke-width: 2; stroke: #000000" x1="65" y1="135" x2="200" y2="135"/>
  <line style="fill: none; fill-opacity:0; stroke-width: 2; stroke: #000000" x1="65" y1="195" x2="132" y2="195"/>
  <g>
    <line style="fill: none; fill-opacity:0; stroke-width: 2; stroke: #000000" x1="15" y1="135" x2="30" y2="135"/>
    <rect style="fill: #ffffff" x="30" y="125" width="30" height="20"/>
    <rect style="fill: none; fill-opacity:0; stroke-width: 2; stroke: #000000" x="30" y="125" width="30" height="20"/>
    <line style="fill: none; fill-opacity:0; stroke-width: 2; stroke: #000000" x1="60" y1="135" x2="75" y2="135"/>
  </g>
  <g>
    <line style="fill: none; fill-opacity:0; stroke-width: 2; stroke: #000000" x1="15" y1="195" x2="30" y2="195"/>
    <rect style="fill: #ffffff" x="30" y="185" width="30" height="20"/>
    <rect style="fill: none; fill-opacity:0; stroke-width: 2; stroke: #000000" x="30" y="185" width="30" height="20"/>
    <line style="fill: none; fill-opacity:0; stroke-width: 2; stroke: #000000" x1="60" y1="195" x2="75" y2="195"/>
  </g>
  <g>
    <line style="fill: none; fill-opacity:0; stroke-width: 2; stroke: #000000" x1="15" y1="245" x2="30" y2="245"/>
    <rect style="fill: #ffffff" x="30" y="235" width="30" height="20"/>
    <rect style="fill: none; fill-opacity:0; stroke-width: 2; stroke: #000000" x="30" y="235" width="30" height="20"/>
    <line style="fill: none; fill-opacity:0; stroke-width: 2; stroke: #000000" x1="60" y1="245" x2="75" y2="245"/>
  </g>
  <g>
    <line style="fill: none; fill-opacity:0; stroke-width: 6; stroke: #000000" x1="86" y1="205.87" x2="110" y2="205.87"/>
    <polygon style="fill: #ffffff" points="98,205.87 86,224.13 110,224.13 "/>
    <polygon style="fill: none; fill-opacity:0; stroke-width: 2; stroke: #000000" points="98,205.87 86,224.13 110,224.13 "/>
    <line style="fill: none; fill-opacity:0; stroke-width: 2; stroke: #000000" x1="98" y1="185" x2="98" y2="245"/>
    <line style="fill: none; fill-opacity:0; stroke-width: 2; stroke: #000000" x1="86" y1="219.435" x2="80" y2="209"/>
    <polygon style="fill: #000000" points="80,212.339 80,209 82.4,209 "/>
    <polygon style="fill: none; fill-opacity:0; stroke-width: 2; stroke: #000000" points="80,212.339 80,209 82.4,209 "/>
    <line style="fill: none; fill-opacity:0; stroke-width: 2; stroke: #000000" x1="88.4" y1="214.217" x2="82.4" y2="203.783"/>
    <polygon style="fill: #000000" points="82.4,207.122 82.4,203.783 84.8,203.783 "/>
    <polygon style="fill: none; fill-opacity:0; stroke-width: 2; stroke: #000000" points="82.4,207.122 82.4,203.783 84.8,203.783 "/>
  </g>
  <g>
    <line style="fill: none; fill-opacity:0; stroke-width: 6; stroke: #000000" x1="144" y1="224.13" x2="120" y2="224.13"/>
    <polygon style="fill: #ffffff" points="132,224.13 144,205.87 120,205.87 "/>
    <polygon style="fill: none; fill-opacity:0; stroke-width: 2; stroke: #000000" points="132,224.13 144,205.87 120,205.87 "/>
    <line style="fill: none; fill-opacity:0; stroke-width: 2; stroke: #000000" x1="132" y1="245" x2="132" y2="185"/>
    <line style="fill: none; fill-opacity:0; stroke-width: 2; stroke: #000000" x1="144" y1="210.565" x2="150" y2="221"/>
    <polygon style="fill: #000000" points="150,217.661 150,221 147.6,221 "/>
    <polygon style="fill: none; fill-opacity:0; stroke-width: 2; stroke: #000000" points="150,217.661 150,221 147.6,221 "/>
    <line style="fill: none; fill-opacity:0; stroke-width: 2; stroke: #000000" x1="141.6" y1="215.783" x2="147.6" y2="226.217"/>
    <polygon style="fill: #000000" points="147.6,222.878 147.6,226.217 145.2,226.217 "/>
    <polygon style="fill: none; fill-opacity:0; stroke-width: 2; stroke: #000000" points="147.6,222.878 147.6,226.217 145.2,226.217 "/>
  </g>
  <line style="fill: none; fill-opacity:0; stroke-width: 2; stroke: #000000" x1="65" y1="245" x2="200" y2="245"/>
  <g>
    <line style="fill: none; fill-opacity:0; stroke-width: 6; stroke: #000000" x1="158" y1="180.87" x2="182" y2="180.87"/>
    <polygon style="fill: #ffffff" points="170,180.87 158,199.13 182,199.13 "/>
    <polygon style="fill: none; fill-opacity:0; stroke-width: 2; stroke: #000000" points="170,180.87 158,199.13 182,199.13 "/>
    <line style="fill: none; fill-opacity:0; stroke-width: 2; stroke: #000000" x1="170" y1="160" x2="170" y2="220"/>
    <line style="fill: none; fill-opacity:0; stroke-width: 2; stroke: #000000" x1="158" y1="194.435" x2="152" y2="184"/>
    <polygon style="fill: #000000" points="152,187.339 152,184 154.4,184 "/>
    <polygon style="fill: none; fill-opacity:0; stroke-width: 2; stroke: #000000" points="152,187.339 152,184 154.4,184 "/>
    <line style="fill: none; fill-opacity:0; stroke-width: 2; stroke: #000000" x1="160.4" y1="189.217" x2="154.4" y2="178.783"/>
    <polygon style="fill: #000000" points="154.4,182.122 154.4,178.783 156.8,178.783 "/>
    <polygon style="fill: none; fill-opacity:0; stroke-width: 2; stroke: #000000" points="154.4,182.122 154.4,178.783 156.8,178.783 "/>
  </g>
  <g>
    <line style="fill: none; fill-opacity:0; stroke-width: 6; stroke: #000000" x1="212" y1="199.13" x2="188" y2="199.13"/>
    <polygon style="fill: #ffffff" points="200,199.13 212,180.87 188,180.87 "/>
    <polygon style="fill: none; fill-opacity:0; stroke-width: 2; stroke: #000000" points="200,199.13 212,180.87 188,180.87 "/>
    <line style="fill: none; fill-opacity:0; stroke-width: 2; stroke: #000000" x1="200" y1="220" x2="200" y2="160"/>
    <line style="fill: none; fill-opacity:0; stroke-width: 2; stroke: #000000" x1="212" y1="185.565" x2="218" y2="196"/>
    <polygon style="fill: #000000" points="218,192.661 218,196 215.6,196 "/>
    <polygon style="fill: none; fill-opacity:0; stroke-width: 2; stroke: #000000" points="218,192.661 218,196 215.6,196 "/>
    <line style="fill: none; fill-opacity:0; stroke-width: 2; stroke: #000000" x1="209.6" y1="190.783" x2="215.6" y2="201.217"/>
    <polygon style="fill: #000000" points="215.6,197.878 215.6,201.217 213.2,201.217 "/>
    <polygon style="fill: none; fill-opacity:0; stroke-width: 2; stroke: #000000" points="215.6,197.878 215.6,201.217 213.2,201.217 "/>
  </g>
  <line style="fill: none; fill-opacity:0; stroke-width: 2; stroke: #000000" x1="170" y1="135" x2="170" y2="245"/>
  <line style="fill: none; fill-opacity:0; stroke-width: 2; stroke: #000000" x1="200" y1="135" x2="200" y2="245"/>
  <line style="fill: none; fill-opacity:0; stroke-width: 2; stroke: #ff0000" x1="330" y1="40" x2="300" y2="90"/>
  <line style="fill: none; fill-opacity:0; stroke-width: 2; stroke: #ff0000" x1="300" y1="90" x2="331" y2="143"/>
  <line style="fill: none; fill-opacity:0; stroke-width: 2; stroke: #ff0000" x1="331" y1="143" x2="387" y2="143"/>
  <line style="fill: none; fill-opacity:0; stroke-width: 2; stroke: #ff0000" x1="387" y1="143" x2="420" y2="90"/>
  <line style="fill: none; fill-opacity:0; stroke-width: 2; stroke: #ff0000" x1="420" y1="90" x2="388" y2="39"/>
  <line style="fill: none; fill-opacity:0; stroke-width: 2; stroke: #ff0000" x1="388" y1="39" x2="330" y2="40"/>
  <line style="fill: none; fill-opacity:0; stroke-width: 2; stroke: #ff0000" x1="310" y1="200" x2="310" y2="285"/>
  <text font-size="19.4056" style="fill: #000000;text-anchor:start;font-family:sans-serif;font-style:normal;font-weight:700" x="330" y="242.488">
    <tspan x="330" y="242.488">=</tspan>
  </text>
  <g>
    <line style="fill: none; fill-opacity:0; stroke-width: 6; stroke: #000000" x1="376" y1="230.87" x2="400" y2="230.87"/>
    <polygon style="fill: #ffffff" points="388,230.87 376,249.13 400,249.13 "/>
    <polygon style="fill: none; fill-opacity:0; stroke-width: 2; stroke: #000000" points="388,230.87 376,249.13 400,249.13 "/>
    <line style="fill: none; fill-opacity:0; stroke-width: 2; stroke: #000000" x1="388" y1="210" x2="388" y2="270"/>
    <line style="fill: none; fill-opacity:0; stroke-width: 2; stroke: #000000" x1="376" y1="244.435" x2="370" y2="234"/>
    <polygon style="fill: #000000" points="370,237.339 370,234 372.4,234 "/>
    <polygon style="fill: none; fill-opacity:0; stroke-width: 2; stroke: #000000" points="370,237.339 370,234 372.4,234 "/>
    <line style="fill: none; fill-opacity:0; stroke-width: 2; stroke: #000000" x1="378.4" y1="239.217" x2="372.4" y2="228.783"/>
    <polygon style="fill: #000000" points="372.4,232.122 372.4,228.783 374.8,228.783 "/>
    <polygon style="fill: none; fill-opacity:0; stroke-width: 2; stroke: #000000" points="372.4,232.122 372.4,228.783 374.8,228.783 "/>
  </g>
  <g>
    <line style="fill: none; fill-opacity:0; stroke-width: 6; stroke: #000000" x1="434" y1="249.13" x2="410" y2="249.13"/>
    <polygon style="fill: #ffffff" points="422,249.13 434,230.87 410,230.87 "/>
    <polygon style="fill: none; fill-opacity:0; stroke-width: 2; stroke: #000000" points="422,249.13 434,230.87 410,230.87 "/>
    <line style="fill: none; fill-opacity:0; stroke-width: 2; stroke: #000000" x1="422" y1="270" x2="422" y2="210"/>
    <line style="fill: none; fill-opacity:0; stroke-width: 2; stroke: #000000" x1="434" y1="235.565" x2="440" y2="246"/>
    <polygon style="fill: #000000" points="440,242.661 440,246 437.6,246 "/>
    <polygon style="fill: none; fill-opacity:0; stroke-width: 2; stroke: #000000" points="440,242.661 440,246 437.6,246 "/>
    <line style="fill: none; fill-opacity:0; stroke-width: 2; stroke: #000000" x1="431.6" y1="240.783" x2="437.6" y2="251.217"/>
    <polygon style="fill: #000000" points="437.6,247.878 437.6,251.217 435.2,251.217 "/>
    <polygon style="fill: none; fill-opacity:0; stroke-width: 2; stroke: #000000" points="437.6,247.878 437.6,251.217 435.2,251.217 "/>
  </g>
  <line style="fill: none; fill-opacity:0; stroke-width: 2; stroke: #000000" x1="388" y1="210" x2="422" y2="210"/>
  <line style="fill: none; fill-opacity:0; stroke-width: 2; stroke: #ff0000" x1="405" y1="210" x2="405" y2="195"/>
  <line style="fill: none; fill-opacity:0; stroke-width: 2; stroke: #000000" x1="388" y1="270" x2="422" y2="270"/>
  <line style="fill: none; fill-opacity:0; stroke-width: 2; stroke: #ff0000" x1="405" y1="270" x2="405" y2="285"/>
  <g>
    <line style="fill: none; fill-opacity:0; stroke-width: 2; stroke: #000000" x1="270" y1="40" x2="285" y2="40"/>
    <rect style="fill: #ffffff" x="285" y="35" width="30" height="10"/>
    <rect style="fill: none; fill-opacity:0; stroke-width: 2; stroke: #000000" x="285" y="35" width="30" height="10"/>
    <line style="fill: none; fill-opacity:0; stroke-width: 2; stroke: #000000" x1="315" y1="40" x2="330" y2="40"/>
  </g>
  <g>
    <line style="fill: none; fill-opacity:0; stroke-width: 2; stroke: #000000" x1="240" y1="90" x2="255" y2="90"/>
    <rect style="fill: #ffffff" x="255" y="85" width="30" height="10"/>
    <rect style="fill: none; fill-opacity:0; stroke-width: 2; stroke: #000000" x="255" y="85" width="30" height="10"/>
    <line style="fill: none; fill-opacity:0; stroke-width: 2; stroke: #000000" x1="285" y1="90" x2="300" y2="90"/>
  </g>
  <g>
    <line style="fill: none; fill-opacity:0; stroke-width: 2; stroke: #000000" x1="271" y1="143" x2="286" y2="143"/>
    <rect style="fill: #ffffff" x="286" y="138" width="30" height="10"/>
    <rect style="fill: none; fill-opacity:0; stroke-width: 2; stroke: #000000" x="286" y="138" width="30" height="10"/>
    <line style="fill: none; fill-opacity:0; stroke-width: 2; stroke: #000000" x1="316" y1="143" x2="331" y2="143"/>
  </g>
  <g>
    <line style="fill: none; fill-opacity:0; stroke-width: 2; stroke: #000000" x1="387" y1="143" x2="402" y2="143"/>
    <rect style="fill: #ffffff" x="402" y="138" width="30" height="10"/>
    <rect style="fill: none; fill-opacity:0; stroke-width: 2; stroke: #000000" x="402" y="138" width="30" height="10"/>
    <line style="fill: none; fill-opacity:0; stroke-width: 2; stroke: #000000" x1="432" y1="143" x2="447" y2="143"/>
  </g>
  <g>
    <line style="fill: none; fill-opacity:0; stroke-width: 2; stroke: #000000" x1="420" y1="90" x2="435" y2="90"/>
    <rect style="fill: #ffffff" x="435" y="85" width="30" height="10"/>
    <rect style="fill: none; fill-opacity:0; stroke-width: 2; stroke: #000000" x="435" y="85" width="30" height="10"/>
    <line style="fill: none; fill-opacity:0; stroke-width: 2; stroke: #000000" x1="465" y1="90" x2="480" y2="90"/>
  </g>
  <g>
    <line style="fill: none; fill-opacity:0; stroke-width: 2; stroke: #000000" x1="388" y1="39" x2="403" y2="39"/>
    <rect style="fill: #ffffff" x="403" y="34" width="30" height="10"/>
    <rect style="fill: none; fill-opacity:0; stroke-width: 2; stroke: #000000" x="403" y="34" width="30" height="10"/>
    <line style="fill: none; fill-opacity:0; stroke-width: 2; stroke: #000000" x1="433" y1="39" x2="448" y2="39"/>
  </g>
  <line style="fill: none; fill-opacity:0; stroke-width: 2; stroke: #ff0000" x1="387" y1="143" x2="300" y2="90"/>
  <line style="fill: none; fill-opacity:0; stroke-width: 2; stroke: #ff0000" x1="300" y1="90" x2="388" y2="39"/>
  <line style="fill: none; fill-opacity:0; stroke-width: 2; stroke: #ff0000" x1="388" y1="39" x2="387" y2="143"/>
  <line style="fill: none; fill-opacity:0; stroke-width: 2; stroke: #ff0000" x1="331" y1="143" x2="420" y2="90"/>
  <line style="fill: none; fill-opacity:0; stroke-width: 2; stroke: #ff0000" x1="420" y1="90" x2="330" y2="40"/>
  <line style="fill: none; fill-opacity:0; stroke-width: 2; stroke: #ff0000" x1="330" y1="40" x2="331" y2="143"/>
  <line style="fill: none; fill-opacity:0; stroke-width: 2; stroke: #ff0000" x1="300" y1="90" x2="420" y2="90"/>
  <line style="fill: none; fill-opacity:0; stroke-width: 2; stroke: #ff0000" x1="330" y1="40" x2="387" y2="143"/>
  <line style="fill: none; fill-opacity:0; stroke-width: 2; stroke: #ff0000" x1="335" y1="140" x2="388" y2="39"/>
</svg>
