<?xml version="1.0" encoding="UTF-8" standalone="no"?>
<!DOCTYPE svg PUBLIC "-//W3C//DTD SVG 1.0//EN" "http://www.w3.org/TR/2001/PR-SVG-20010719/DTD/svg10.dtd">
<svg width="23cm" height="14cm" viewBox="19 18 457 270" xmlns="http://www.w3.org/2000/svg" xmlns:xlink="http://www.w3.org/1999/xlink">
  <g>
    <rect style="fill: #ffffff" x="325" y="180" width="150" height="85"/>
    <rect style="fill: none; fill-opacity:0; stroke-width: 2; stroke: #000000" x="325" y="180" width="150" height="85"/>
  </g>
  <g>
    <ellipse style="fill: #ffff00" cx="362.5" cy="110" rx="62.5" ry="60"/>
    <ellipse style="fill: none; fill-opacity:0; stroke-width: 2; stroke: #ff0000" cx="362.5" cy="110" rx="62.5" ry="60"/>
  </g>
  <line style="fill: none; fill-opacity:0; stroke-width: 2; stroke: #000000" x1="100" y1="285" x2="100" y2="35"/>
  <line style="fill: none; fill-opacity:0; stroke-width: 2; stroke: #000000" x1="140" y1="270" x2="140" y2="35"/>
  <line style="fill: none; fill-opacity:0; stroke-width: 2; stroke: #000000" x1="180" y1="270" x2="180" y2="35"/>
  <line style="fill: none; fill-opacity:0; stroke-width: 2; stroke: #000000" x1="220" y1="285" x2="220" y2="35"/>
  <g>
    <rect style="fill: #ffffff" x="45" y="30" width="20" height="195"/>
    <rect style="fill: none; fill-opacity:0; stroke-width: 2; stroke: #000000" x="45" y="30" width="20" height="195"/>
  </g>
  <g>
    <rect style="fill: #ffffff" x="70" y="235" width="185" height="25"/>
    <rect style="fill: none; fill-opacity:0; stroke-width: 2; stroke: #000000" x="70" y="235" width="185" height="25"/>
  </g>
  <text font-size="12.8" style="fill: #000000;text-anchor:start;font-family:sans-serif;font-style:normal;font-weight:normal" x="75" y="250">
    <tspan x="75" y="250">Управляющее устройство</tspan>
  </text>
  <line style="fill: none; fill-opacity:0; stroke-width: 2; stroke: #000000" x1="20" y1="80" x2="45" y2="80"/>
  <line style="fill: none; fill-opacity:0; stroke-width: 2; stroke: #000000" x1="20" y1="165" x2="45" y2="165"/>
  <text font-size="12.8" style="fill: #000000;text-anchor:start;font-family:sans-serif;font-style:normal;font-weight:normal" x="25" y="60">
    <tspan x="25" y="60">Ш.</tspan>
    <tspan x="25" y="76">А.</tspan>
  </text>
  <g>
    <line style="fill: none; fill-opacity:0; stroke-width: 2; stroke: #000000" x1="65" y1="55" x2="255" y2="55"/>
    <g>
      <g>
        <ellipse style="fill: #ffffff" cx="100" cy="55" rx="15" ry="15"/>
        <ellipse style="fill: none; fill-opacity:0; stroke-width: 2; stroke: #000000" cx="100" cy="55" rx="15" ry="15"/>
      </g>
      <text font-size="12.8" style="fill: #000000;text-anchor:start;font-family:sans-serif;font-style:normal;font-weight:normal" x="90" y="60">
        <tspan x="90" y="60">ЯЧ.</tspan>
      </text>
    </g>
    <g>
      <g>
        <ellipse style="fill: #ffffff" cx="140" cy="55" rx="15" ry="15"/>
        <ellipse style="fill: none; fill-opacity:0; stroke-width: 2; stroke: #000000" cx="140" cy="55" rx="15" ry="15"/>
      </g>
      <text font-size="12.8" style="fill: #000000;text-anchor:start;font-family:sans-serif;font-style:normal;font-weight:normal" x="130" y="60">
        <tspan x="130" y="60">ЯЧ.</tspan>
      </text>
    </g>
    <g>
      <g>
        <ellipse style="fill: #ffffff" cx="180" cy="55" rx="15" ry="15"/>
        <ellipse style="fill: none; fill-opacity:0; stroke-width: 2; stroke: #000000" cx="180" cy="55" rx="15" ry="15"/>
      </g>
      <text font-size="12.8" style="fill: #000000;text-anchor:start;font-family:sans-serif;font-style:normal;font-weight:normal" x="170" y="60">
        <tspan x="170" y="60">ЯЧ.</tspan>
      </text>
    </g>
    <g>
      <g>
        <ellipse style="fill: #ffffff" cx="220" cy="55" rx="15" ry="15"/>
        <ellipse style="fill: none; fill-opacity:0; stroke-width: 2; stroke: #000000" cx="220" cy="55" rx="15" ry="15"/>
      </g>
      <text font-size="12.8" style="fill: #000000;text-anchor:start;font-family:sans-serif;font-style:normal;font-weight:normal" x="210" y="60">
        <tspan x="210" y="60">ЯЧ.</tspan>
      </text>
    </g>
  </g>
  <g>
    <line style="fill: none; fill-opacity:0; stroke-width: 2; stroke: #000000" x1="65" y1="90" x2="255" y2="90"/>
    <g>
      <g>
        <ellipse style="fill: #ffffff" cx="100" cy="90" rx="15" ry="15"/>
        <ellipse style="fill: none; fill-opacity:0; stroke-width: 2; stroke: #000000" cx="100" cy="90" rx="15" ry="15"/>
      </g>
      <text font-size="12.8" style="fill: #000000;text-anchor:start;font-family:sans-serif;font-style:normal;font-weight:normal" x="90" y="95">
        <tspan x="90" y="95">ЯЧ.</tspan>
      </text>
    </g>
    <g>
      <g>
        <ellipse style="fill: #ffffff" cx="140" cy="90" rx="15" ry="15"/>
        <ellipse style="fill: none; fill-opacity:0; stroke-width: 2; stroke: #000000" cx="140" cy="90" rx="15" ry="15"/>
      </g>
      <text font-size="12.8" style="fill: #000000;text-anchor:start;font-family:sans-serif;font-style:normal;font-weight:normal" x="130" y="95">
        <tspan x="130" y="95">ЯЧ.</tspan>
      </text>
    </g>
    <g>
      <g>
        <ellipse style="fill: #ffffff" cx="180" cy="90" rx="15" ry="15"/>
        <ellipse style="fill: none; fill-opacity:0; stroke-width: 2; stroke: #000000" cx="180" cy="90" rx="15" ry="15"/>
      </g>
      <text font-size="12.8" style="fill: #000000;text-anchor:start;font-family:sans-serif;font-style:normal;font-weight:normal" x="170" y="95">
        <tspan x="170" y="95">ЯЧ.</tspan>
      </text>
    </g>
    <g>
      <g>
        <ellipse style="fill: #ffffff" cx="220" cy="90" rx="15" ry="15"/>
        <ellipse style="fill: none; fill-opacity:0; stroke-width: 2; stroke: #000000" cx="220" cy="90" rx="15" ry="15"/>
      </g>
      <text font-size="12.8" style="fill: #000000;text-anchor:start;font-family:sans-serif;font-style:normal;font-weight:normal" x="210" y="95">
        <tspan x="210" y="95">ЯЧ.</tspan>
      </text>
    </g>
  </g>
  <g>
    <line style="fill: none; fill-opacity:0; stroke-width: 2; stroke: #000000" x1="65" y1="125" x2="255" y2="125"/>
    <g>
      <g>
        <ellipse style="fill: #ffffff" cx="100" cy="125" rx="15" ry="15"/>
        <ellipse style="fill: none; fill-opacity:0; stroke-width: 2; stroke: #000000" cx="100" cy="125" rx="15" ry="15"/>
      </g>
      <text font-size="12.8" style="fill: #000000;text-anchor:start;font-family:sans-serif;font-style:normal;font-weight:normal" x="90" y="130">
        <tspan x="90" y="130">ЯЧ.</tspan>
      </text>
    </g>
    <g>
      <g>
        <ellipse style="fill: #ffffff" cx="140" cy="125" rx="15" ry="15"/>
        <ellipse style="fill: none; fill-opacity:0; stroke-width: 2; stroke: #000000" cx="140" cy="125" rx="15" ry="15"/>
      </g>
      <text font-size="12.8" style="fill: #000000;text-anchor:start;font-family:sans-serif;font-style:normal;font-weight:normal" x="130" y="130">
        <tspan x="130" y="130">ЯЧ.</tspan>
      </text>
    </g>
    <g>
      <g>
        <ellipse style="fill: #ffffff" cx="180" cy="125" rx="15" ry="15"/>
        <ellipse style="fill: none; fill-opacity:0; stroke-width: 2; stroke: #000000" cx="180" cy="125" rx="15" ry="15"/>
      </g>
      <text font-size="12.8" style="fill: #000000;text-anchor:start;font-family:sans-serif;font-style:normal;font-weight:normal" x="170" y="130">
        <tspan x="170" y="130">ЯЧ.</tspan>
      </text>
    </g>
    <g>
      <g>
        <ellipse style="fill: #ffffff" cx="220" cy="125" rx="15" ry="15"/>
        <ellipse style="fill: none; fill-opacity:0; stroke-width: 2; stroke: #000000" cx="220" cy="125" rx="15" ry="15"/>
      </g>
      <text font-size="12.8" style="fill: #000000;text-anchor:start;font-family:sans-serif;font-style:normal;font-weight:normal" x="210" y="130">
        <tspan x="210" y="130">ЯЧ.</tspan>
      </text>
    </g>
  </g>
  <g>
    <line style="fill: none; fill-opacity:0; stroke-width: 2; stroke: #000000" x1="65" y1="160" x2="255" y2="160"/>
    <g>
      <g>
        <ellipse style="fill: #ffffff" cx="100" cy="160" rx="15" ry="15"/>
        <ellipse style="fill: none; fill-opacity:0; stroke-width: 2; stroke: #000000" cx="100" cy="160" rx="15" ry="15"/>
      </g>
      <text font-size="12.8" style="fill: #000000;text-anchor:start;font-family:sans-serif;font-style:normal;font-weight:normal" x="90" y="165">
        <tspan x="90" y="165">ЯЧ.</tspan>
      </text>
    </g>
    <g>
      <g>
        <ellipse style="fill: #ffffff" cx="140" cy="160" rx="15" ry="15"/>
        <ellipse style="fill: none; fill-opacity:0; stroke-width: 2; stroke: #000000" cx="140" cy="160" rx="15" ry="15"/>
      </g>
      <text font-size="12.8" style="fill: #000000;text-anchor:start;font-family:sans-serif;font-style:normal;font-weight:normal" x="130" y="165">
        <tspan x="130" y="165">ЯЧ.</tspan>
      </text>
    </g>
    <g>
      <g>
        <ellipse style="fill: #ffffff" cx="180" cy="160" rx="15" ry="15"/>
        <ellipse style="fill: none; fill-opacity:0; stroke-width: 2; stroke: #000000" cx="180" cy="160" rx="15" ry="15"/>
      </g>
      <text font-size="12.8" style="fill: #000000;text-anchor:start;font-family:sans-serif;font-style:normal;font-weight:normal" x="170" y="165">
        <tspan x="170" y="165">ЯЧ.</tspan>
      </text>
    </g>
    <g>
      <g>
        <ellipse style="fill: #ffffff" cx="220" cy="160" rx="15" ry="15"/>
        <ellipse style="fill: none; fill-opacity:0; stroke-width: 2; stroke: #000000" cx="220" cy="160" rx="15" ry="15"/>
      </g>
      <text font-size="12.8" style="fill: #000000;text-anchor:start;font-family:sans-serif;font-style:normal;font-weight:normal" x="210" y="165">
        <tspan x="210" y="165">ЯЧ.</tspan>
      </text>
    </g>
  </g>
  <line style="fill: none; fill-opacity:0; stroke-width: 2; stroke: #000000" x1="65" y1="195" x2="255" y2="195"/>
  <g>
    <g>
      <ellipse style="fill: #ffff00" cx="100" cy="195" rx="15" ry="15"/>
      <ellipse style="fill: none; fill-opacity:0; stroke-width: 2; stroke: #ff0000" cx="100" cy="195" rx="15" ry="15"/>
    </g>
    <text font-size="12.8" style="fill: #000000;text-anchor:start;font-family:sans-serif;font-style:normal;font-weight:normal" x="90" y="200">
      <tspan x="90" y="200">ЯЧ.</tspan>
    </text>
  </g>
  <g>
    <g>
      <ellipse style="fill: #ffffff" cx="140" cy="195" rx="15" ry="15"/>
      <ellipse style="fill: none; fill-opacity:0; stroke-width: 2; stroke: #000000" cx="140" cy="195" rx="15" ry="15"/>
    </g>
    <text font-size="12.8" style="fill: #000000;text-anchor:start;font-family:sans-serif;font-style:normal;font-weight:normal" x="130" y="200">
      <tspan x="130" y="200">ЯЧ.</tspan>
    </text>
  </g>
  <g>
    <g>
      <ellipse style="fill: #ffffff" cx="180" cy="195" rx="15" ry="15"/>
      <ellipse style="fill: none; fill-opacity:0; stroke-width: 2; stroke: #000000" cx="180" cy="195" rx="15" ry="15"/>
    </g>
    <text font-size="12.8" style="fill: #000000;text-anchor:start;font-family:sans-serif;font-style:normal;font-weight:normal" x="170" y="200">
      <tspan x="170" y="200">ЯЧ.</tspan>
    </text>
  </g>
  <g>
    <g>
      <ellipse style="fill: #ffffff" cx="220" cy="195" rx="15" ry="15"/>
      <ellipse style="fill: none; fill-opacity:0; stroke-width: 2; stroke: #000000" cx="220" cy="195" rx="15" ry="15"/>
    </g>
    <text font-size="12.8" style="fill: #000000;text-anchor:start;font-family:sans-serif;font-style:normal;font-weight:normal" x="210" y="200">
      <tspan x="210" y="200">ЯЧ.</tspan>
    </text>
  </g>
  <line style="fill: none; fill-opacity:0; stroke-width: 2; stroke: #000000" x1="20" y1="105" x2="45" y2="105"/>
  <line style="fill: none; fill-opacity:0; stroke-width: 2; stroke: #000000" x1="20" y1="135" x2="45" y2="135"/>
  <text font-size="12.8" style="fill: #000000;text-anchor:start;font-family:sans-serif;font-style:normal;font-weight:normal" x="80" y="30">
    <tspan x="80" y="30">. . . . . . . . . . . . . . . . . . . . .</tspan>
  </text>
  <text font-size="12.8" style="fill: #000000;text-anchor:start;font-family:sans-serif;font-style:normal;font-weight:normal" x="115" y="285">
    <tspan x="115" y="285">Шина данных</tspan>
  </text>
  <line style="fill: none; fill-opacity:0; stroke-width: 2; stroke: #000000" x1="385" y1="30" x2="385" y2="185"/>
  <line style="fill: none; fill-opacity:0; stroke-width: 2; stroke: #000000" x1="470" y1="65" x2="295" y2="65"/>
  <g>
    <line style="fill: none; fill-opacity:0; stroke-width: 2; stroke: #000000" x1="330" y1="95" x2="345" y2="95"/>
    <line style="fill: none; fill-opacity:0; stroke-width: 2; stroke: #000000" x1="345" y1="80" x2="345" y2="110"/>
    <line style="fill: none; fill-opacity:0; stroke-width: 2; stroke: #000000" x1="345" y1="85" x2="360" y2="75"/>
    <line style="fill: none; fill-opacity:0; stroke-width: 2; stroke: #000000" x1="345" y1="105" x2="360" y2="115"/>
    <polyline style="fill: none; fill-opacity:0; stroke-width: 2; stroke: #000000" points="355,115 360,115 358.077,110.385 "/>
  </g>
  <line style="fill: none; fill-opacity:0; stroke-width: 2; stroke: #000000" x1="330" y1="95" x2="330" y2="65"/>
  <line style="fill: none; fill-opacity:0; stroke-width: 2; stroke: #000000" x1="360" y1="75" x2="385" y2="75"/>
  <g>
    <line style="fill: none; fill-opacity:0; stroke-width: 2; stroke: #000000" x1="360" y1="115" x2="360" y2="127"/>
    <line style="fill: none; fill-opacity:0; stroke-width: 2; stroke: #000000" x1="340" y1="127" x2="380" y2="127"/>
    <line style="fill: none; fill-opacity:0; stroke-width: 2; stroke: #000000" x1="340" y1="133" x2="380" y2="133"/>
    <line style="fill: none; fill-opacity:0; stroke-width: 2; stroke: #000000" x1="360" y1="133" x2="360" y2="145"/>
  </g>
  <g>
    <line style="fill: none; fill-opacity:0; stroke-width: 2; stroke: #000000" x1="360" y1="140" x2="360" y2="150"/>
    <line style="fill: none; fill-opacity:0; stroke-width: 2; stroke: #000000" x1="350" y1="150" x2="370" y2="150"/>
    <line style="fill: none; fill-opacity:0; stroke-width: 2; stroke: #000000" x1="353.35" y1="155" x2="366.65" y2="155"/>
    <line style="fill: none; fill-opacity:0; stroke-width: 2; stroke: #000000" x1="356.7" y1="160" x2="363.3" y2="160"/>
  </g>
  <g>
    <g>
      <rect style="fill: #ffffff" x="350" y="205" width="20" height="25"/>
      <rect style="fill: none; fill-opacity:0; stroke-width: 2; stroke: #000000" x="350" y="205" width="20" height="25"/>
    </g>
    <text font-size="12.8" style="fill: #000000;text-anchor:start;font-family:sans-serif;font-style:normal;font-weight:normal" x="360" y="217.5">
      <tspan x="360" y="217.5">&amp;</tspan>
    </text>
  </g>
  <g>
    <line style="fill: none; fill-opacity:0; stroke-width: 2; stroke: #000000" x1="385" y1="185" x2="376.6" y2="196.2"/>
    <polygon style="fill: #000000" points="372.6,193.2 370.6,204.2 380.6,199.2 "/>
    <polygon style="fill: none; fill-opacity:0; stroke-width: 2; stroke: #000000" points="372.6,193.2 370.6,204.2 380.6,199.2 "/>
  </g>
  <g>
    <line style="fill: none; fill-opacity:0; stroke-width: 2; stroke: #000000" x1="300" y1="200" x2="339.055" y2="203.905"/>
    <polygon style="fill: #000000" points="338.557,208.881 349.005,204.9 339.552,198.93 "/>
    <polygon style="fill: none; fill-opacity:0; stroke-width: 2; stroke: #000000" points="338.557,208.881 349.005,204.9 339.552,198.93 "/>
  </g>
  <g>
    <line style="fill: none; fill-opacity:0; stroke-width: 2; stroke: #000000" x1="360" y1="230" x2="377.958" y2="251.55"/>
    <polygon style="fill: #000000" points="374.117,254.75 384.36,259.232 381.799,248.349 "/>
    <polygon style="fill: none; fill-opacity:0; stroke-width: 2; stroke: #000000" points="374.117,254.75 384.36,259.232 381.799,248.349 "/>
  </g>
  <g>
    <g>
      <rect style="fill: #ffffff" x="395" y="205" width="20" height="25"/>
      <rect style="fill: none; fill-opacity:0; stroke-width: 2; stroke: #000000" x="395" y="205" width="20" height="25"/>
    </g>
    <text font-size="12.8" style="fill: #000000;text-anchor:start;font-family:sans-serif;font-style:normal;font-weight:normal" x="405" y="217.5">
      <tspan x="405" y="217.5">&amp;</tspan>
    </text>
  </g>
  <g>
    <line style="fill: none; fill-opacity:0; stroke-width: 2; stroke: #000000" x1="405" y1="205" x2="392.778" y2="192.778"/>
    <polygon style="fill: #000000" points="396.314,189.243 385.707,185.707 389.243,196.314 "/>
    <polygon style="fill: none; fill-opacity:0; stroke-width: 2; stroke: #000000" points="396.314,189.243 385.707,185.707 389.243,196.314 "/>
  </g>
  <g>
    <line style="fill: none; fill-opacity:0; stroke-width: 2; stroke: #000000" x1="385" y1="260" x2="407.222" y2="237.778"/>
    <polygon style="fill: #000000" points="410.757,241.314 414.293,230.707 403.686,234.243 "/>
    <polygon style="fill: none; fill-opacity:0; stroke-width: 2; stroke: #000000" points="410.757,241.314 414.293,230.707 403.686,234.243 "/>
  </g>
  <g>
    <path style="fill: none; fill-opacity:0; stroke-width: 2; stroke: #000000" d="M 300,215 A 88.9009,88.9009 0 0 0 384.738,233.785"/>
    <polygon style="fill: #000000" points="386.949,239.01 394.085,230.403 382.918,229.859 "/>
    <polygon style="fill: none; fill-opacity:0; stroke-width: 2; stroke: #000000" points="386.949,239.01 394.085,230.403 382.918,229.859 "/>
  </g>
  <line style="fill: none; fill-opacity:0; stroke-width: 2; stroke: #000000" x1="385" y1="280" x2="385" y2="260"/>
  <text font-size="12.8" style="fill: #000000;text-anchor:start;font-family:sans-serif;font-style:normal;font-weight:normal" x="285" y="205">
    <tspan x="285" y="205">R</tspan>
    <tspan x="285" y="221">W</tspan>
  </text>
  <text font-size="12.8" style="fill: #000000;text-anchor:start;font-family:sans-serif;font-style:normal;font-weight:normal" x="430" y="195">
    <tspan x="430" y="195">У.У.</tspan>
  </text>
  <text font-size="12.8" style="fill: #000000;text-anchor:start;font-family:sans-serif;font-style:normal;font-weight:normal" x="50" y="60.5">
    <tspan x="50" y="60.5">Д</tspan>
    <tspan x="50" y="76.5">е</tspan>
    <tspan x="50" y="92.5">ш</tspan>
    <tspan x="50" y="108.5">и</tspan>
    <tspan x="50" y="124.5">ф</tspan>
    <tspan x="50" y="140.5">р</tspan>
    <tspan x="50" y="156.5">а</tspan>
    <tspan x="50" y="172.5">т</tspan>
    <tspan x="50" y="188.5">о</tspan>
    <tspan x="50" y="204.5">р</tspan>
  </text>
  <text font-size="12.8" style="fill: #000000;text-anchor:start;font-family:sans-serif;font-style:normal;font-weight:normal" x="362.5" y="110">
    <tspan x="362.5" y="110">ЯЧ.</tspan>
  </text>
</svg>
