<?xml version="1.0" encoding="UTF-8" standalone="no"?>
<!-- Generator: Adobe Illustrator 13.0.0, SVG Export Plug-In . SVG Version: 6.00 Build 14576)  -->

<svg
   xmlns:dc="http://purl.org/dc/elements/1.1/"
   xmlns:cc="http://creativecommons.org/ns#"
   xmlns:rdf="http://www.w3.org/1999/02/22-rdf-syntax-ns#"
   xmlns:svg="http://www.w3.org/2000/svg"
   xmlns="http://www.w3.org/2000/svg"
   xmlns:sodipodi="http://sodipodi.sourceforge.net/DTD/sodipodi-0.dtd"
   xmlns:inkscape="http://www.inkscape.org/namespaces/inkscape"
   version="1.0"
   id="Layer_1"
   x="0px"
   y="0px"
   width="720"
   height="253.61719"
   viewBox="0 0 720 253.61719"
   enable-background="new 0 0 800 600"
   xml:space="preserve"
   sodipodi:docname="12.nand.svg"
   inkscape:version="0.92.5 (2060ec1f9f, 2020-04-08)"><metadata
   id="metadata319"><rdf:RDF><cc:Work
       rdf:about=""><dc:format>image/svg+xml</dc:format><dc:type
         rdf:resource="http://purl.org/dc/dcmitype/StillImage" /><dc:title></dc:title></cc:Work></rdf:RDF></metadata><defs
   id="defs317" /><sodipodi:namedview
   pagecolor="#ffffff"
   bordercolor="#666666"
   borderopacity="1"
   objecttolerance="10"
   gridtolerance="10"
   guidetolerance="10"
   inkscape:pageopacity="0"
   inkscape:pageshadow="2"
   inkscape:window-width="1920"
   inkscape:window-height="1001"
   id="namedview315"
   showgrid="false"
   fit-margin-top="0"
   fit-margin-left="0"
   fit-margin-right="0"
   fit-margin-bottom="0"
   inkscape:zoom="0.55625733"
   inkscape:cx="606.52166"
   inkscape:cy="27.223295"
   inkscape:window-x="-9"
   inkscape:window-y="-9"
   inkscape:window-maximized="1"
   inkscape:current-layer="Layer_1" />
<rect
   x="14"
   y="207.11719"
   width="704"
   height="46"
   id="rect2"
   style="fill:#662d91;stroke:#000000" />
<path
   d="m 94,207.11719 v 8 c 0,0 0,8 8,8 8,0 16,0 16,0 0,0 8,0 8,-8 0,-8 0,-8 0,-8"
   id="path4"
   inkscape:connector-curvature="0"
   style="fill:#00ffff;stroke:#000000" />
<path
   d="m 30,207.11719 v 8 c 0,0 0,8 8,8 8,0 16,0 16,0 0,0 8,0 8,-8 0,-8 0,-8 0,-8"
   id="path6"
   inkscape:connector-curvature="0"
   style="fill:#00ffff;stroke:#000000" />
<path
   d="m 158,207.11719 v 8 c 0,0 0,8 8,8 8,0 16,0 16,0 0,0 8,0 8,-8 0,-8 0,-8 0,-8"
   id="path8"
   inkscape:connector-curvature="0"
   style="fill:#00ffff;stroke:#000000" />
<path
   d="m 222,207.11719 v 8 c 0,0 0,8 8,8 8,0 16,0 16,0 0,0 8,0 8,-8 0,-8 0,-8 0,-8"
   id="path10"
   inkscape:connector-curvature="0"
   style="fill:#00ffff;stroke:#000000" />
<path
   d="m 286,207.11719 v 8 c 0,0 0,8 8,8 8,0 16,0 16,0 0,0 8,0 8,-8 0,-8 0,-8 0,-8"
   id="path12"
   inkscape:connector-curvature="0"
   style="fill:#00ffff;stroke:#000000" />
<path
   d="m 350,207.11719 v 8 c 0,0 0,8 8,8 8,0 16,0 16,0 0,0 8,0 8,-8 0,-8 0,-8 0,-8"
   id="path14"
   inkscape:connector-curvature="0"
   style="fill:#00ffff;stroke:#000000" />
<path
   d="m 414,207.11719 v 8 c 0,0 0,8 8,8 8,0 16,0 16,0 0,0 8,0 8,-8 0,-8 0,-8 0,-8"
   id="path16"
   inkscape:connector-curvature="0"
   style="fill:#00ffff;stroke:#000000" />
<path
   d="m 478,207.11719 v 8 c 0,0 0,8 8,8 8,0 16,0 16,0 0,0 8,0 8,-8 0,-8 0,-8 0,-8"
   id="path18"
   inkscape:connector-curvature="0"
   style="fill:#00ffff;stroke:#000000" />
<path
   d="m 542,207.11719 v 8 c 0,0 0,8 8,8 8,0 16,0 16,0 0,0 8,0 8,-8 0,-8 0,-8 0,-8"
   id="path20"
   inkscape:connector-curvature="0"
   style="fill:#00ffff;stroke:#000000" />
<path
   d="m 606,207.11719 v 8 c 0,0 0,8 8,8 8,0 16,0 16,0 0,0 8,0 8,-8 0,-8 0,-8 0,-8"
   id="path22"
   inkscape:connector-curvature="0"
   style="fill:#00ffff;stroke:#000000" />
<path
   d="m 670,207.11719 v 8 c 0,0 0,8 8,8 8,0 16,0 16,0 0,0 8,0 8,-8 0,-8 0,-8 0,-8"
   id="path24"
   inkscape:connector-curvature="0"
   style="fill:#00ffff;stroke:#000000" />
<rect
   x="62"
   y="191.11719"
   width="32"
   height="12"
   id="rect26"
   style="fill:#b3b3b3;stroke:#000000" />
<rect
   x="122"
   y="197.11719"
   width="40"
   height="8"
   id="rect28"
   style="fill:#b3b3b3;stroke:#000000" />
<rect
   x="122"
   y="187.11719"
   width="40"
   height="8"
   id="rect30"
   style="fill:#b3b3b3;stroke:#000000" />
<rect
   x="186"
   y="197.11719"
   width="40"
   height="8"
   id="rect32"
   style="fill:#b3b3b3;stroke:#000000" />
<rect
   x="186"
   y="187.11719"
   width="40"
   height="8"
   id="rect34"
   style="fill:#b3b3b3;stroke:#000000" />
<rect
   x="250"
   y="197.11719"
   width="40"
   height="8"
   id="rect36"
   style="fill:#b3b3b3;stroke:#000000" />
<rect
   x="250"
   y="187.11719"
   width="40"
   height="8"
   id="rect38"
   style="fill:#b3b3b3;stroke:#000000" />
<rect
   x="314"
   y="197.11719"
   width="40"
   height="8"
   id="rect40"
   style="fill:#b3b3b3;stroke:#000000" />
<rect
   x="314"
   y="187.11719"
   width="40"
   height="8"
   id="rect42"
   style="fill:#b3b3b3;stroke:#000000" />
<rect
   x="378"
   y="197.11719"
   width="40"
   height="8"
   id="rect44"
   style="fill:#b3b3b3;stroke:#000000" />
<rect
   x="378"
   y="187.11719"
   width="40"
   height="8"
   id="rect46"
   style="fill:#b3b3b3;stroke:#000000" />
<rect
   x="442"
   y="197.11719"
   width="40"
   height="8"
   id="rect48"
   style="fill:#b3b3b3;stroke:#000000" />
<rect
   x="442"
   y="187.11719"
   width="40"
   height="8"
   id="rect50"
   style="fill:#b3b3b3;stroke:#000000" />
<rect
   x="506"
   y="197.11719"
   width="40"
   height="8"
   id="rect52"
   style="fill:#b3b3b3;stroke:#000000" />
<rect
   x="506"
   y="187.11719"
   width="40"
   height="8"
   id="rect54"
   style="fill:#b3b3b3;stroke:#000000" />
<rect
   x="570"
   y="197.11719"
   width="40"
   height="8"
   id="rect56"
   style="fill:#b3b3b3;stroke:#000000" />
<rect
   x="570"
   y="187.11719"
   width="40"
   height="8"
   id="rect58"
   style="fill:#b3b3b3;stroke:#000000" />
<rect
   x="638"
   y="191.11719"
   width="32"
   height="12"
   id="rect60"
   style="fill:#b3b3b3;stroke:#000000" />
<rect
   x="36"
   y="175.11719"
   width="18"
   height="32"
   id="rect62"
   style="fill:#f7931e;stroke:#000000" />
<rect
   x="678"
   y="175.11719"
   width="16"
   height="32"
   id="rect64"
   style="fill:#f7931e;stroke:#000000" />
<line
   x1="0"
   y1="17.117188"
   x2="720"
   y2="17.117188"
   id="line66"
   style="fill:none;stroke:#000000;stroke-width:2" />
<line
   x1="686"
   y1="17.117188"
   x2="686"
   y2="125.11719"
   id="line68"
   style="fill:none;stroke:#000000;stroke-width:2" />
<line
   x1="686"
   y1="125.11719"
   x2="670"
   y2="125.11719"
   id="line70"
   style="fill:none;stroke:#000000;stroke-width:2" />
<g
   id="g88"
   transform="translate(-34,-118.88281)">
	<line
   x1="704"
   y1="244"
   x2="704"
   y2="216"
   id="line72"
   style="fill:none;stroke:#000000;stroke-width:2" />
	<line
   x1="672"
   y1="216"
   x2="704"
   y2="216"
   id="line74"
   style="fill:none;stroke:#000000;stroke-width:2" />
	<line
   x1="672"
   y1="216"
   x2="672"
   y2="244"
   id="line76"
   style="fill:none;stroke:#000000;stroke-width:2" />
	<line
   x1="672"
   y1="244"
   x2="640"
   y2="244"
   id="line78"
   style="fill:none;stroke:#000000;stroke-width:2" />
	<line
   x1="640"
   y1="244"
   x2="640"
   y2="216"
   id="line80"
   style="fill:none;stroke:#000000;stroke-width:2" />
	<line
   x1="608"
   y1="216"
   x2="640"
   y2="216"
   id="line82"
   style="fill:none;stroke:#000000;stroke-width:2" />
	<line
   x1="608"
   y1="216"
   x2="608"
   y2="244"
   id="line84"
   style="fill:none;stroke:#000000;stroke-width:2" />
	<line
   x1="608"
   y1="244"
   x2="576"
   y2="244"
   id="line86"
   style="fill:none;stroke:#000000;stroke-width:2" />
</g>
<g
   id="g106"
   transform="translate(-34,-118.88281)">
	<line
   x1="576"
   y1="244"
   x2="576"
   y2="216"
   id="line90"
   style="fill:none;stroke:#000000;stroke-width:2" />
	<line
   x1="544"
   y1="216"
   x2="576"
   y2="216"
   id="line92"
   style="fill:none;stroke:#000000;stroke-width:2" />
	<line
   x1="544"
   y1="216"
   x2="544"
   y2="244"
   id="line94"
   style="fill:none;stroke:#000000;stroke-width:2" />
	<line
   x1="544"
   y1="244"
   x2="512"
   y2="244"
   id="line96"
   style="fill:none;stroke:#000000;stroke-width:2" />
	<line
   x1="512"
   y1="244"
   x2="512"
   y2="216"
   id="line98"
   style="fill:none;stroke:#000000;stroke-width:2" />
	<line
   x1="480"
   y1="216"
   x2="512"
   y2="216"
   id="line100"
   style="fill:none;stroke:#000000;stroke-width:2" />
	<line
   x1="480"
   y1="216"
   x2="480"
   y2="244"
   id="line102"
   style="fill:none;stroke:#000000;stroke-width:2" />
	<line
   x1="480"
   y1="244"
   x2="448"
   y2="244"
   id="line104"
   style="fill:none;stroke:#000000;stroke-width:2" />
</g>
<g
   id="g124"
   transform="translate(-34,-118.88281)">
	<line
   x1="448"
   y1="244"
   x2="448"
   y2="216"
   id="line108"
   style="fill:none;stroke:#000000;stroke-width:2" />
	<line
   x1="416"
   y1="216"
   x2="448"
   y2="216"
   id="line110"
   style="fill:none;stroke:#000000;stroke-width:2" />
	<line
   x1="416"
   y1="216"
   x2="416"
   y2="244"
   id="line112"
   style="fill:none;stroke:#000000;stroke-width:2" />
	<line
   x1="416"
   y1="244"
   x2="384"
   y2="244"
   id="line114"
   style="fill:none;stroke:#000000;stroke-width:2" />
	<line
   x1="384"
   y1="244"
   x2="384"
   y2="216"
   id="line116"
   style="fill:none;stroke:#000000;stroke-width:2" />
	<line
   x1="352"
   y1="216"
   x2="384"
   y2="216"
   id="line118"
   style="fill:none;stroke:#000000;stroke-width:2" />
	<line
   x1="352"
   y1="216"
   x2="352"
   y2="244"
   id="line120"
   style="fill:none;stroke:#000000;stroke-width:2" />
	<line
   x1="352"
   y1="244"
   x2="320"
   y2="244"
   id="line122"
   style="fill:none;stroke:#000000;stroke-width:2" />
</g>
<g
   id="g142"
   transform="translate(-34,-118.88281)">
	<line
   x1="320"
   y1="244"
   x2="320"
   y2="216"
   id="line126"
   style="fill:none;stroke:#000000;stroke-width:2" />
	<line
   x1="288"
   y1="216"
   x2="320"
   y2="216"
   id="line128"
   style="fill:none;stroke:#000000;stroke-width:2" />
	<line
   x1="288"
   y1="216"
   x2="288"
   y2="244"
   id="line130"
   style="fill:none;stroke:#000000;stroke-width:2" />
	<line
   x1="288"
   y1="244"
   x2="256"
   y2="244"
   id="line132"
   style="fill:none;stroke:#000000;stroke-width:2" />
	<line
   x1="256"
   y1="244"
   x2="256"
   y2="216"
   id="line134"
   style="fill:none;stroke:#000000;stroke-width:2" />
	<line
   x1="224"
   y1="216"
   x2="256"
   y2="216"
   id="line136"
   style="fill:none;stroke:#000000;stroke-width:2" />
	<line
   x1="224"
   y1="216"
   x2="224"
   y2="244"
   id="line138"
   style="fill:none;stroke:#000000;stroke-width:2" />
	<line
   x1="224"
   y1="244"
   x2="192"
   y2="244"
   id="line140"
   style="fill:none;stroke:#000000;stroke-width:2" />
</g>
<line
   x1="158"
   y1="125.11719"
   x2="158"
   y2="97.117188"
   id="line144"
   style="fill:none;stroke:#000000;stroke-width:2" />
<line
   x1="126"
   y1="97.117188"
   x2="158"
   y2="97.117188"
   id="line146"
   style="fill:none;stroke:#000000;stroke-width:2" />
<line
   x1="126"
   y1="97.117188"
   x2="126"
   y2="125.11719"
   id="line148"
   style="fill:none;stroke:#000000;stroke-width:2" />
<line
   x1="126"
   y1="125.11719"
   x2="94"
   y2="125.11719"
   id="line150"
   style="fill:none;stroke:#000000;stroke-width:2" />
<line
   x1="94"
   y1="125.11719"
   x2="94"
   y2="97.117188"
   id="line152"
   style="fill:none;stroke:#000000;stroke-width:2" />
<line
   x1="62"
   y1="97.117188"
   x2="94"
   y2="97.117188"
   id="line154"
   style="fill:none;stroke:#000000;stroke-width:2" />
<line
   x1="62"
   y1="97.117188"
   x2="62"
   y2="125.11719"
   id="line156"
   style="fill:none;stroke:#000000;stroke-width:2" />
<line
   x1="62"
   y1="125.11719"
   x2="46"
   y2="125.11719"
   id="line158"
   style="fill:none;stroke:#000000;stroke-width:2" />
<line
   x1="46"
   y1="145.11719"
   x2="46"
   y2="125.11719"
   id="line160"
   style="fill:none;stroke:#000000;stroke-width:2" />
<line
   x1="62"
   y1="89.117188"
   x2="94"
   y2="89.117188"
   id="line162"
   style="fill:none;stroke:#000000;stroke-width:2" />
<line
   x1="126"
   y1="91.117188"
   x2="158"
   y2="91.117188"
   id="line164"
   style="fill:none;stroke:#000000;stroke-width:2" />
<line
   x1="126"
   y1="87.117188"
   x2="158"
   y2="87.117188"
   id="line166"
   style="fill:none;stroke:#000000;stroke-width:2" />
<line
   x1="78"
   y1="73.117188"
   x2="78"
   y2="89.117188"
   id="line168"
   style="fill:none;stroke:#000000;stroke-width:2" />
<line
   x1="142"
   y1="73.117188"
   x2="142"
   y2="87.117188"
   id="line170"
   style="fill:none;stroke:#000000;stroke-width:2" />
<line
   x1="190"
   y1="91.117188"
   x2="222"
   y2="91.117188"
   id="line172"
   style="fill:none;stroke:#000000;stroke-width:2" />
<line
   x1="190"
   y1="87.117188"
   x2="222"
   y2="87.117188"
   id="line174"
   style="fill:none;stroke:#000000;stroke-width:2" />
<line
   x1="206"
   y1="73.117188"
   x2="206"
   y2="87.117188"
   id="line176"
   style="fill:none;stroke:#000000;stroke-width:2" />
<line
   x1="254"
   y1="91.117188"
   x2="286"
   y2="91.117188"
   id="line178"
   style="fill:none;stroke:#000000;stroke-width:2" />
<line
   x1="254"
   y1="87.117188"
   x2="286"
   y2="87.117188"
   id="line180"
   style="fill:none;stroke:#000000;stroke-width:2" />
<line
   x1="270"
   y1="73.117188"
   x2="270"
   y2="87.117188"
   id="line182"
   style="fill:none;stroke:#000000;stroke-width:2" />
<line
   x1="318"
   y1="91.117188"
   x2="350"
   y2="91.117188"
   id="line184"
   style="fill:none;stroke:#000000;stroke-width:2" />
<line
   x1="318"
   y1="87.117188"
   x2="350"
   y2="87.117188"
   id="line186"
   style="fill:none;stroke:#000000;stroke-width:2" />
<line
   x1="334"
   y1="73.117188"
   x2="334"
   y2="87.117188"
   id="line188"
   style="fill:none;stroke:#000000;stroke-width:2" />
<line
   x1="382"
   y1="91.117188"
   x2="414"
   y2="91.117188"
   id="line190"
   style="fill:none;stroke:#000000;stroke-width:2" />
<line
   x1="382"
   y1="87.117188"
   x2="414"
   y2="87.117188"
   id="line192"
   style="fill:none;stroke:#000000;stroke-width:2" />
<line
   x1="398"
   y1="73.117188"
   x2="398"
   y2="87.117188"
   id="line194"
   style="fill:none;stroke:#000000;stroke-width:2" />
<line
   x1="446"
   y1="91.117188"
   x2="478"
   y2="91.117188"
   id="line196"
   style="fill:none;stroke:#000000;stroke-width:2" />
<line
   x1="446"
   y1="87.117188"
   x2="478"
   y2="87.117188"
   id="line198"
   style="fill:none;stroke:#000000;stroke-width:2" />
<line
   x1="462"
   y1="73.117188"
   x2="462"
   y2="87.117188"
   id="line200"
   style="fill:none;stroke:#000000;stroke-width:2" />
<line
   x1="510"
   y1="91.117188"
   x2="542"
   y2="91.117188"
   id="line202"
   style="fill:none;stroke:#000000;stroke-width:2" />
<line
   x1="510"
   y1="87.117188"
   x2="542"
   y2="87.117188"
   id="line204"
   style="fill:none;stroke:#000000;stroke-width:2" />
<line
   x1="526"
   y1="73.117188"
   x2="526"
   y2="87.117188"
   id="line206"
   style="fill:none;stroke:#000000;stroke-width:2" />
<line
   x1="574"
   y1="91.117188"
   x2="606"
   y2="91.117188"
   id="line208"
   style="fill:none;stroke:#000000;stroke-width:2" />
<line
   x1="574"
   y1="87.117188"
   x2="606"
   y2="87.117188"
   id="line210"
   style="fill:none;stroke:#000000;stroke-width:2" />
<line
   x1="590"
   y1="73.117188"
   x2="590"
   y2="87.117188"
   id="line212"
   style="fill:none;stroke:#000000;stroke-width:2" />
<line
   x1="638"
   y1="89.117188"
   x2="670"
   y2="89.117188"
   id="line214"
   style="fill:none;stroke:#000000;stroke-width:2" />
<line
   x1="654"
   y1="73.117188"
   x2="654"
   y2="89.117188"
   id="line216"
   style="fill:none;stroke:#000000;stroke-width:2" />
<line
   x1="38"
   y1="145.11719"
   x2="54"
   y2="145.11719"
   id="line218"
   style="fill:none;stroke:#000000;stroke-width:2" />
<line
   x1="40"
   y1="149.11719"
   x2="52"
   y2="149.11719"
   id="line220"
   style="fill:none;stroke:#000000;stroke-width:2" />
<line
   x1="44"
   y1="153.11719"
   x2="48"
   y2="153.11719"
   id="line222"
   style="fill:none;stroke:#000000;stroke-width:2" />
<text
   id="text228"
   x="127.665"
   y="53.117188"><tspan
     x="127.665"
     y="53.117188"
     font-size="12"
     id="tspan224"
     style="font-size:12px;font-family:ArialMT">Word</tspan><tspan
     x="125.652"
     y="67.517189"
     font-size="12"
     id="tspan226"
     style="font-size:12px;font-family:ArialMT">Line 0</tspan></text>

<text
   id="text234"
   x="191.66499"
   y="53.117188"><tspan
     x="191.66499"
     y="53.117188"
     font-size="12"
     id="tspan230"
     style="font-size:12px;font-family:ArialMT">Word</tspan><tspan
     x="189.65199"
     y="67.517189"
     font-size="12"
     id="tspan232"
     style="font-size:12px;font-family:ArialMT">Line 1</tspan></text>

<text
   id="text240"
   x="253.66499"
   y="53.117188"><tspan
     x="253.66499"
     y="53.117188"
     font-size="12"
     id="tspan236"
     style="font-size:12px;font-family:ArialMT">Word</tspan><tspan
     x="251.65199"
     y="67.517189"
     font-size="12"
     id="tspan238"
     style="font-size:12px;font-family:ArialMT">Line 2</tspan></text>

<text
   id="text246"
   x="317.66501"
   y="53.117188"><tspan
     x="317.66501"
     y="53.117188"
     font-size="12"
     id="tspan242"
     style="font-size:12px;font-family:ArialMT">Word</tspan><tspan
     x="315.65201"
     y="67.517189"
     font-size="12"
     id="tspan244"
     style="font-size:12px;font-family:ArialMT">Line 3</tspan></text>

<text
   id="text252"
   x="381.66501"
   y="53.117188"><tspan
     x="381.66501"
     y="53.117188"
     font-size="12"
     id="tspan248"
     style="font-size:12px;font-family:ArialMT">Word</tspan><tspan
     x="379.65201"
     y="67.517189"
     font-size="12"
     id="tspan250"
     style="font-size:12px;font-family:ArialMT">Line 4</tspan></text>

<text
   id="text258"
   x="445.66501"
   y="53.117188"><tspan
     x="445.66501"
     y="53.117188"
     font-size="12"
     id="tspan254"
     style="font-size:12px;font-family:ArialMT">Word</tspan><tspan
     x="443.65201"
     y="67.517189"
     font-size="12"
     id="tspan256"
     style="font-size:12px;font-family:ArialMT">Line 5</tspan></text>

<text
   id="text264"
   x="507.66501"
   y="53.117188"><tspan
     x="507.66501"
     y="53.117188"
     font-size="12"
     id="tspan260"
     style="font-size:12px;font-family:ArialMT">Word</tspan><tspan
     x="505.65201"
     y="67.517189"
     font-size="12"
     id="tspan262"
     style="font-size:12px;font-family:ArialMT">Line 6</tspan></text>

<text
   id="text270"
   x="571.66498"
   y="53.117188"><tspan
     x="571.66498"
     y="53.117188"
     font-size="12"
     id="tspan266"
     style="font-size:12px;font-family:ArialMT">Word</tspan><tspan
     x="569.65198"
     y="67.517189"
     font-size="12"
     id="tspan268"
     style="font-size:12px;font-family:ArialMT">Line 7</tspan></text>

<text
   id="text278"
   x="633.9873"
   y="39.117188"><tspan
     x="633.9873"
     y="39.117188"
     font-size="12"
     id="tspan272"
     style="font-size:12px;font-family:ArialMT">Bit Line</tspan><tspan
     x="637.32428"
     y="53.517189"
     font-size="12"
     id="tspan274"
     style="font-size:12px;font-family:ArialMT">Select</tspan><tspan
     x="627.32831"
     y="67.917191"
     font-size="12"
     id="tspan276"
     style="font-size:12px;font-family:ArialMT">Transistor</tspan></text>

<text
   id="text286"
   x="57.987301"
   y="39.117188"><tspan
     x="57.987301"
     y="39.117188"
     font-size="12"
     id="tspan280"
     style="font-size:12px;font-family:ArialMT">Ground</tspan><tspan
     x="61.324299"
     y="53.517189"
     font-size="12"
     id="tspan282"
     style="font-size:12px;font-family:ArialMT">Select</tspan><tspan
     x="51.3283"
     y="67.917191"
     font-size="12"
     id="tspan284"
     style="font-size:12px;font-family:ArialMT">Transistor</tspan></text>

<text
   font-size="12"
   id="text288"
   style="font-size:12px;font-family:ArialMT"
   x="649.9873"
   y="9.1171875">Bit Line</text>

<text
   font-size="12"
   id="text290"
   x="41.667"
   y="219.11719"
   style="font-size:12px;font-family:ArialMT">N</text>

<text
   font-size="12"
   id="text292"
   x="105.66701"
   y="219.11719"
   style="font-size:12px;font-family:ArialMT">N</text>

<text
   font-size="12"
   id="text294"
   x="169.66701"
   y="219.11719"
   style="font-size:12px;font-family:ArialMT">N</text>

<text
   font-size="12"
   id="text296"
   x="233.66699"
   y="219.11719"
   style="font-size:12px;font-family:ArialMT">N</text>

<text
   font-size="12"
   id="text298"
   x="297.66699"
   y="219.11719"
   style="font-size:12px;font-family:ArialMT">N</text>

<text
   font-size="12"
   id="text300"
   x="361.66699"
   y="219.11719"
   style="font-size:12px;font-family:ArialMT">N</text>

<text
   font-size="12"
   id="text302"
   x="425.66699"
   y="219.11719"
   style="font-size:12px;font-family:ArialMT">N</text>

<text
   font-size="12"
   id="text304"
   x="489.66699"
   y="219.11719"
   style="font-size:12px;font-family:ArialMT">N</text>

<text
   font-size="12"
   id="text306"
   x="553.66699"
   y="219.11719"
   style="font-size:12px;font-family:ArialMT">N</text>

<text
   font-size="12"
   id="text308"
   x="617.66699"
   y="219.11719"
   style="font-size:12px;font-family:ArialMT">N</text>

<text
   font-size="12"
   id="text310"
   x="681.66699"
   y="219.11719"
   style="font-size:12px;font-family:ArialMT">N</text>

<text
   font-size="12"
   id="text312"
   x="359.99799"
   y="241.11719"
   style="font-size:12px;font-family:ArialMT">P</text>

</svg>