<?xml version="1.0" encoding="UTF-8" standalone="no"?>
<svg
   xmlns:dc="http://purl.org/dc/elements/1.1/"
   xmlns:cc="http://creativecommons.org/ns#"
   xmlns:rdf="http://www.w3.org/1999/02/22-rdf-syntax-ns#"
   xmlns:svg="http://www.w3.org/2000/svg"
   xmlns="http://www.w3.org/2000/svg"
   xmlns:sodipodi="http://sodipodi.sourceforge.net/DTD/sodipodi-0.dtd"
   xmlns:inkscape="http://www.inkscape.org/namespaces/inkscape"
   version="1.1"
   viewBox="0 0 415.50781 281.5"
   id="svg334"
   sodipodi:docname="12.PLD.svg"
   width="415.50781"
   height="281.5"
   inkscape:version="0.92.5 (2060ec1f9f, 2020-04-08)">
  <metadata
     id="metadata340">
    <rdf:RDF>
      <cc:Work
         rdf:about="">
        <dc:format>image/svg+xml</dc:format>
        <dc:type
           rdf:resource="http://purl.org/dc/dcmitype/StillImage" />
        <dc:title></dc:title>
      </cc:Work>
    </rdf:RDF>
  </metadata>
  <defs
     id="defs338" />
  <sodipodi:namedview
     pagecolor="#ffffff"
     bordercolor="#666666"
     borderopacity="1"
     objecttolerance="10"
     gridtolerance="10"
     guidetolerance="10"
     inkscape:pageopacity="0"
     inkscape:pageshadow="2"
     inkscape:window-width="1920"
     inkscape:window-height="1001"
     id="namedview336"
     showgrid="false"
     fit-margin-top="0"
     fit-margin-left="0"
     fit-margin-right="0"
     fit-margin-bottom="0"
     inkscape:zoom="1.046252"
     inkscape:cx="39.029604"
     inkscape:cy="145.9774"
     inkscape:window-x="-9"
     inkscape:window-y="-9"
     inkscape:window-maximized="1"
     inkscape:current-layer="svg334" />
  <polyline
     points="318,283 268,283 268,313"
     id="polyline2"
     style="fill:none;stroke:#006400;stroke-width:3;stroke-linecap:square"
     transform="translate(-5.796875,-33)" />
  <polyline
     points="258,163 258,83 298,83"
     id="polyline4"
     style="fill:none;stroke:#006400;stroke-width:3;stroke-linecap:square"
     transform="translate(-5.796875,-33)" />
  <polyline
     points="268,193 268,283"
     id="polyline6"
     style="fill:none;stroke:#006400;stroke-width:3;stroke-linecap:square"
     transform="translate(-5.796875,-33)" />
  <polyline
     points="98,143 138,143 298,143"
     id="polyline8"
     style="fill:none;stroke:#00d200;stroke-width:3;stroke-linecap:square"
     transform="translate(-5.796875,-33)" />
  <polyline
     points="278,163 278,63 238,63 238,163"
     id="polyline10"
     style="fill:none;stroke:#00d200;stroke-width:3;stroke-linecap:square"
     transform="translate(-5.796875,-33)" />
  <polyline
     points="278,63 298,63"
     id="polyline12"
     style="fill:none;stroke:#00d200;stroke-width:3;stroke-linecap:square"
     transform="translate(-5.796875,-33)" />
  <polyline
     points="318,203 148,203 148,243 318,243"
     id="polyline14"
     style="fill:none;stroke:#006400;stroke-width:3;stroke-linecap:square"
     transform="translate(-5.796875,-33)" />
  <polyline
     points="228,193 228,263 228,313"
     id="polyline16"
     style="fill:none;stroke:#00d200;stroke-width:3;stroke-linecap:square"
     transform="translate(-5.796875,-33)" />
  <polyline
     points="98,63 238,63"
     id="polyline18"
     style="fill:none;stroke:#00d200;stroke-width:3;stroke-linecap:square"
     transform="translate(-5.796875,-33)" />
  <polyline
     points="188,313 188,303 318,303"
     id="polyline20"
     style="fill:none;stroke:#006400;stroke-width:3;stroke-linecap:square"
     transform="translate(-5.796875,-33)" />
  <polyline
     points="148,243 148,313"
     id="polyline22"
     style="fill:none;stroke:#006400;stroke-width:3;stroke-linecap:square"
     transform="translate(-5.796875,-33)" />
  <polyline
     points="148,193 148,203"
     id="polyline24"
     style="fill:none;stroke:#006400;stroke-width:3;stroke-linecap:square"
     transform="translate(-5.796875,-33)" />
  <polyline
     points="318,223 188,223 188,303"
     id="polyline26"
     style="fill:none;stroke:#006400;stroke-width:3;stroke-linecap:square"
     transform="translate(-5.796875,-33)" />
  <polyline
     points="138,143 138,163"
     id="polyline28"
     style="fill:none;stroke:#00d200;stroke-width:3;stroke-linecap:square"
     transform="translate(-5.796875,-33)" />
  <polyline
     points="188,193 188,223"
     id="polyline30"
     style="fill:none;stroke:#006400;stroke-width:3;stroke-linecap:square"
     transform="translate(-5.796875,-33)" />
  <polyline
     points="158,83 258,83"
     id="polyline32"
     style="fill:none;stroke:#006400;stroke-width:3;stroke-linecap:square"
     transform="translate(-5.796875,-33)" />
  <polyline
     points="198,43 298,43"
     id="polyline34"
     style="fill:none;stroke:#006400;stroke-width:3;stroke-linecap:square"
     transform="translate(-5.796875,-33)" />
  <polyline
     points="228,263 318,263"
     id="polyline36"
     style="fill:none;stroke:#00d200;stroke-width:3;stroke-linecap:square"
     transform="translate(-5.796875,-33)" />
  <polyline
     points="178,123 178,163"
     id="polyline38"
     style="fill:none;stroke:#006400;stroke-width:3;stroke-linecap:square"
     transform="translate(-5.796875,-33)" />
  <polyline
     points="348,253 358,253"
     id="polyline40"
     style="fill:none;stroke:#00d200;stroke-width:3;stroke-linecap:square"
     transform="translate(-5.796875,-33)" />
  <polyline
     points="348,293 358,293"
     id="polyline42"
     style="fill:none;stroke:#006400;stroke-width:3;stroke-linecap:square"
     transform="translate(-5.796875,-33)" />
  <polyline
     points="348,213 358,213"
     id="polyline44"
     style="fill:none;stroke:#006400;stroke-width:3;stroke-linecap:square"
     transform="translate(-5.796875,-33)" />
  <polyline
     points="98,103 218,103 298,103"
     id="polyline46"
     style="fill:none;stroke:#00d200;stroke-width:3;stroke-linecap:square"
     transform="translate(-5.796875,-33)" />
  <polyline
     points="198,163 198,43 58,43 58,63 68,63"
     id="polyline48"
     style="fill:none;stroke:#006400;stroke-width:3;stroke-linecap:square"
     transform="translate(-5.796875,-33)" />
  <polyline
     points="158,163 158,83 58,83 58,103 68,103"
     id="polyline50"
     style="fill:none;stroke:#006400;stroke-width:3;stroke-linecap:square"
     transform="translate(-5.796875,-33)" />
  <polyline
     points="298,123 178,123 58,123 58,143 68,143"
     id="polyline52"
     style="fill:none;stroke:#006400;stroke-width:3;stroke-linecap:square"
     transform="translate(-5.796875,-33)" />
  <polyline
     points="218,103 218,163"
     id="polyline54"
     style="fill:none;stroke:#00d200;stroke-width:3;stroke-linecap:square"
     transform="translate(-5.796875,-33)" />
  <circle
     cx="262.20312"
     cy="250"
     id="ellipse56"
     r="5"
     style="fill:#006400;stroke:none;stroke-width:3" />
  <circle
     cx="252.20312"
     cy="50"
     id="ellipse58"
     r="5"
     style="fill:#006400;stroke:none;stroke-width:3" />
  <circle
     cx="232.20312"
     cy="30"
     id="ellipse60"
     r="5"
     style="fill:#00d200;stroke:none;stroke-width:3" />
  <circle
     cx="222.20312"
     cy="230"
     id="ellipse62"
     r="5"
     style="fill:#00d200;stroke:none;stroke-width:3" />
  <circle
     cx="182.20312"
     cy="190"
     id="ellipse64"
     r="5"
     style="fill:#006400;stroke:none;stroke-width:3" />
  <circle
     cx="192.20312"
     cy="10"
     id="ellipse66"
     r="5"
     style="fill:#006400;stroke:none;stroke-width:3" />
  <circle
     cx="52.203125"
     cy="10"
     id="ellipse68"
     r="5"
     style="fill:#006400;stroke:none;stroke-width:3" />
  <circle
     cx="142.20312"
     cy="170"
     id="ellipse70"
     r="5"
     style="fill:#006400;stroke:none;stroke-width:3" />
  <circle
     cx="132.20312"
     cy="110"
     id="ellipse72"
     r="5"
     style="fill:#00d200;stroke:none;stroke-width:3" />
  <circle
     cx="212.20312"
     cy="70"
     id="ellipse74"
     r="5"
     style="fill:#00d200;stroke:none;stroke-width:3" />
  <circle
     cx="52.203125"
     cy="50"
     id="ellipse76"
     r="5"
     style="fill:#006400;stroke:none;stroke-width:3" />
  <circle
     cx="142.20312"
     cy="210"
     id="ellipse78"
     r="5"
     style="fill:#006400;stroke:none;stroke-width:3" />
  <circle
     cx="272.20312"
     cy="30"
     id="ellipse80"
     r="5"
     style="fill:#00d200;stroke:none;stroke-width:3" />
  <circle
     cx="182.20312"
     cy="270"
     id="ellipse82"
     r="5"
     style="fill:#006400;stroke:none;stroke-width:3" />
  <circle
     cx="152.20312"
     cy="50"
     id="ellipse84"
     r="5"
     style="fill:#006400;stroke:none;stroke-width:3" />
  <circle
     cx="52.203125"
     cy="90"
     id="ellipse86"
     r="5"
     style="fill:#006400;stroke:none;stroke-width:3" />
  <circle
     cx="172.20312"
     cy="90"
     id="ellipse88"
     r="5"
     style="fill:#006400;stroke:none;stroke-width:3" />
  <polyline
     points="318,278 347,278"
     id="polyline90"
     style="fill:none;stroke:#000000;stroke-width:2;stroke-linecap:square"
     transform="translate(-5.796875,-33)" />
  <polyline
     points="348,278 348,307"
     id="polyline92"
     style="fill:none;stroke:#000000;stroke-width:2;stroke-linecap:square"
     transform="translate(-5.796875,-33)" />
  <polyline
     points="348,308 319,308"
     id="polyline94"
     style="fill:none;stroke:#000000;stroke-width:2;stroke-linecap:square"
     transform="translate(-5.796875,-33)" />
  <polyline
     points="318,308 318,279"
     id="polyline96"
     style="fill:none;stroke:#000000;stroke-width:2;stroke-linecap:square"
     transform="translate(-5.796875,-33)" />
  <text
     font-size="12"
     x="320.20312"
     y="260"
     id="text98"
     style="font-size:12px;font-family:SansSerif;fill:#000000">≥1</text>
  <circle
     cx="342.20312"
     cy="260"
     id="ellipse100"
     r="2"
     style="fill:#006400;stroke:none;stroke-width:2" />
  <circle
     cx="312.20312"
     cy="250"
     id="ellipse102"
     r="2"
     style="fill:#006400;stroke:none;stroke-width:2" />
  <circle
     cx="312.20312"
     cy="270"
     id="ellipse104"
     r="2"
     style="fill:#006400;stroke:none;stroke-width:2" />
  <polyline
     points="362,213 359,213"
     id="polyline106"
     style="fill:none;stroke:#006400;stroke-width:3;stroke-linecap:square"
     transform="translate(-5.796875,-33)" />
  <polygon
     points="388,222 364,222 364,204 388,204 398,213 "
     id="polygon108"
     style="fill:none;stroke:#000000;stroke-width:2;stroke-linecap:square"
     transform="translate(-5.796875,-33)" />
  <text
     font-size="12"
     x="377.20312"
     y="187"
     id="text110"
     style="font-size:12px;font-family:Monospaced;fill:#0000ff">b</text>
  <text
     font-size="12"
     x="369.20312"
     y="184"
     id="text112"
     style="font-size:12px;font-family:Monospaced;fill:#000000">0</text>
  <text
     font-size="16"
     font-weight="bold"
     x="394.20312"
     y="188"
     id="text114"
     style="font-weight:bold;font-size:16px;font-family:Monospaced;fill:#0000ff">F0</text>
  <circle
     cx="352.20312"
     cy="180"
     id="ellipse116"
     r="2"
     style="fill:#006400;stroke:none;stroke-width:2" />
  <polyline
     points="68,94 87,94"
     id="polyline118"
     style="fill:none;stroke:#000000;stroke-width:2;stroke-linecap:square"
     transform="translate(-5.796875,-33)" />
  <polyline
     points="88,94 88,111"
     id="polyline120"
     style="fill:none;stroke:#000000;stroke-width:2;stroke-linecap:square"
     transform="translate(-5.796875,-33)" />
  <polyline
     points="88,112 69,112"
     id="polyline122"
     style="fill:none;stroke:#000000;stroke-width:2;stroke-linecap:square"
     transform="translate(-5.796875,-33)" />
  <polyline
     points="68,112 68,95"
     id="polyline124"
     style="fill:none;stroke:#000000;stroke-width:2;stroke-linecap:square"
     transform="translate(-5.796875,-33)" />
  <text
     font-size="12"
     x="69.203125"
     y="77"
     id="text126"
     style="font-size:12px;font-family:SansSerif;fill:#000000">1</text>
  <circle
     cx="86.203125"
     cy="69"
     id="ellipse128"
     r="4.5"
     style="fill:none;stroke:#000000;stroke-width:2" />
  <circle
     cx="92.203125"
     cy="70"
     id="ellipse130"
     r="2"
     style="fill:#00d200;stroke:none;stroke-width:1" />
  <circle
     cx="62.203125"
     cy="70"
     id="ellipse132"
     r="2"
     style="fill:#006400;stroke:none;stroke-width:1" />
  <polyline
     points="53,43 58,43"
     id="polyline134"
     style="fill:none;stroke:#006400;stroke-width:3;stroke-linecap:square"
     transform="translate(-5.796875,-33)" />
  <polygon
     points="43,34 19,34 19,52 43,52 53,43 "
     id="polygon136"
     style="fill:none;stroke:#000000;stroke-width:2;stroke-linecap:square"
     transform="translate(-5.796875,-33)" />
  <text
     font-size="12"
     x="32.203125"
     y="17"
     id="text138"
     style="font-size:12px;font-family:Monospaced;fill:#0000ff">b</text>
  <ellipse
     cx="27.203125"
     cy="9"
     rx="4.5"
     ry="7"
     id="ellipse140"
     style="fill:#006400;stroke:none;stroke-width:2" />
  <text
     font-size="12"
     x="24.203125"
     y="14"
     id="text142"
     style="font-size:12px;font-family:Monospaced;fill:#ffffff">0</text>
  <text
     font-size="16"
     font-weight="bold"
     x="0.203125"
     y="18"
     id="text144"
     style="font-weight:bold;font-size:16px;font-family:Monospaced;fill:#0000ff">A</text>
  <circle
     cx="52.203125"
     cy="10"
     id="ellipse146"
     r="2"
     style="fill:#006400;stroke:none;stroke-width:2" />
  <polyline
     points="318,238 347,238"
     id="polyline148"
     style="fill:none;stroke:#000000;stroke-width:2;stroke-linecap:square"
     transform="translate(-5.796875,-33)" />
  <polyline
     points="348,238 348,267"
     id="polyline150"
     style="fill:none;stroke:#000000;stroke-width:2;stroke-linecap:square"
     transform="translate(-5.796875,-33)" />
  <polyline
     points="348,268 319,268"
     id="polyline152"
     style="fill:none;stroke:#000000;stroke-width:2;stroke-linecap:square"
     transform="translate(-5.796875,-33)" />
  <polyline
     points="318,268 318,239"
     id="polyline154"
     style="fill:none;stroke:#000000;stroke-width:2;stroke-linecap:square"
     transform="translate(-5.796875,-33)" />
  <text
     font-size="12"
     x="320.20312"
     y="220"
     id="text156"
     style="font-size:12px;font-family:SansSerif;fill:#000000">≥1</text>
  <circle
     cx="342.20312"
     cy="220"
     id="ellipse158"
     r="2"
     style="fill:#00d200;stroke:none;stroke-width:2" />
  <circle
     cx="312.20312"
     cy="210"
     id="ellipse160"
     r="2"
     style="fill:#006400;stroke:none;stroke-width:2" />
  <circle
     cx="312.20312"
     cy="230"
     id="ellipse162"
     r="2"
     style="fill:#00d200;stroke:none;stroke-width:2" />
  <polyline
     points="243,163 243,192"
     id="polyline164"
     style="fill:none;stroke:#000000;stroke-width:2;stroke-linecap:square"
     transform="translate(-5.796875,-33)" />
  <polyline
     points="243,193 214,193"
     id="polyline166"
     style="fill:none;stroke:#000000;stroke-width:2;stroke-linecap:square"
     transform="translate(-5.796875,-33)" />
  <polyline
     points="213,193 213,164"
     id="polyline168"
     style="fill:none;stroke:#000000;stroke-width:2;stroke-linecap:square"
     transform="translate(-5.796875,-33)" />
  <polyline
     points="213,163 242,163"
     id="polyline170"
     style="fill:none;stroke:#000000;stroke-width:2;stroke-linecap:square"
     transform="translate(-5.796875,-33)" />
  <text
     font-size="12"
     transform="rotate(90)"
     x="141"
     y="-222.20312"
     id="text172"
     style="font-size:12px;font-family:SansSerif;fill:#000000">&amp;</text>
  <circle
     cx="222.20312"
     cy="160"
     id="ellipse174"
     r="2"
     style="fill:#00d200;stroke:none;stroke-width:2" />
  <circle
     cx="212.20312"
     cy="130"
     id="ellipse176"
     r="2"
     style="fill:#00d200;stroke:none;stroke-width:2" />
  <circle
     cx="232.20312"
     cy="130"
     id="ellipse178"
     r="2"
     style="fill:#00d200;stroke:none;stroke-width:2" />
  <polyline
     points="318,198 347,198"
     id="polyline180"
     style="fill:none;stroke:#000000;stroke-width:2;stroke-linecap:square"
     transform="translate(-5.796875,-33)" />
  <polyline
     points="348,198 348,227"
     id="polyline182"
     style="fill:none;stroke:#000000;stroke-width:2;stroke-linecap:square"
     transform="translate(-5.796875,-33)" />
  <polyline
     points="348,228 319,228"
     id="polyline184"
     style="fill:none;stroke:#000000;stroke-width:2;stroke-linecap:square"
     transform="translate(-5.796875,-33)" />
  <polyline
     points="318,228 318,199"
     id="polyline186"
     style="fill:none;stroke:#000000;stroke-width:2;stroke-linecap:square"
     transform="translate(-5.796875,-33)" />
  <text
     font-size="12"
     x="320.20312"
     y="180"
     id="text188"
     style="font-size:12px;font-family:SansSerif;fill:#000000">≥1</text>
  <circle
     cx="342.20312"
     cy="180"
     id="ellipse190"
     r="2"
     style="fill:#006400;stroke:none;stroke-width:2" />
  <circle
     cx="312.20312"
     cy="170"
     id="ellipse192"
     r="2"
     style="fill:#006400;stroke:none;stroke-width:2" />
  <circle
     cx="312.20312"
     cy="190"
     id="ellipse194"
     r="2"
     style="fill:#006400;stroke:none;stroke-width:2" />
  <polyline
     points="362,293 359,293"
     id="polyline196"
     style="fill:none;stroke:#006400;stroke-width:3;stroke-linecap:square"
     transform="translate(-5.796875,-33)" />
  <polygon
     points="388,302 364,302 364,284 388,284 398,293 "
     id="polygon198"
     style="fill:none;stroke:#000000;stroke-width:2;stroke-linecap:square"
     transform="translate(-5.796875,-33)" />
  <text
     font-size="12"
     x="377.20312"
     y="267"
     id="text200"
     style="font-size:12px;font-family:Monospaced;fill:#0000ff">b</text>
  <text
     font-size="12"
     x="369.20312"
     y="264"
     id="text202"
     style="font-size:12px;font-family:Monospaced;fill:#000000">0</text>
  <text
     font-size="16"
     font-weight="bold"
     x="394.20312"
     y="268"
     id="text204"
     style="font-weight:bold;font-size:16px;font-family:Monospaced;fill:#0000ff">F2</text>
  <circle
     cx="352.20312"
     cy="260"
     id="ellipse206"
     r="2"
     style="fill:#006400;stroke:none;stroke-width:2" />
  <polyline
     points="163,163 163,192"
     id="polyline208"
     style="fill:none;stroke:#000000;stroke-width:2;stroke-linecap:square"
     transform="translate(-5.796875,-33)" />
  <polyline
     points="163,193 134,193"
     id="polyline210"
     style="fill:none;stroke:#000000;stroke-width:2;stroke-linecap:square"
     transform="translate(-5.796875,-33)" />
  <polyline
     points="133,193 133,164"
     id="polyline212"
     style="fill:none;stroke:#000000;stroke-width:2;stroke-linecap:square"
     transform="translate(-5.796875,-33)" />
  <polyline
     points="133,163 162,163"
     id="polyline214"
     style="fill:none;stroke:#000000;stroke-width:2;stroke-linecap:square"
     transform="translate(-5.796875,-33)" />
  <text
     font-size="12"
     transform="rotate(90)"
     x="141"
     y="-142.20312"
     id="text216"
     style="font-size:12px;font-family:SansSerif;fill:#000000">&amp;</text>
  <circle
     cx="142.20312"
     cy="160"
     id="ellipse218"
     r="2"
     style="fill:#006400;stroke:none;stroke-width:2" />
  <circle
     cx="132.20312"
     cy="130"
     id="ellipse220"
     r="2"
     style="fill:#00d200;stroke:none;stroke-width:2" />
  <circle
     cx="152.20312"
     cy="130"
     id="ellipse222"
     r="2"
     style="fill:#006400;stroke:none;stroke-width:2" />
  <text
     font-size="12"
     x="36.203125"
     y="219"
     id="text224"
     style="font-size:12px;font-family:SansSerif;fill:#000000">Поле OR -----&gt;</text>
  <polyline
     points="53,123 58,123"
     id="polyline226"
     style="fill:none;stroke:#006400;stroke-width:3;stroke-linecap:square"
     transform="translate(-5.796875,-33)" />
  <polygon
     points="43,114 19,114 19,132 43,132 53,123 "
     id="polygon228"
     style="fill:none;stroke:#000000;stroke-width:2;stroke-linecap:square"
     transform="translate(-5.796875,-33)" />
  <text
     font-size="12"
     x="32.203125"
     y="97"
     id="text230"
     style="font-size:12px;font-family:Monospaced;fill:#0000ff">b</text>
  <ellipse
     cx="27.203125"
     cy="89"
     rx="4.5"
     ry="7"
     id="ellipse232"
     style="fill:#006400;stroke:none;stroke-width:2" />
  <text
     font-size="12"
     x="24.203125"
     y="94"
     id="text234"
     style="font-size:12px;font-family:Monospaced;fill:#ffffff">0</text>
  <text
     font-size="16"
     font-weight="bold"
     x="-0.796875"
     y="98"
     id="text236"
     style="font-weight:bold;font-size:16px;font-family:Monospaced;fill:#0000ff">C</text>
  <circle
     cx="52.203125"
     cy="90"
     id="ellipse238"
     r="2"
     style="fill:#006400;stroke:none;stroke-width:2" />
  <polyline
     points="283,163 283,192"
     id="polyline240"
     style="fill:none;stroke:#000000;stroke-width:2;stroke-linecap:square"
     transform="translate(-5.796875,-33)" />
  <polyline
     points="283,193 254,193"
     id="polyline242"
     style="fill:none;stroke:#000000;stroke-width:2;stroke-linecap:square"
     transform="translate(-5.796875,-33)" />
  <polyline
     points="253,193 253,164"
     id="polyline244"
     style="fill:none;stroke:#000000;stroke-width:2;stroke-linecap:square"
     transform="translate(-5.796875,-33)" />
  <polyline
     points="253,163 282,163"
     id="polyline246"
     style="fill:none;stroke:#000000;stroke-width:2;stroke-linecap:square"
     transform="translate(-5.796875,-33)" />
  <text
     font-size="12"
     transform="rotate(90)"
     x="141"
     y="-262.20312"
     id="text248"
     style="font-size:12px;font-family:SansSerif;fill:#000000">&amp;</text>
  <circle
     cx="262.20312"
     cy="160"
     id="ellipse250"
     r="2"
     style="fill:#006400;stroke:none;stroke-width:2" />
  <circle
     cx="252.20312"
     cy="130"
     id="ellipse252"
     r="2"
     style="fill:#006400;stroke:none;stroke-width:2" />
  <circle
     cx="272.20312"
     cy="130"
     id="ellipse254"
     r="2"
     style="fill:#00d200;stroke:none;stroke-width:2" />
  <polyline
     points="68,54 87,54"
     id="polyline256"
     style="fill:none;stroke:#000000;stroke-width:2;stroke-linecap:square"
     transform="translate(-5.796875,-33)" />
  <polyline
     points="88,54 88,71"
     id="polyline258"
     style="fill:none;stroke:#000000;stroke-width:2;stroke-linecap:square"
     transform="translate(-5.796875,-33)" />
  <polyline
     points="88,72 69,72"
     id="polyline260"
     style="fill:none;stroke:#000000;stroke-width:2;stroke-linecap:square"
     transform="translate(-5.796875,-33)" />
  <polyline
     points="68,72 68,55"
     id="polyline262"
     style="fill:none;stroke:#000000;stroke-width:2;stroke-linecap:square"
     transform="translate(-5.796875,-33)" />
  <text
     font-size="12"
     x="69.203125"
     y="37"
     id="text264"
     style="font-size:12px;font-family:SansSerif;fill:#000000">1</text>
  <circle
     cx="86.203125"
     cy="29"
     id="ellipse266"
     r="4.5"
     style="fill:none;stroke:#000000;stroke-width:2" />
  <circle
     cx="92.203125"
     cy="30"
     id="ellipse268"
     r="2"
     style="fill:#00d200;stroke:none;stroke-width:1" />
  <circle
     cx="62.203125"
     cy="30"
     id="ellipse270"
     r="2"
     style="fill:#006400;stroke:none;stroke-width:1" />
  <polyline
     points="53,83 58,83"
     id="polyline272"
     style="fill:none;stroke:#006400;stroke-width:3;stroke-linecap:square"
     transform="translate(-5.796875,-33)" />
  <polygon
     points="43,74 19,74 19,92 43,92 53,83 "
     id="polygon274"
     style="fill:none;stroke:#000000;stroke-width:2;stroke-linecap:square"
     transform="translate(-5.796875,-33)" />
  <text
     font-size="12"
     x="32.203125"
     y="57"
     id="text276"
     style="font-size:12px;font-family:Monospaced;fill:#0000ff">b</text>
  <ellipse
     cx="27.203125"
     cy="49"
     rx="4.5"
     ry="7"
     id="ellipse278"
     style="fill:#006400;stroke:none;stroke-width:2" />
  <text
     font-size="12"
     x="24.203125"
     y="54"
     id="text280"
     style="font-size:12px;font-family:Monospaced;fill:#ffffff">0</text>
  <text
     font-size="16"
     font-weight="bold"
     x="-0.796875"
     y="58"
     id="text282"
     style="font-weight:bold;font-size:16px;font-family:Monospaced;fill:#0000ff">B</text>
  <circle
     cx="52.203125"
     cy="50"
     id="ellipse284"
     r="2"
     style="fill:#006400;stroke:none;stroke-width:2" />
  <polyline
     points="362,253 359,253"
     id="polyline286"
     style="fill:none;stroke:#00d200;stroke-width:3;stroke-linecap:square"
     transform="translate(-5.796875,-33)" />
  <polygon
     points="388,262 364,262 364,244 388,244 398,253 "
     id="polygon288"
     style="fill:none;stroke:#000000;stroke-width:2;stroke-linecap:square"
     transform="translate(-5.796875,-33)" />
  <text
     font-size="12"
     x="377.20312"
     y="227"
     id="text290"
     style="font-size:12px;font-family:Monospaced;fill:#0000ff">b</text>
  <text
     font-size="12"
     x="369.20312"
     y="224"
     id="text292"
     style="font-size:12px;font-family:Monospaced;fill:#000000">1</text>
  <text
     font-size="16"
     font-weight="bold"
     x="394.20312"
     y="228"
     id="text294"
     style="font-weight:bold;font-size:16px;font-family:Monospaced;fill:#0000ff">F1</text>
  <circle
     cx="352.20312"
     cy="220"
     id="ellipse296"
     r="2"
     style="fill:#00d200;stroke:none;stroke-width:2" />
  <polyline
     points="203,163 203,192"
     id="polyline298"
     style="fill:none;stroke:#000000;stroke-width:2;stroke-linecap:square"
     transform="translate(-5.796875,-33)" />
  <polyline
     points="203,193 174,193"
     id="polyline300"
     style="fill:none;stroke:#000000;stroke-width:2;stroke-linecap:square"
     transform="translate(-5.796875,-33)" />
  <polyline
     points="173,193 173,164"
     id="polyline302"
     style="fill:none;stroke:#000000;stroke-width:2;stroke-linecap:square"
     transform="translate(-5.796875,-33)" />
  <polyline
     points="173,163 202,163"
     id="polyline304"
     style="fill:none;stroke:#000000;stroke-width:2;stroke-linecap:square"
     transform="translate(-5.796875,-33)" />
  <text
     font-size="12"
     transform="rotate(90)"
     x="141"
     y="-182.20312"
     id="text306"
     style="font-size:12px;font-family:SansSerif;fill:#000000">&amp;</text>
  <circle
     cx="182.20312"
     cy="160"
     id="ellipse308"
     r="2"
     style="fill:#006400;stroke:none;stroke-width:2" />
  <circle
     cx="172.20312"
     cy="130"
     id="ellipse310"
     r="2"
     style="fill:#006400;stroke:none;stroke-width:2" />
  <circle
     cx="192.20312"
     cy="130"
     id="ellipse312"
     r="2"
     style="fill:#006400;stroke:none;stroke-width:2" />
  <polyline
     points="68,134 87,134"
     id="polyline314"
     style="fill:none;stroke:#000000;stroke-width:2;stroke-linecap:square"
     transform="translate(-5.796875,-33)" />
  <polyline
     points="88,134 88,151"
     id="polyline316"
     style="fill:none;stroke:#000000;stroke-width:2;stroke-linecap:square"
     transform="translate(-5.796875,-33)" />
  <polyline
     points="88,152 69,152"
     id="polyline318"
     style="fill:none;stroke:#000000;stroke-width:2;stroke-linecap:square"
     transform="translate(-5.796875,-33)" />
  <polyline
     points="68,152 68,135"
     id="polyline320"
     style="fill:none;stroke:#000000;stroke-width:2;stroke-linecap:square"
     transform="translate(-5.796875,-33)" />
  <text
     font-size="12"
     x="69.203125"
     y="117"
     id="text322"
     style="font-size:12px;font-family:SansSerif;fill:#000000">1</text>
  <circle
     cx="86.203125"
     cy="109"
     id="ellipse324"
     r="4.5"
     style="fill:none;stroke:#000000;stroke-width:2" />
  <circle
     cx="92.203125"
     cy="110"
     id="ellipse326"
     r="2"
     style="fill:#00d200;stroke:none;stroke-width:1" />
  <circle
     cx="62.203125"
     cy="110"
     id="ellipse328"
     r="2"
     style="fill:#006400;stroke:none;stroke-width:1" />
  <text
     font-size="12"
     x="301.20312"
     y="68"
     id="text332"
     style="font-size:12px;font-family:SansSerif;fill:#000000">&lt;----- Поле AND</text>
</svg>
